<svg xmlns="http://www.w3.org/2000/svg" viewBox="0 0 679.9745 1203.0035"><defs><clipPath id="b"><path d="M0 1000h1333.3V0H0z"/></clipPath><filter id="d" width="1.054" height="1.027" x="-.027" y="-.014" color-interpolation-filters="sRGB"><feGaussianBlur stdDeviation="5.819"/></filter><filter id="c" width="1.054" height="1.027" x="-.027" y="-.014" color-interpolation-filters="sRGB"><feGaussianBlur stdDeviation="5.804"/></filter><filter id="a" width="1.162" height="1.081" x="-.081" y="-.041" color-interpolation-filters="sRGB"><feGaussianBlur stdDeviation="17.412"/></filter><filter id="e" width="1.3107" height="3.796" x="-.1553" y="-1.398" color-interpolation-filters="sRGB"><feGaussianBlur stdDeviation="33.5779"/></filter></defs><path fill="none" stroke="#1f1f1f" stroke-miterlimit="10" stroke-opacity=".566" stroke-width="3.969" d="M3.684 979.066V55.334A53.333 53.333 0 0 1 57.017 2.001h410.666a53.333 53.333 0 0 1 53.333 53.333v923.732a53.333 53.333 0 0 1-53.333 53.333H57.017a53.333 53.333 0 0 1-53.333-53.333z" filter="url(#a)" transform="matrix(1 0 0 1.01592 77.6377 40.886)"/><g clip-path="url(#b)" transform="matrix(1.33333 0 0 -1.33333 -267.6774 1221.6016)"><path fill="#323232" d="M300.5 884.4a40 40 0 0 1-40-40V150.1a40 40 0 0 1 40-40h308a40 40 0 0 1 40 40v694.3a40 40 0 0 1-40 40zm-.3-22h308.7c15 0 27-12 27-27V160c0-15-12-27-27-27H300.2c-15 0-27 12-27 27v675.5c0 15 12 27 27 27z"/><path fill="none" stroke="#484c57" stroke-miterlimit="10" stroke-width="3" d="M260.5 151.6v692.8a40 40 0 0 0 40 40h308a40 40 0 0 0 40-40V151.6a40 40 0 0 0-40-40h-308a40 40 0 0 0-40 40z"/><path fill="#3e3e3e" d="M648.5 647.4a2 2 0 0 0-2 2v48c0 1.1 1 2 2 2a4 4 0 0 0 4-4v-44a4 4 0 0 0-4-4m.5-152a2.5 2.5 0 0 0-2.5 2.5v96a2.5 2.5 0 1 0 5 0v-96c0-1.4-1.1-2.5-2.5-2.5"/></g><path fill="none" stroke="#acacac" stroke-miterlimit="10" stroke-opacity=".272" stroke-width="4.052" d="M3.684 979.066V55.335A53.333 53.333 0 0 1 57.017 2h410.666a53.333 53.333 0 0 1 53.333 53.334v923.73a53.333 53.333 0 0 1-53.333 53.334H57.017a53.333 53.333 0 0 1-53.333-53.333z" filter="url(#c)" transform="matrix(1 0 0 .97472 77.6377 67.016)"/><path fill="none" stroke="#000" stroke-miterlimit="10" stroke-width="4" d="M81.3217 1019.984V96.254a53.333 53.333 0 0 1 53.333-53.334h410.666a53.333 53.333 0 0 1 53.333 53.333v923.731a53.333 53.333 0 0 1-53.333 53.333h-410.666a53.333 53.333 0 0 1-53.333-53.333z" filter="url(#d)"/><path fill="#4b4b4b" fill-opacity=".6994" d="M599.3875 1093.5944a259.4002 28.8222 0 0 1-257.2962 28.8213 259.4002 28.8222 0 0 1-261.4702-28.3538 259.4002 28.8222 0 0 1 253.0544-29.2813 259.4002 28.8222 0 0 1 265.5755 27.8788" filter="url(#e)"/></svg>