<svg xmlns="http://www.w3.org/2000/svg" width="1330" height="800" viewBox="0 0 351.9 211.7"><text x="494.2" y="139.5" stroke-width=".3" font-family="SF Burlington Script" font-size="30.5" font-weight="700" letter-spacing="0" style="line-height:1.25;-inkscape-font-specification:'SF Burlington Script Bold'" transform="translate(-163.2 -33.2)" word-spacing="0"/><text x="624.5" y="235.1" stroke-width=".3" font-family="Roboto" font-size="25.4" font-weight="700" letter-spacing="0" style="line-height:1.25;-inkscape-font-specification:'Roboto Bold'" transform="translate(-163.2 -33.2)" word-spacing="0"/><g transform="translate(-199.2 -6.5)"><path fill="#a600ff" d="M199.2 7h11.2v11.2h-11.2z"/><path fill="#a600ff" stroke="#a600ff" stroke-linecap="square" stroke-width="1.1" d="M241.8 17.7h-10l4.8-9.6zM221.2 7.2l5.4 5.4-5.4 5.4-5.4-5.4z"/><rect width="10.3" height="10.3" x="282.1" y="35.4" fill="none" stroke="#a600ff" stroke-linecap="square" stroke-width="1.1" ry="5.1"/><path fill="none" stroke="#a600ff" stroke-width="1.1" d="M244.7 12.7h42.5v19.7"/></g><g stroke-width=".1"><path fill="#a600ff" d="M31.8 96l-.5-.1a.9.9 0 0 1-.3-1l9.3-25.7L29 66a.9.9 0 0 1-.4-1.5l22.8-27.1c.3-.4.8-.4 1.1-.3.4.2.6.7.5 1l-6.6 23 11.3 3.2a.9.9 0 0 1 .5 1.4l-25.7 30c-.2.2-.4.3-.7.3zm-1-31.4l10.9 3.1c.2 0 .4.3.5.5.2.2.2.5 0 .7l-7.9 22L56 65.5l-10.9-3a.9.9 0 0 1-.6-1.2l5.7-19.7z"/></g></svg>