<svg xmlns="http://www.w3.org/2000/svg" width="1330" height="800" viewBox="0 0 351.9 211.67"><defs><filter id="z" width="1.09" height="1.14" x="-.04" y="-.07" color-interpolation-filters="sRGB"><feGaussianBlur stdDeviation="4.83"/></filter></defs><g stroke-width="1.47" transform="matrix(.68607 0 0 .67013 -124.98 49.99)"><rect width="264.58" height="164.04" x="163.33" y="-40.86" fill="#070707" fill-opacity=".94" filter="url(#z)" opacity=".22" rx="2.12" transform="matrix(.81267 0 0 .80237 58.85 133.13)"/><rect width="215.02" height="131.62" x="191.62" y="100.34" fill="#323232" opacity=".76" rx="1.72"/><path fill="#3f3f3f" d="M193.32 100.34H404.9c.95 0 1.72.76 1.72 1.7l.03 3.75h-215.1l.05-3.75c0-.94.76-1.7 1.72-1.7z" opacity=".76"/><path fill="none" stroke="#d7d7d7" stroke-linecap="round" stroke-width=".39" d="M402.16 102l2.48 2.4m-2.48 0l2.48-2.4m-11.85 2.36h2.48"/><path fill="none" stroke="#d7d7d7" stroke-width=".39" d="M398.27 102.01a.26.26 0 0 0-.26.26v.25h1.15c.15 0 .27.11.27.26v1.12h.26c.14 0 .26-.11.26-.25v-1.38a.26.26 0 0 0-.26-.26z" opacity=".76"/><path fill="none" stroke="#d7d7d7" stroke-width=".8" d="M545.53 47.21c-.3 0-.53.24-.53.53v2.87c0 .3.24.53.53.53h2.87c.3 0 .53-.24.53-.53v-2.87c0-.3-.24-.53-.53-.53z" opacity=".76" transform="matrix(.49435 0 0 .48064 128.06 79.83)"/><rect width="17.2" height="3.4" x="200.15" y="113.93" fill="#f55" fill-opacity=".95" opacity=".76" rx="1.72"/><rect width="18.52" height="3.4" x="207.03" y="144.15" fill="#d54e4e" fill-opacity=".95" rx="1.72"/><rect width="14.55" height="3.4" x="200.15" y="164.3" fill="#d54e4e" fill-opacity=".95" rx="1.72"/><rect width="12.9" height="3.4" x="200.15" y="174.38" fill="#d54e4e" fill-opacity=".95" rx="1.72"/><rect width="23.81" height="3.4" x="207.03" y="184.45" fill="#d54e4e" fill-opacity=".95" rx="1.72"/><rect width="16.93" height="3.4" x="212.4" y="194.53" fill="#c6c6c6" fill-opacity=".99" rx="1.72"/><rect width="23.81" height="3.4" x="207.03" y="204.6" fill="#d54e4e" fill-opacity=".95" rx="1.72"/><rect width="20.11" height="3.4" x="207.03" y="214.68" fill="#d54e4e" fill-opacity=".95" rx="1.72"/><rect width="39.36" height="3.4" x="296.08" y="194.53" fill="#f2f2f2" opacity=".76" rx="1.72"/><g fill-opacity=".95" transform="translate(6.88 30.22)"><rect width="12.9" height="3.4" x="200.15" y="124" fill="#d54e4e" rx="1.72"/><rect width="12.9" height="3.4" x="217.08" y="124" fill="#fc0" rx="1.72"/><rect width="39.36" height="3.4" x="234.02" y="124" fill="#71c837" rx="1.72"/></g><rect width="12.9" height="3.4" x="207.03" y="134.08" fill="#d54e4e" fill-opacity=".95" rx="1.72"/><rect width="12.9" height="3.4" x="223.96" y="134.08" fill="#fc0" fill-opacity=".95" rx="1.72"/><rect width="39.36" height="3.4" x="240.9" y="134.08" fill="#71c837" fill-opacity=".95" rx="1.72"/><rect width="31.75" height="3.4" x="230.05" y="144.15" fill="#cbcbcb" fill-opacity=".95" rx="1.72"/><rect width="18.52" height="3.4" x="266.3" y="144.15" fill="#d54e4e" fill-opacity=".95" rx="1.72"/><rect width="14.55" height="3.4" x="200.15" y="124" fill="#d54e4e" fill-opacity=".95" rx="1.72"/><rect width="18.52" height="3.4" x="235.58" y="184.45" fill="#f7c702" fill-opacity=".99" rx="1.72"/><rect width="42.33" height="3.4" x="258.84" y="184.45" fill="#6fc336" fill-opacity=".99" rx="1.72"/><rect width="13.23" height="3.4" x="305.91" y="184.45" fill="#f6c601" rx="1.72"/><rect width="13.23" height="3.4" x="323.88" y="184.45" fill="#6ec235" rx="1.72"/><rect width="8.47" height="3.4" x="233.27" y="194.53" fill="#cf4d4d" fill-opacity=".99" rx="1.72"/><rect width="8.47" height="3.4" x="283.68" y="194.53" fill="#cf4d4d" fill-opacity=".99" rx="1.72"/><rect width="19.58" height="3.4" x="260.17" y="194.53" fill="#c6c6c6" fill-opacity=".99" rx="1.72"/><rect width="10.58" height="3.4" x="245.66" y="194.53" fill="#f6c601" rx="1.72"/><rect width="6.88" height="3.4" x="231.7" y="214.68" fill="#59f" fill-opacity=".95" rx="1.72"/><rect width="24.34" height="3.4" x="243.15" y="214.68" fill="#6ec235" rx="1.72"/><rect width="12.9" height="3.4" x="272.06" y="214.68" fill="#fc0" fill-opacity=".95" rx="1.72"/><rect width="18.52" height="3.4" x="289.53" y="214.68" fill="#f7c702" fill-opacity=".99" rx="1.72"/><rect width="31.75" height="3.4" x="312.61" y="214.68" fill="#71c837" fill-opacity=".95" rx="1.72"/></g></svg>