<svg xmlns="http://www.w3.org/2000/svg" width="1330" height="800" viewBox="0 0 351.896 211.667"><defs><clipPath id="d"><path d="M0 1000h1333.3V0H0z"/></clipPath><filter id="f" width="1.054" height="1.027" x="-.027" y="-.014" color-interpolation-filters="sRGB"><feGaussianBlur stdDeviation="5.819"/></filter><filter id="e" width="1.054" height="1.027" x="-.027" y="-.014" color-interpolation-filters="sRGB"><feGaussianBlur stdDeviation="5.804"/></filter><filter id="c" width="1.162" height="1.081" x="-.081" y="-.041" color-interpolation-filters="sRGB"><feGaussianBlur stdDeviation="17.412"/></filter><filter id="g" width="1.311" height="3.796" x="-.155" y="-1.398" color-interpolation-filters="sRGB"><feGaussianBlur stdDeviation="33.578"/></filter><filter id="b" width="1.059" height="1.093" x="-.029" y="-.046" color-interpolation-filters="sRGB"><feGaussianBlur stdDeviation="1.149"/></filter><filter id="a" width="1.163" height="1.257" x="-.081" y="-.129" color-interpolation-filters="sRGB"><feGaussianBlur stdDeviation="3.179"/></filter></defs><path fill="#a600ff" stroke="#a600ff" stroke-linecap="square" stroke-width="1.058" d="M676.143 223.75a31.057 31.057 0 0 1-30.805 31.056 31.057 31.057 0 0 1-31.305-30.552 31.057 31.057 0 0 1 30.297-31.551 31.057 31.057 0 0 1 31.796 30.04"/><text style="line-height:1.25;-inkscape-font-specification:'SF Burlington Script Bold'" x="784.352" y="265.987" stroke-width=".265" font-family="SF Burlington Script" font-size="25.361" font-weight="700" letter-spacing="0" transform="translate(-163.236 -33.222)" word-spacing="0"><tspan x="784.352" y="265.987" style="-inkscape-font-specification:'Roboto Light, '" fill="#fff" font-family="Roboto Light" font-weight="400">60<tspan style="-inkscape-font-specification:'Roboto Bold'" font-family="Roboto" font-size="10.567" font-weight="700">FPS</tspan></tspan></text><text style="line-height:1.25;-inkscape-font-specification:'SF Burlington Script Bold'" x="494.168" y="139.486" stroke-width=".265" font-family="SF Burlington Script" font-size="30.48" font-weight="700" letter-spacing="0" transform="translate(-163.236 -33.222)" word-spacing="0"/><g transform="translate(-325.85 -56.358)"><path fill="#a600ff" d="M199.192 7.032h11.218V18.25h-11.218z"/><path fill="#a600ff" stroke="#a600ff" stroke-linecap="square" stroke-width="1.058" d="M241.77 17.746l-9.97-.03 4.85-9.593zM221.177 7.239l5.36 5.36-5.36 5.362-5.362-5.361z"/><rect width="10.283" height="10.283" x="282.118" y="35.36" fill="none" stroke="#a600ff" stroke-linecap="square" stroke-width="1.058" ry="5.142"/><path fill="none" stroke="#a600ff" stroke-width="1.058" d="M244.675 12.653h42.567v19.785"/></g><g transform="translate(125.633 48.084)"><rect width="107.374" height="26.458" x="553.829" y="202.028" fill="#a600ff" stroke="#a600ff" stroke-linecap="square" stroke-width="1.058" ry="2.207"/><text x="564.71" y="217.316" stroke-width=".265" font-family="Roboto" font-size="16.452" font-weight="700" letter-spacing="0" transform="scale(1.00117 .99883)" style="line-height:1.25;-inkscape-font-specification:'Roboto Bold'" word-spacing="0"><tspan style="-inkscape-font-specification:Roboto" x="564.71" y="217.316" fill="#fff" font-size="6.307" font-weight="400">requestAnimationFrame(loop)</tspan></text></g><text style="line-height:1.25;-inkscape-font-specification:'Roboto Bold'" x="624.469" y="235.138" stroke-width=".265" font-family="Roboto" font-size="25.4" font-weight="700" letter-spacing="0" transform="translate(-163.236 -33.222)" word-spacing="0"/><g stroke-width=".148"><path fill="#a600ff" d="M-94.86 46.151a.892.892 0 0 1-.84-1.198l9.329-25.644-11.274-3.216a.894.894 0 0 1-.44-1.434l22.869-27.167a.894.894 0 0 1 1.541.823l-6.594 22.872 11.335 3.234a.89.89 0 0 1 .434 1.44l-25.68 29.98a.9.9 0 0 1-.68.31zm-.97-31.398l10.87 3.099a.889.889 0 0 1 .595 1.163l-7.976 21.927 21.579-25.19-10.857-3.095a.895.895 0 0 1-.614-1.106l5.679-19.696z"/></g><g stroke="#59ff00" transform="translate(595.466 38.348)"><rect width="6.751" height="6.751" x="-56.632" y="197.477" fill="none" stroke-linecap="square" stroke-width="1.059" rx="1.293" ry="0" transform="scale(1.01566 .9841) rotate(-45)"/><path fill="none" stroke-width="1.058" d="M114.086 176.824h45.956"/><rect width="6.751" height="6.751" x="-13.457" y="240.653" fill="#59ff00" stroke-linecap="square" stroke-width="1.059" rx="0" ry="0" transform="scale(1.01566 .9841) rotate(-45)"/></g><text style="line-height:1.25;-inkscape-font-specification:'Roboto Bold'" x="320.065" y="100.123" stroke-width=".265" font-family="Roboto" font-size="5.927" font-weight="700" letter-spacing="0" transform="translate(-163.236 -33.222)" word-spacing="0"/><g stroke-width="1.27"><text x="513.018" y="14.216" style="line-height:1.25;-inkscape-font-specification:'Roboto Bold'" fill="#a600ff" stroke-width=".336" font-family="Roboto" font-size="25.4" font-weight="700" letter-spacing="0" transform="matrix(.78735 0 0 .7874 -162.298 13.478)" word-spacing="0"><tspan style="-inkscape-font-specification:Roboto" x="513.018" y="14.216" font-weight="400">A11Y</tspan></text><path d="M219.146 33.405l-3.584 6.208-3.584 6.207h-5.4a2.614 2.614 0 0 0-2.62 2.62v41.694a2.613 2.613 0 0 0 2.62 2.62h88.627a2.613 2.613 0 0 0 2.619-2.62V48.44a2.614 2.614 0 0 0-2.62-2.62h-68.89l-3.584-6.207z" filter="url(#a)" opacity=".12" paint-order="fill markers stroke" transform="matrix(.78735 0 0 .7874 78.232 3.856)"/><path d="M219.146 33.405l-3.584 6.208-3.584 6.207h-5.4a2.614 2.614 0 0 0-2.62 2.62v41.694a2.613 2.613 0 0 0 2.62 2.62h88.627a2.613 2.613 0 0 0 2.619-2.62V48.44a2.614 2.614 0 0 0-2.62-2.62h-68.89l-3.584-6.207z" filter="url(#b)" opacity=".471" paint-order="fill markers stroke" transform="matrix(.78735 0 0 .7874 78.232 3.856)"/><path fill="#1f1f1f" d="M250.777 30.16l-2.821 4.888-2.822 4.887h-4.253c-1.142 0-2.062.92-2.062 2.063v32.83c0 1.143.92 2.062 2.062 2.062h69.781c1.143 0 2.063-.92 2.063-2.062v-32.83c0-1.143-.92-2.063-2.063-2.063h-54.24l-2.823-4.887z" opacity=".89" paint-order="fill markers stroke"/><path fill="none" stroke="#e6e6e6" stroke-width=".336" d="M208.823 58.724h84.136" transform="matrix(.78735 0 0 .7874 78.232 3.856)"/><text style="line-height:1.25;-inkscape-font-specification:'Roboto Bold'" x="208.522" y="54.646" stroke-width=".336" font-family="Roboto" font-size="5.927" font-weight="700" letter-spacing="0" transform="matrix(.78735 0 0 .7874 78.232 3.856)" word-spacing="0"><tspan x="208.522" y="54.646"><tspan fill="#549bbc">h2</tspan><tspan fill="#e0e0e0">#</tspan><tspan fill="#89a4c0">a11y</tspan></tspan></text><text style="line-height:1.25;-inkscape-font-specification:'Roboto Bold'" x="208.575" y="67.678" stroke-width=".336" font-family="Roboto" font-size="5.927" font-weight="700" letter-spacing="0" transform="matrix(.78735 0 0 .7874 78.232 3.856)" word-spacing="0"><tspan x="208.575" y="67.678" style="-inkscape-font-specification:Roboto" fill="#e6e6e6" font-size="5.503" font-weight="400">Color</tspan></text><text style="line-height:1.25;-inkscape-font-specification:'Roboto Bold'" x="208.447" y="76.326" stroke-width=".336" font-family="Roboto" font-size="5.927" font-weight="700" letter-spacing="0" transform="matrix(.78735 0 0 .7874 78.232 3.856)" word-spacing="0"><tspan x="208.447" y="76.326" style="-inkscape-font-specification:Roboto" fill="#e6e6e6" font-size="5.503" font-weight="400">Font</tspan></text><text style="line-height:1.25;-inkscape-font-specification:'Roboto Bold'" x="208.575" y="85.032" stroke-width=".336" font-family="Roboto" font-size="5.927" font-weight="700" letter-spacing="0" transform="matrix(.78735 0 0 .7874 78.232 3.856)" word-spacing="0"><tspan x="208.575" y="85.032" style="-inkscape-font-specification:Roboto" fill="#e6e6e6" font-size="5.503" font-weight="400">Contrast</tspan></text><text x="292.312" y="51.704" style="line-height:1.25;-inkscape-font-specification:'Roboto Bold'" stroke-width=".336" font-family="Roboto" font-size="5.927" font-weight="700" letter-spacing="0" transform="matrix(.78735 0 0 .7874 73.76 6.675)" word-spacing="0"><tspan style="-inkscape-font-specification:Roboto" x="292.312" y="51.704" fill="#e6e6e6" font-weight="400">30</tspan></text><text x="276.186" y="51.462" style="line-height:1.25;-inkscape-font-specification:'Roboto Bold'" stroke-width=".336" font-family="Roboto" font-size="5.927" font-weight="700" letter-spacing="0" transform="matrix(.78735 0 0 .7874 73.76 6.675)" word-spacing="0"><tspan style="-inkscape-font-specification:Roboto" x="276.186" y="51.462" fill="#e6e6e6" font-weight="400">122</tspan></text><path d="M300.202 44.212l-.147.148 1.272 1.272-1.272 1.272.147.147 1.272-1.272 1.272 1.272.148-.147-1.272-1.272 1.272-1.272-.148-.148-1.272 1.272z" style="line-height:normal;font-variant-ligatures:normal;font-variant-position:normal;font-variant-caps:normal;font-variant-numeric:normal;font-variant-alternates:normal;font-feature-settings:normal;text-indent:0;text-align:start;text-decoration-line:none;text-decoration-style:solid;text-decoration-color:#000;text-transform:none;text-orientation:mixed;shape-padding:0;isolation:auto;mix-blend-mode:normal" fill="#e6e6e6" color="#000" enable-background="accumulate" font-family="sans-serif" font-weight="400" overflow="visible" white-space="normal"/><rect width="4.118" height="4.118" x="266.871" y="63.582" fill="#a600ff" paint-order="fill markers stroke" ry="0" transform="matrix(.78735 0 0 .7874 77.304 3.856)"/><text x="271.955" y="67.706" style="line-height:1.25;-inkscape-font-specification:'Roboto Bold'" stroke-width=".336" font-family="Roboto" font-size="5.927" font-weight="700" letter-spacing="0" transform="matrix(.78735 0 0 .7874 77.304 3.856)" word-spacing="0"><tspan style="-inkscape-font-specification:Roboto" x="271.955" y="67.706" fill="#e6e6e6" font-size="5.503" font-weight="400">#A600FF</tspan></text><text style="line-height:1.25;-inkscape-font-specification:'Roboto Bold'" x="236.662" y="75.902" stroke-width=".336" font-family="Roboto" font-size="5.927" font-weight="700" letter-spacing="0" transform="matrix(.78735 0 0 .7874 78.232 3.856)" word-spacing="0"><tspan x="236.662" y="75.902" style="-inkscape-font-specification:Roboto" fill="#e6e6e6" font-size="5.503" font-weight="400">22px Roboto, sans-se...</tspan></text><g stroke-width=".336"><text x="265.376" y="84.763" style="line-height:1.25;-inkscape-font-specification:'Roboto Bold'" fill="#a600ff" font-family="Roboto" font-size="5.927" font-weight="700" letter-spacing="0" transform="matrix(.78735 0 0 .7874 84.36 3.856)" word-spacing="0"><tspan style="-inkscape-font-specification:Roboto" x="265.376" y="84.763" font-size="4.233" font-weight="400">Aa</tspan></text><path fill="none" stroke="#a600ff" stroke-linecap="round" d="M264.501 80.825h6.916v4.908h-6.916z" paint-order="fill markers stroke" transform="matrix(.78735 0 0 .7874 84.36 3.856)"/><text x="273.876" y="85.367" style="line-height:1.25;-inkscape-font-specification:'Roboto Bold'" font-family="Roboto" font-size="5.927" font-weight="700" letter-spacing="0" transform="matrix(.78735 0 0 .7874 84.36 3.856)" word-spacing="0"><tspan style="-inkscape-font-specification:Roboto" x="273.876" y="85.367" fill="#e6e6e6" font-weight="400">5.17</tspan></text></g></g><text style="line-height:1.25;-inkscape-font-specification:'Roboto Bold'" x="249.253" y="83.515" stroke-width=".265" font-family="Roboto" font-size="5.927" font-weight="700" letter-spacing="0" transform="translate(-163.236 -33.222)" word-spacing="0"/><g stroke-width=".078"><path fill="#a600ff" d="M-101.057 68.868a6.761 6.761 0 0 0-6.761 6.762 6.761 6.761 0 0 0 6.761 6.761 6.761 6.761 0 0 0 6.762-6.761 6.761 6.761 0 0 0-6.762-6.762zm-24.476 15.078a6.922 6.922 0 0 0-6.322 4.057l-2.265 6.086 6.49 1.791 2.198-5.172h7.472l-6.187 13.86c-2.028 4.497 1.319 9.805 6.254 9.805h16.836v16.903h6.762v-18.594c0-3.718-3.043-6.761-6.762-6.761h-6.288l5.646-12.407c2.062-4.497-1.251-9.568-6.254-9.568zm-2.57 16.904c-9.33 0-16.903 7.573-16.903 16.903 0 9.331 7.573 16.904 16.904 16.904 9.33 0 16.903-7.573 16.903-16.904h-6.761c0 5.579-4.564 10.142-10.142 10.142-5.579 0-10.142-4.563-10.142-10.142 0-5.578 4.563-10.142 10.142-10.142z"/><path fill="none" d="M-158.529 60.281h81.137v81.137h-81.137z"/></g><g stroke-width="1.497"><path fill="none" stroke="#1f1f1f" stroke-miterlimit="10" stroke-opacity=".566" stroke-width="5.941" d="M3.684 979.066V55.334A53.333 53.333 0 0 1 57.017 2.001h410.666a53.333 53.333 0 0 1 53.333 53.333v923.732a53.333 53.333 0 0 1-53.333 53.333H57.017a53.333 53.333 0 0 1-53.333-53.333z" filter="url(#c)" transform="matrix(.1726 0 0 .18391 505.588 26.794)"/><g clip-path="url(#d)" transform="matrix(.23013 0 0 -.24138 445.986 240.542)"><path fill="#323232" d="M300.5 884.4a40 40 0 0 1-40-40V150.1a40 40 0 0 1 40-40h308a40 40 0 0 1 40 40v694.3a40 40 0 0 1-40 40zm-.3-22h308.7c15 0 27-12 27-27V160c0-15-12-27-27-27H300.2c-15 0-27 12-27 27v675.5c0 15 12 27 27 27z"/><path fill="none" stroke="#484c57" stroke-miterlimit="10" stroke-width="4.49" d="M260.5 151.6v692.8a40 40 0 0 0 40 40h308a40 40 0 0 0 40-40V151.6a40 40 0 0 0-40-40h-308a40 40 0 0 0-40 40z"/><path fill="#3e3e3e" d="M648.5 647.4a2 2 0 0 0-2 2v48c0 1.1 1 2 2 2a4 4 0 0 0 4-4v-44a4 4 0 0 0-4-4m.5-152a2.5 2.5 0 0 0-2.5 2.5v96a2.5 2.5 0 1 0 5 0v-96c0-1.4-1.1-2.5-2.5-2.5"/></g><path fill="none" stroke="#acacac" stroke-miterlimit="10" stroke-opacity=".272" stroke-width="6.065" d="M3.684 979.066V55.335A53.333 53.333 0 0 1 57.017 2h410.666a53.333 53.333 0 0 1 53.333 53.334v923.73a53.333 53.333 0 0 1-53.333 53.334H57.017a53.333 53.333 0 0 1-53.333-53.333z" filter="url(#e)" transform="matrix(.1726 0 0 .17646 505.588 31.525)"/><path fill="none" stroke="#000" stroke-miterlimit="10" stroke-width="5.987" d="M81.322 1019.984V96.254a53.333 53.333 0 0 1 53.333-53.334H545.32a53.333 53.333 0 0 1 53.333 53.333v923.731a53.333 53.333 0 0 1-53.333 53.333H134.655a53.333 53.333 0 0 1-53.333-53.333z" filter="url(#f)" transform="matrix(.1726 0 0 .18103 492.187 19.393)"/><path fill="#4b4b4b" fill-opacity=".699" d="M599.388 1093.594a259.4 28.822 0 0 1-257.297 28.822 259.4 28.822 0 0 1-261.47-28.354 259.4 28.822 0 0 1 253.055-29.281 259.4 28.822 0 0 1 265.575 27.878" filter="url(#g)" transform="matrix(.1726 0 0 .18103 492.187 19.393)"/></g></svg>