<svg xmlns="http://www.w3.org/2000/svg" width="1330" height="800" viewBox="0 0 351.9 211.67"><defs><filter id="j" width="1.09" height="1.14" x="-.04" y="-.07" color-interpolation-filters="sRGB"><feGaussianBlur stdDeviation="4.83"/></filter></defs><g stroke-width="1.42" transform="matrix(.70974 0 0 .70318 -119.14 39.04)"><rect width="264.58" height="164.04" x="163.33" y="-40.86" fill="#070707" fill-opacity=".94" filter="url(#j)" opacity=".22" rx="2.12" transform="matrix(.81267 0 0 .80237 306.5 137.36)"/><rect width="215.02" height="131.62" x="439.27" y="104.58" fill="#323232" opacity=".76" rx="1.72"/><path fill="#3f3f3f" d="M440.97 104.58h211.58c.95 0 1.72.75 1.72 1.7l.03 3.74H439.2l.05-3.75c0-.94.76-1.7 1.72-1.7z" opacity=".76"/><path fill="none" stroke="#d7d7d7" stroke-linecap="round" stroke-width=".38" d="M649.81 106.23l2.48 2.41m-2.48 0l2.48-2.4m-11.86 2.35h2.48"/><path fill="none" stroke="#d7d7d7" stroke-width=".38" d="M645.92 106.25a.26.26 0 0 0-.26.25v.25h1.15c.15 0 .27.12.27.26v1.12h.26a.26.26 0 0 0 .26-.25v-1.38a.26.26 0 0 0-.26-.26z" opacity=".76"/><path fill="none" stroke="#d7d7d7" stroke-width=".77" d="M545.53 47.21a.53.53 0 0 0-.53.53v2.87c0 .3.24.53.53.53h2.87c.3 0 .53-.24.53-.53v-2.87a.53.53 0 0 0-.53-.53z" opacity=".76" transform="matrix(.49435 0 0 .48064 375.71 84.06)"/><g transform="translate(-16.1)"><rect width="6.35" height="3.4" x="480.64" y="118.16" fill="#c6c6c6" fill-opacity=".99" rx="1.72"/><rect width="18.26" height="3.4" x="492.22" y="118.16" fill="#a600ff" rx="1.72"/><rect width="12.7" height="3.4" x="515.71" y="118.16" fill="#c6c6c6" fill-opacity=".99" rx="1.72"/><g transform="translate(11.58 -1.45)"><rect width="19.05" height="3.4" x="480.64" y="132.66" fill="#c6c6c6" fill-opacity=".99" rx="1.72"/><rect width="19.05" height="3.4" x="502.93" y="132.66" fill="#cf4d4d" fill-opacity=".99" rx="1.72"/><rect width="4.76" height="3.4" x="525.22" y="132.66" fill="#a600ff" rx="1.72"/><rect width="21.17" height="3.4" x="533.22" y="132.66" fill="#6fc336" fill-opacity=".99" rx="1.72"/></g><g transform="translate(44.97 -2.02)"><rect width="14.55" height="3.4" x="480.64" y="146.28" fill="#ce4c4c" rx="1.72"/><rect width="25.14" height="3.4" x="502.07" y="146.28" fill="#59f" fill-opacity=".95" rx="1.72"/><rect width="32.28" height="3.4" x="533.26" y="146.28" fill="#6ec235" rx="1.72"/><rect width="8.47" height="3.4" x="447.26" y="146.28" fill="#a600ff" rx="1.72"/><rect width="15.35" height="3.4" x="460.34" y="146.28" fill="#c6c6c6" fill-opacity=".99" rx="1.72"/></g><g transform="translate(0 -4.5)"><rect width="18.26" height="3.4" x="492.22" y="161.81" fill="#a600ff" rx="1.72"/><rect width="21.17" height="3.4" x="515.95" y="161.81" fill="#f6c601" rx="1.72"/><rect width="14.82" height="3.4" x="542.59" y="161.81" fill="#c27a46" rx="1.72"/><rect width="20.64" height="3.4" x="562.88" y="161.81" fill="#c27a46" rx="1.72"/><rect width="4.76" height="3.4" x="588.99" y="161.81" fill="#c6c6c6" fill-opacity=".99" rx="1.72"/></g><rect width="4.76" height="3.4" x="492.22" y="209.5" fill="#c6c6c6" fill-opacity=".99" rx="1.72"/><rect width="4.76" height="3.4" x="479.85" y="222.55" fill="#c6c6c6" fill-opacity=".99" rx="1.72"/><g transform="translate(31.84 -7.75)"><rect width="11.91" height="3.4" x="460.38" y="178.1" fill="#a600ff" rx="1.72"/><rect width="18.52" height="3.4" x="478.24" y="178.1" fill="#c6c6c6" fill-opacity=".99" rx="1.72"/><rect width="13.23" height="3.4" x="502.71" y="178.1" fill="#a600ff" rx="1.72"/><rect width="19.84" height="3.4" x="521.89" y="178.1" fill="#f6c601" rx="1.72"/><rect width="14.82" height="3.4" x="599.27" y="178.1" fill="#6ec235" rx="1.72"/><rect width="14.55" height="3.4" x="547.68" y="178.1" fill="#ce4c4c" rx="1.72"/><rect width="25.14" height="3.4" x="568.18" y="178.1" fill="#59f" fill-opacity=".95" rx="1.72"/></g><g transform="translate(10.7 -7.4)"><rect width="21.17" height="3.4" x="506" y="190.8" fill="#ce4c4c" rx="1.72"/><rect width="18.52" height="3.4" x="532.6" y="190.8" fill="#c6c6c6" fill-opacity=".99" rx="1.72"/><rect width="19.05" height="3.4" x="481.53" y="190.8" fill="#c6c6c6" fill-opacity=".99" rx="1.72"/></g><g transform="translate(8.82 -6.52)"><rect width="17.73" height="3.4" x="483.4" y="202.97" fill="#f6c601" rx="1.72"/><rect width="25.14" height="3.4" x="505.34" y="202.97" fill="#c6c6c6" fill-opacity=".99" rx="1.72"/></g></g></g></svg>