<svg xmlns="http://www.w3.org/2000/svg" width="1330" height="800" viewBox="0 0 351.9 211.67"><path fill="#cecece" stroke-width="2.88" d="M83.09 84.59c-5.53 0-7.5 3.15-9.03 6.6a4.92 4.92 0 0 0-3.2-1.16 4.94 4.94 0 0 0-4.87 5.78 7.8 7.8 0 0 0 1.22 15.49h24.16a7.8 7.8 0 0 0 1.57-15.43l.02-.68c0-5.44-3.17-10.6-9.87-10.6zm.14 1.4a11.18 11.18 0 0 1 2.25.3.28.28 0 1 1-.12.53c-2.64-.6-4.44-.17-5.8.73a9.51 9.51 0 0 0-2.95 3.66.28.28 0 1 1-.5-.25 10 10 0 0 1 3.15-3.87 6.78 6.78 0 0 1 3.97-1.1zm-12.24 5.46c.18 0 .37 0 .57.02a.28.28 0 0 1-.05.55c-1.43-.13-2.26.33-2.8 1.01a4.75 4.75 0 0 0-.86 2.46.28.28 0 1 1-.55-.05c.09-.88.33-1.93.97-2.74a3.4 3.4 0 0 1 2.72-1.25zm5.11 2.45h6.38v6.55h5.61l-8.8 8.72-8.8-8.72h5.61zm-12.33 4.23a.28.28 0 0 1 .05.54c-.68.12-1.38.82-1.87 1.68-.5.86-.79 1.87-.77 2.45a.28.28 0 0 1-.55.02c-.03-.76.3-1.8.83-2.74.54-.94 1.3-1.78 2.26-1.95a.28.28 0 0 1 .05 0z"/></svg>