<svg xmlns="http://www.w3.org/2000/svg" width="1330" height="800" viewBox="0 0 351.896 211.667"><g stroke-width="5.049"><path fill="#303c42" d="M317.675 60.873h-1.685v-2.226c0-4.295-3.527-7.79-7.862-7.79-4.336 0-7.863 3.495-7.863 7.79v2.226h-1.685a.559.559 0 0 0-.561.556V75.34a2.238 2.238 0 0 0 2.246 2.226h15.725a2.238 2.238 0 0 0 2.247-2.226V61.43a.559.559 0 0 0-.562-.557zm-5.054 0h-8.986v-2.226c0-2.454 2.015-4.451 4.493-4.451 2.477 0 4.493 1.997 4.493 4.451z"/><path fill="#f2f2f2" d="M301.388 58.647c0-3.682 3.023-6.677 6.74-6.677 3.716 0 6.74 2.995 6.74 6.677v2.226h-1.124v-2.226c0-3.068-2.52-5.564-5.616-5.564-3.097 0-5.617 2.496-5.617 5.564v2.226h-1.123z"/><path fill="#59ff00" d="M317.114 75.34a1.12 1.12 0 0 1-1.124 1.113h-15.725c-.62 0-1.123-.5-1.123-1.113V61.986h17.972z"/><path fill="#fff" d="M301.388 75.34V61.986h-2.246V75.34a1.12 1.12 0 0 0 1.123 1.113h1.966c-.465 0-.843-.5-.843-1.113z" opacity=".2"/><path d="M314.867 61.986V75.34c0 .613-.378 1.113-.842 1.113h1.965c.62 0 1.123-.5 1.123-1.113V61.986z" opacity=".1"/><path fill="#303c42" d="M306.8 69.34l-.354 3.156a.554.554 0 0 0 .14.433.564.564 0 0 0 .418.185h2.247c.16 0 .312-.067.418-.185a.554.554 0 0 0 .14-.433l-.354-3.156c.575-.415.92-1.07.92-1.79a2.238 2.238 0 0 0-2.247-2.226 2.238 2.238 0 0 0-2.247 2.226c0 .72.344 1.375.92 1.79z"/><path fill="#5c6671" d="M308.128 66.437c.619 0 1.123.5 1.123 1.113 0 .427-.245.809-.639.998a.556.556 0 0 0-.313.562l.324 2.891h-.991l.325-2.891a.556.556 0 0 0-.314-.562 1.103 1.103 0 0 1-.639-.998 1.12 1.12 0 0 1 1.124-1.113z"/><path d="M307.691 68.593a1.077 1.077 0 0 1-.125-.487 1.12 1.12 0 0 1 1.582-1.01 1.122 1.122 0 0 0-2.144.454c0 .427.245.809.639.998.02.01.03.033.048.045zm.749 1.772l-.13-1.163c-.038-.031-.06-.076-.106-.098a1.147 1.147 0 0 1-.29-.204c.02.07.05.136.043.21l-.325 2.891h.624z" opacity=".1"/><path fill="url(#SVGID_1_)" d="M437.333 192h-32v-42.667C405.333 66.99 338.344 0 256 0S106.667 66.99 106.667 149.333V192h-32A10.66 10.66 0 0 0 64 202.667v266.667C64 492.865 83.135 512 106.667 512h298.667C428.865 512 448 492.865 448 469.333V202.667A10.66 10.66 0 0 0 437.333 192zm-96 0H170.667v-42.667C170.667 102.281 208.948 64 256 64s85.333 38.281 85.333 85.333z" transform="matrix(.05265 0 0 .05217 294.649 50.857)"/></g></svg>