<svg xmlns="http://www.w3.org/2000/svg" width="1330" height="800" viewBox="0 0 351.9 211.7"><g stroke-width=".6" transform="matrix(.47009 0 0 .46622 273.5 90)"><path fill="#fff0f6" d="M-25.5-42.9c-11.9 0-21.8 3-23.6 7.1l-.6 39c14.6 10.3 43 7.6 48.2-1V-35c-.7-4.5-11.2-8-24-8z"/><path fill="none" stroke="#a600ff" stroke-width="1.7" d="M-1.5-34.9c-.7-4.5-11.2-8-24-8s-23.2 3.5-24 8v37c.8 4.5 11.2 8 24 8s23.3-3.5 24-8v-37z"/><path fill="none" stroke="#a600ff" stroke-width="1.7" d="M-25.5-1.9c-13.2 0-24-3.8-24-8.5V2.1c.8 4.5 11.2 8 24 8s23.3-3.5 24-8v-12.5c0 4.7-10.7 8.5-24 8.5z"/><path fill="#424a60" d="M-49.5-10.9zm48 0v.5-.5z"/><path fill="none" stroke="#a600ff" stroke-width="1.7" d="M-25.5-13.9c-13.2 0-24-3.8-24-8.5v12.5c.8 4.5 11.2 8 24 8s23.3-3.5 24-8v-12.5c0 4.7-10.7 8.5-24 8.5z"/><path fill="#556080" d="M-49.5-22.9zm48 0v.5-.5z"/><ellipse cx="-25.5" cy="-34.4" fill="none" rx="24" ry="8.5"/><path fill="none" stroke="#a600ff" stroke-width="1.7" d="M-25.5-25.9c-13.2 0-24-3.8-24-8.5v12.5c.8 4.5 11.2 8 24 8s23.3-3.5 24-8v-12.5c0 4.7-10.7 8.5-24 8.5z"/><path fill="#7383bf" d="M-49.5-34.9zm48 0v.5-.5z"/><path fill="#c45cff" fill-opacity=".1" d="M-25.5-42.9c-11.9 0-21.8 3-23.6 7.1L-6.5 6.8c2.9-1.3 4.7-3 5-4.7v-37c-.7-4.5-11.2-8-24-8z"/></g></svg>