<?xml version="1.0" encoding="UTF-8" standalone="no"?>
<!-- Created with Inkscape (http://www.inkscape.org/) -->

<svg
   xmlns:dc="http://purl.org/dc/elements/1.1/"
   xmlns:cc="http://creativecommons.org/ns#"
   xmlns:rdf="http://www.w3.org/1999/02/22-rdf-syntax-ns#"
   xmlns:svg="http://www.w3.org/2000/svg"
   xmlns="http://www.w3.org/2000/svg"
   xmlns:sodipodi="http://sodipodi.sourceforge.net/DTD/sodipodi-0.dtd"
   xmlns:inkscape="http://www.inkscape.org/namespaces/inkscape"
   sodipodi:docname="slide-reliability-top-left.svg"
   inkscape:version="0.92.2 (5c3e80d, 2017-08-06)"
   id="svg8"
   version="1.1"
   viewBox="0 0 351.89582 211.66667"
   height="800"
   width="1330">
  <sodipodi:namedview
     inkscape:object-nodes="false"
     guidehiopacity="0.49803922"
     guidehicolor="#00e676"
     guideopacity="0.49803922"
     guidecolor="#ff6d00"
     inkscape:guide-bbox="true"
     showguides="true"
     inkscape:showpageshadow="false"
     fit-margin-bottom="0"
     fit-margin-right="0"
     fit-margin-left="0"
     fit-margin-top="0"
     inkscape:window-maximized="1"
     inkscape:window-y="-8"
     inkscape:window-x="-8"
     inkscape:window-height="1017"
     inkscape:window-width="1920"
     inkscape:snap-path-mask="false"
     inkscape:snap-path-clip="false"
     objecttolerance="20"
     units="px"
     showborder="true"
     showgrid="false"
     inkscape:current-layer="layer1"
     inkscape:document-units="px"
     inkscape:cy="160.09751"
     inkscape:cx="246.34345"
     inkscape:zoom="0.35355339"
     inkscape:pageshadow="2"
     inkscape:pageopacity="0"
     borderopacity="1"
     bordercolor="#b4b4b4"
     pagecolor="#ffffff"
     id="base" />
  <defs
     id="defs2">
    <clipPath
       id="b">
      <path
         d="M 0,1000 H 1333.3 V 0 H 0 Z"
         id="path5727"
         inkscape:connector-curvature="0" />
    </clipPath>
    <filter
       id="d"
       width="1.054"
       height="1.027"
       x="-0.027000001"
       y="-0.014"
       style="color-interpolation-filters:sRGB">
      <feGaussianBlur
         stdDeviation="5.819"
         id="feGaussianBlur5730" />
    </filter>
    <filter
       id="c"
       width="1.054"
       height="1.027"
       x="-0.027000001"
       y="-0.014"
       style="color-interpolation-filters:sRGB">
      <feGaussianBlur
         stdDeviation="5.804"
         id="feGaussianBlur5733" />
    </filter>
    <filter
       id="a"
       width="1.1619999"
       height="1.081"
       x="-0.081"
       y="-0.041000001"
       style="color-interpolation-filters:sRGB">
      <feGaussianBlur
         stdDeviation="17.412"
         id="feGaussianBlur5736" />
    </filter>
    <filter
       id="e"
       width="1.3107001"
       height="3.796"
       x="-0.15530001"
       y="-1.398"
       style="color-interpolation-filters:sRGB">
      <feGaussianBlur
         stdDeviation="33.5779"
         id="feGaussianBlur5739" />
    </filter>
  </defs>
  <metadata
     id="metadata5">
    <rdf:RDF>
      <cc:Work
         rdf:about="">
        <dc:format>image/svg+xml</dc:format>
        <dc:type
           rdf:resource="http://purl.org/dc/dcmitype/StillImage" />
        <dc:title></dc:title>
      </cc:Work>
    </rdf:RDF>
  </metadata>
  <g
     transform="translate(-163.23636,-33.221958)"
     id="layer1"
     inkscape:groupmode="layer"
     inkscape:label="Layer 1">
    <text
       xml:space="preserve"
       style="font-style:normal;font-variant:normal;font-weight:bold;font-stretch:normal;font-size:30.47999954px;line-height:1.25;font-family:'SF Burlington Script';-inkscape-font-specification:'SF Burlington Script Bold';letter-spacing:0px;word-spacing:0px;fill:#000000;fill-opacity:1;stroke:none;stroke-width:0.26458332"
       x="494.16785"
       y="139.48601"
       id="text13517"><tspan
         sodipodi:role="line"
         id="tspan13515"
         x="494.16785"
         y="166.85478"
         style="stroke-width:0.26458332" /></text>
    <text
       xml:space="preserve"
       style="font-style:normal;font-variant:normal;font-weight:bold;font-stretch:normal;font-size:25.39999962px;line-height:1.25;font-family:Roboto;-inkscape-font-specification:'Roboto Bold';letter-spacing:0px;word-spacing:0px;fill:#000000;fill-opacity:1;stroke:none;stroke-width:0.26458332"
       x="624.46863"
       y="235.13847"
       id="text13574"><tspan
         sodipodi:role="line"
         id="tspan13572"
         x="624.46863"
         y="257.36346"
         style="stroke-width:0.26458332" /></text>
    <text
       xml:space="preserve"
       style="font-style:normal;font-variant:normal;font-weight:bold;font-stretch:normal;font-size:5.92666626px;line-height:1.25;font-family:Roboto;-inkscape-font-specification:'Roboto Bold';letter-spacing:0px;word-spacing:0px;fill:#000000;fill-opacity:1;stroke:none;stroke-width:0.26458332"
       x="320.06525"
       y="100.12349"
       id="text4979"><tspan
         sodipodi:role="line"
         id="tspan4977"
         x="320.06525"
         y="105.30933"
         style="stroke-width:0.26458332" /></text>
    <text
       xml:space="preserve"
       style="font-style:normal;font-variant:normal;font-weight:bold;font-stretch:normal;font-size:5.92666626px;line-height:1.25;font-family:Roboto;-inkscape-font-specification:'Roboto Bold';letter-spacing:0px;word-spacing:0px;fill:#000000;fill-opacity:1;stroke:none;stroke-width:0.26458332"
       x="249.25262"
       y="83.515175"
       id="text5023"><tspan
         sodipodi:role="line"
         id="tspan5021"
         x="249.25262"
         y="88.701004"
         style="stroke-width:0.26458332" /></text>
    <g
       id="g6575"
       transform="matrix(1.4083855,0,0,1.3953735,173.85287,100.42264)"
       style="stroke-width:0.18873677">
      <path
         id="path6561"
         d="M 0,0 H 24 V 24 H 0 Z"
         inkscape:connector-curvature="0"
         style="fill:none;stroke-width:0.18873677" />
      <path
         id="path6563"
         d="M 23.64,7 C 23.19,6.66 18.71,3 12,3 10.5,3 9.11,3.19 7.85,3.48 L 18.18,13.8 Z M 17.04,15.22 3.27,1.44 2,2.72 4.05,4.78 C 1.91,5.76 0.59,6.82 0.36,7 l 11.63,14.49 0.01,0.01 0.01,-0.01 3.9,-4.86 3.32,3.32 1.27,-1.27 z"
         inkscape:connector-curvature="0"
         style="fill:#a600ff;fill-opacity:1;stroke-width:0.18873677" />
    </g>
    <g
       id="g6952"
       transform="matrix(0.15649176,0,0,0.15504594,327.42324,1.790443)"
       style="stroke-width:6.41983843">
      <path
         sodipodi:nodetypes="ccccccccssscccccscccccscccccscscccscccsc"
         style="fill:#a600ff;fill-opacity:1;stroke-width:6.419837"
         d="m -823.85748,477.05433 c -0.4026,-0.35774 -26.1967,-44.43374 -27.5622,-47.09722 -0.322,-0.62801 -0.6268,0.33811 17.1766,-54.43663 2.8852,-8.87677 6.2224,-19.17567 7.416,-22.88646 2.1464,-6.67316 2.4906,-7.53079 2.9169,-7.26736 0.1202,0.0743 6.6705,12.96154 14.556,28.63824 7.8856,15.67669 14.578,28.90304 14.8721,29.39189 0.3897,0.64786 0.5883,0.79131 0.7326,0.52917 0.1089,-0.19781 1.8862,-5.53886 3.9497,-11.86902 2.0635,-6.33016 5.46,-16.74812 7.5479,-23.15104 2.0879,-6.40292 8.1605,-25.0362 13.4947,-41.40729 5.3342,-16.3711 11.4851,-35.24183 13.6688,-41.93497 2.1836,-6.69313 4.1088,-12.25748 4.2781,-12.36521 0.1694,-0.10774 9.5423,-0.19771 20.8287,-0.19994 16.0277,-0.003 20.61,0.0684 20.9284,0.32668 0.2242,0.1819 1.0687,2.53339 1.8766,5.22552 0.808,2.69214 4.6863,15.49136 8.6186,28.44271 15.2879,50.35178 24.284,79.99025 26.7676,88.18768 1.4243,4.70145 2.6623,8.62059 2.7509,8.7092 0.089,0.0886 0.2266,0.0956 0.3067,0.0155 0.1173,-0.11731 23.4318,-54.65309 51.3481,-120.10998 2.4003,-5.62817 4.519,-10.36147 4.7081,-10.51845 0.2423,-0.20104 8.313,-0.2655 27.2992,-0.21802 24.1448,0.0604 26.9635,0.11032 27.0346,0.47904 0.074,0.38633 -4.5508,11.96105 -28.381,71.02586 -14.4726,35.87123 -27.5989,68.43519 -41.0609,101.86459 -6.6219,16.44385 -12.2099,30.1658 -12.4177,30.49322 l -0.3778,0.59531 h -26.6844 c -22.8629,0 -26.7296,-0.0544 -26.9997,-0.37978 -0.1733,-0.20886 -3.8261,-11.6091 -8.1173,-25.33384 -4.2912,-13.72475 -12.4445,-39.77736 -18.1185,-57.89471 -5.6739,-18.11734 -10.3818,-33.16097 -10.4621,-33.43027 -0.08,-0.26932 -0.2413,-0.38838 -0.358,-0.26459 -0.1166,0.12379 -3.7466,11.00023 -8.0666,24.16986 -4.32,13.16964 -10.8101,32.93401 -14.4225,43.92084 -3.6123,10.98682 -8.6729,26.40541 -11.2456,34.26354 -2.6248,8.01743 -4.8634,14.43265 -5.1011,14.61822 -0.3324,0.25953 -6.1015,0.33073 -26.802,0.33073 -24.7475,0 -26.4107,-0.0286 -26.8995,-0.46302 z"
         id="path6942"
         inkscape:connector-curvature="0" />
      <path
         sodipodi:nodetypes="cccscsscsccscscscccsccccsccsccccscscccssssccssscc"
         inkscape:connector-curvature="0"
         id="path6940"
         d="m -990.81665,476.92204 c -0.069,-0.1819 -0.0951,-46.05072 -0.0578,-101.93072 l 0.0677,-101.6 h 46.16979 c 42.92422,0 46.44879,0.0337 50.13855,0.4791 20.21009,2.43976 34.60134,9.77576 45.17461,23.02793 2.57155,3.22309 3.64101,4.85766 3.64101,5.56494 0,0.49668 -1.98724,6.69979 -13.23328,41.30719 -2.60086,8.00365 -8.00986,24.66038 -12.02,37.01497 -4.01013,12.35458 -7.41209,22.60861 -7.5599,22.78671 -0.54373,0.65516 -6.3645,1.94044 -12.82744,2.83243 -3.65338,0.50423 -5.70329,0.56039 -25.79688,0.70682 l -21.82812,0.15907 -0.13474,34.925 c -0.0741,19.20875 -0.1634,34.95476 -0.19843,34.99114 -0.035,0.0364 -11.61651,0.0661 -25.7366,0.0661 -20.29497,0 -25.69918,-0.0693 -25.79842,-0.33073 z m 76.34214,-109.47287 c 10.10591,-0.74925 16.91499,-3.43756 20.93419,-8.26509 2.64515,-3.17714 4.41869,-6.95916 5.429,-11.57714 0.39765,-1.81757 0.48808,-3.31474 0.47148,-7.80521 -0.019,-5.14468 -0.0727,-5.75083 -0.72435,-8.18319 -1.36284,-5.08677 -4.40653,-10.05697 -7.78821,-12.71782 -3.84103,-3.02227 -9.19881,-4.917 -16.07315,-5.68412 -1.30968,-0.14615 -7.88789,-0.26671 -14.61823,-0.26791 l -12.23698,-0.002 v 27.20799 c 0,14.96439 0.0794,27.28736 0.17639,27.38437 0.2783,0.2783 20.4661,0.20416 24.42986,-0.0897 z m 408.60714,109.39315 c -0.0866,-0.22574 -3.03702,-8.41129 -6.55646,-18.1901 l -6.39897,-17.77965 -36.35158,-0.0671 c -19.99337,-0.0369 -36.4504,-0.16592 -36.57119,-0.2867 -0.26543,-0.26543 14.96566,-38.92532 15.45889,-39.23813 0.19061,-0.12088 10.31804,-0.2216 22.50541,-0.22383 20.16228,-0.004 22.15885,-0.0423 22.15885,-0.42867 0,-0.23354 -4.70297,-13.59138 -10.45104,-29.68407 -5.74807,-16.0927 -10.45104,-29.51045 -10.45104,-29.81722 0,-0.30677 1.83208,-5.19526 4.0713,-10.86332 17.68094,-44.75505 22.19743,-56.10988 22.40333,-56.32376 0.14169,-0.14717 0.38711,0.1174 0.61357,0.66146 0.32425,0.77892 11.89842,31.49528 67.13517,178.16797 4.93027,13.09159 8.96413,23.95603 8.96413,24.14323 0,0.27524 -5.38951,0.34033 -28.18643,0.34033 -25.22487,0 -28.20297,-0.0431 -28.34394,-0.41045 z"
         style="opacity:0.88999999;fill:#000000;stroke-width:6.419837" />
    </g>
    <g
       style="stroke-width:1.71531618"
       id="g8039"
       transform="matrix(0.15424755,0,0,0.15424755,534.40861,-149.88014)">
      <g
         style="stroke-width:1.71531618"
         id="g8037" />
    </g>
    <g
       style="stroke-width:1.71531618"
       id="g8047"
       transform="matrix(0.15424755,0,0,0.15424755,534.40861,-149.88014)" />
    <g
       style="stroke-width:1.71531618"
       id="g8049"
       transform="matrix(0.15424755,0,0,0.15424755,534.40861,-149.88014)" />
    <g
       style="stroke-width:1.71531618"
       id="g8051"
       transform="matrix(0.15424755,0,0,0.15424755,534.40861,-149.88014)" />
    <g
       style="stroke-width:1.71531618"
       id="g8053"
       transform="matrix(0.15424755,0,0,0.15424755,534.40861,-149.88014)" />
    <g
       style="stroke-width:1.71531618"
       id="g8055"
       transform="matrix(0.15424755,0,0,0.15424755,534.40861,-149.88014)" />
    <g
       style="stroke-width:1.71531618"
       id="g8057"
       transform="matrix(0.15424755,0,0,0.15424755,534.40861,-149.88014)" />
    <g
       style="stroke-width:1.71531618"
       id="g8059"
       transform="matrix(0.15424755,0,0,0.15424755,534.40861,-149.88014)" />
    <g
       style="stroke-width:1.71531618"
       id="g8061"
       transform="matrix(0.15424755,0,0,0.15424755,534.40861,-149.88014)" />
    <g
       style="stroke-width:1.71531618"
       id="g8063"
       transform="matrix(0.15424755,0,0,0.15424755,534.40861,-149.88014)" />
    <g
       style="stroke-width:1.71531618"
       id="g8065"
       transform="matrix(0.15424755,0,0,0.15424755,534.40861,-149.88014)" />
    <g
       style="stroke-width:1.71531618"
       id="g8067"
       transform="matrix(0.15424755,0,0,0.15424755,534.40861,-149.88014)" />
    <g
       style="stroke-width:1.71531618"
       id="g8069"
       transform="matrix(0.15424755,0,0,0.15424755,534.40861,-149.88014)" />
    <g
       style="stroke-width:1.71531618"
       id="g8071"
       transform="matrix(0.15424755,0,0,0.15424755,534.40861,-149.88014)" />
    <g
       style="stroke-width:1.71531618"
       id="g8073"
       transform="matrix(0.15424755,0,0,0.15424755,534.40861,-149.88014)" />
    <g
       style="stroke-width:1.71531618"
       id="g8075"
       transform="matrix(0.15424755,0,0,0.15424755,534.40861,-149.88014)" />
    <g
       id="g8863"
       transform="matrix(0.09246278,0,0,0.09160851,222.64288,111.46264)"
       style="fill:#cecece;fill-opacity:1;stroke-width:2.87482309">
      <g
         id="g8807"
         style="fill:#cecece;fill-opacity:1;stroke-width:2.87482309">
        <path
           style="fill:#cecece;fill-opacity:1;stroke-width:2.87482309"
           d="m -258.32031,177.99414 c -59.744,0 -81.04035,34.41977 -97.65235,72.13477 -9.318,-7.99 -21.39617,-12.79297 -34.57617,-12.79297 -29.554,0 -53.50586,24.12944 -53.50586,53.89844 0,3.15397 0.28197,6.21731 0.79297,9.19531 -40.33,6.432 -71.15625,41.58458 -71.15625,84.01758 0,46.983 37.79788,85.07031 84.42188,85.07031 h 261.25781 c 46.625,0 84.437499,-38.08731 84.437499,-85.07031 0,-41.136 -28.982139,-75.44847 -67.494139,-83.35547 0.167,-2.436 0.27148,-4.89782 0.27148,-7.38282 0,-59.412 -34.34087,-115.71484 -106.79687,-115.71484 z m 1.52929,15.34961 c 1.17898,0.0195 2.37435,0.0625 3.58594,0.12695 6.4618,0.34365 13.39259,1.33757 20.82422,3.07032 a 3.0019183,3.0019183 0 1 1 -1.36719,5.8457 c -28.50498,-6.64617 -48.0386,-1.95066 -62.63476,7.87695 -14.59615,9.8276 -24.30644,25.08932 -31.99219,39.98047 a 3.0002999,3.0002999 0 1 1 -5.33008,-2.75391 c 7.85992,-15.2286 18.02106,-31.46225 33.9707,-42.20117 11.21461,-7.55081 25.2587,-12.23848 42.94336,-11.94531 z m -132.35156,59.55859 c 1.95997,-0.039 4.00305,0.0297 6.13281,0.21485 a 3.0011274,3.0011274 0 0 1 -0.52343,5.97851 c -15.48862,-1.34684 -24.45146,3.63815 -30.30274,11.10352 -5.85124,7.46537 -8.37326,17.8024 -9.22656,26.84766 a 3.0002999,3.0002999 0 1 1 -5.97266,-0.56055 c 0.91442,-9.69308 3.50955,-21.09985 10.47461,-29.98633 6.09447,-7.77567 15.69819,-13.32439 29.41797,-13.59766 z m 55.27344,26.78711 h 69.01953 v 71.40821 h 60.68945 l -95.19922,95.21289 -95.19921,-95.21289 h 60.68945 z m -133.4043,46.09375 a 3.0002999,3.0002999 0 0 1 0.56836,5.95899 c -7.36044,1.3406 -14.88816,8.9301 -20.24023,18.31445 -5.35204,9.38436 -8.46581,20.44755 -8.23828,26.75781 a 3.0029021,3.0029021 0 0 1 -6.00196,0.21485 c -0.30058,-8.33493 3.20321,-19.72931 9.02735,-29.94141 5.8241,-10.2121 14.02964,-19.35988 24.375,-21.24414 a 3.0002999,3.0002999 0 0 1 0.50976,-0.0605 z"
           transform="translate(514.41681,-108.69814)"
           id="MobileMe"
           inkscape:connector-curvature="0" />
      </g>
      <g
         id="g8809"
         style="fill:#cecece;fill-opacity:1;stroke-width:2.87482309" />
      <g
         id="g8811"
         style="fill:#cecece;fill-opacity:1;stroke-width:2.87482309" />
      <g
         id="g8813"
         style="fill:#cecece;fill-opacity:1;stroke-width:2.87482309" />
      <g
         id="g8815"
         style="fill:#cecece;fill-opacity:1;stroke-width:2.87482309" />
      <g
         id="g8817"
         style="fill:#cecece;fill-opacity:1;stroke-width:2.87482309" />
      <g
         id="g8819"
         style="fill:#cecece;fill-opacity:1;stroke-width:2.87482309" />
      <g
         id="g8821"
         style="fill:#cecece;fill-opacity:1;stroke-width:2.87482309" />
      <g
         id="g8823"
         style="fill:#cecece;fill-opacity:1;stroke-width:2.87482309" />
      <g
         id="g8825"
         style="fill:#cecece;fill-opacity:1;stroke-width:2.87482309" />
      <g
         id="g8827"
         style="fill:#cecece;fill-opacity:1;stroke-width:2.87482309" />
      <g
         id="g8829"
         style="fill:#cecece;fill-opacity:1;stroke-width:2.87482309" />
      <g
         id="g8831"
         style="fill:#cecece;fill-opacity:1;stroke-width:2.87482309" />
      <g
         id="g8833"
         style="fill:#cecece;fill-opacity:1;stroke-width:2.87482309" />
      <g
         id="g8835"
         style="fill:#cecece;fill-opacity:1;stroke-width:2.87482309" />
      <g
         id="g8837"
         style="fill:#cecece;fill-opacity:1;stroke-width:2.87482309" />
    </g>
  </g>
</svg>
