<svg xmlns="http://www.w3.org/2000/svg" width="1330" height="800" viewBox="0 0 351.9 211.67"><g stroke-width="2.03"><path fill="#ebd4f4" d="M316.1 135.14a29.8 29.8 0 0 1-16.02-4.66 29.97 29.98 0 0 1-10.66-11.74 29.93 29.93 0 0 1 4.29-6.3 29.94 29.95 0 0 0-6.89 8.9 29.97 29.98 0 0 0 10.66 11.75 29.96 29.96 0 0 0 25.33 3.17v-.3a12.23 12.23 0 0 1 .18-1.62 29.94 29.94 0 0 1-6.89.8z"/><path fill="#e0f4d4" d="M329.6 144a12.24 12.24 0 0 1 8.75-17.99 12.23 12.23 0 1 0 0 24.15 12.25 12.25 0 0 1-8.76-6.16z"/><path fill="#a600ff" d="M313.5 139.3a31.4 31.4 0 0 0 10.2-1.7.78.78 0 1 0-.5-1.47 29.9 29.9 0 0 1-36.38-14.79 29.9 29.9 0 0 1 53.36 0 29.95 29.95 0 0 1-1.9 3.22.78.78 0 0 0 1.3.88 31.52 31.52 0 0 0 2.17-3.75.78.78 0 0 0 0-.7 31.46 31.46 0 0 0-56.5 0 .78.78 0 0 0 0 .7 31.53 31.54 0 0 0 11.4 12.71 31.35 31.35 0 0 0 16.85 4.9z"/><path fill="#a600ff" d="M308.14 115.66a7.67 7.67 0 1 0 12.93 3.87.78.78 0 0 0-1.3-.4 2.66 2.66 0 0 1-3.7-3.83l.17-.15a.78.78 0 0 0-.26-1.34 7.63 7.63 0 0 0-7.84 1.85zm6.82 4.52a4.2 4.2 0 0 0 4.71.87 6.12 6.12 0 1 1-5.35-6.03 4.23 4.23 0 0 0 .64 5.16z"/><path fill="#a600ff" d="M301.7 121.34a11.97 11.97 0 1 0 11.97-11.97 11.99 11.99 0 0 0-11.97 11.97zm22.38 0a10.41 10.41 0 1 1-10.4-10.41 10.42 10.42 0 0 1 10.4 10.41z"/><path fill="#59ff00" d="M336.4 124.3a13.8 13.8 0 1 0 13.8 13.79 13.8 13.81 0 0 0-13.8-13.8zm0 26.02a12.23 12.23 0 1 1 12.23-12.23 12.25 12.25 0 0 1-12.23 12.23z"/><path fill="#59ff00" d="M341.06 134.26l-6.15 6-3.17-3.09a.78.78 0 1 0-1.09 1.12l3.72 3.63a.78.78 0 0 0 1.09 0l6.7-6.54a.78.78 0 1 0-1.1-1.12z"/></g></svg>