<svg xmlns="http://www.w3.org/2000/svg" width="1330" height="800" viewBox="0 0 351.9 211.67"><g stroke-width="1.41"><path fill="#29ccb1" d="M280.64 19.54h-2.7c-.7 0-1.26-.56-1.26-1.25 0-.7.57-1.25 1.27-1.25h2.7c.7 0 1.26.56 1.26 1.25s-.57 1.25-1.27 1.25z"/><g stroke-width="3.2" color="#000" font-family="sans-serif" font-weight="400" white-space="normal"><path fill="#fff" d="M268.56 13.84a3.4 3.4 0 0 0-3.38 3.07c-.25 2.94-1.77 5.14-3.8 6.91a29.18 29.18 0 0 1-6.55 4.05l-.4.2-.44 20.51.46.2c4.56 1.97 8.57 2.23 13.02 2.23l2.33-.02 2.74-.02h3.94a4.66 4.66 0 0 0 4.65-4.62c-.82-2.37 1.3-3.09 1.33-5.28 0-.61-.12-1.2-.34-1.74a4.6 4.6 0 0 0 .84-6.15c.55-.76.88-1.68.88-2.67 0-2.55-2.1-4.63-4.66-4.63h-5.86a12.94 12.94 0 0 0 1.22-5.65v-.42a6.02 6.02 0 0 0-5.92-5.98h-.06z" overflow="visible" style="line-height:normal;font-variant-ligatures:normal;font-variant-position:normal;font-variant-caps:normal;font-variant-numeric:normal;font-variant-alternates:normal;font-feature-settings:normal;text-indent:0;text-align:start;text-decoration-line:none;text-decoration-style:solid;text-decoration-color:#000;text-transform:none;text-orientation:mixed;shape-padding:0;isolation:auto;mix-blend-mode:normal"/><path fill="#ebd4f4" d="M268.56 15.33c-.95 0-1.8.78-1.88 1.7l-.05.44a4.47 4.47 0 0 1 3.68 4.4v.42c0 2.46-.53 4.14-1.58 6.04l-.62 1.1h8.35a3.14 3.14 0 0 1 2.29 5.29l-.49.5.48.52a3.1 3.1 0 0 1-.69 4.78l-.63.38.38.64a3.12 3.12 0 0 1-1.07 4.26l-.64.38c.45.69.81 1.52.82 2.23 0 .34-.07.7-.18 1.06a3.13 3.13 0 0 0 2.46-4.71l-.38-.63.63-.39a3.12 3.12 0 0 0 1.08-4.26l-.38-.64.63-.38a3.12 3.12 0 0 0 .69-4.78l-.48-.52.49-.5a3.13 3.13 0 0 0-2.28-5.28h-8.36l.62-1.11a11.39 11.39 0 0 0 1.58-6.04v-.42a4.48 4.48 0 0 0-4.44-4.48h-.03z" overflow="visible" style="line-height:normal;font-variant-ligatures:normal;font-variant-position:normal;font-variant-caps:normal;font-variant-numeric:normal;font-variant-alternates:normal;font-feature-settings:normal;text-indent:0;text-align:start;text-decoration-line:none;text-decoration-style:solid;text-decoration-color:#000;text-transform:none;text-orientation:mixed;shape-padding:0;isolation:auto;mix-blend-mode:normal"/><path fill="#a600ff" d="M268.56 13.84a3.4 3.4 0 0 0-3.38 3.07c-.25 2.94-1.77 5.14-3.8 6.91a29.18 29.18 0 0 1-6.55 4.05l-.4.2-.44 20.51.46.2c4.56 1.97 8.57 2.23 13.02 2.23l2.33-.02 2.74-.02h3.94a4.66 4.66 0 0 0 4.3-6.36 4.6 4.6 0 0 0 1.34-5.28 4.6 4.6 0 0 0 .84-6.15c.55-.76.88-1.68.88-2.67 0-2.55-2.1-4.63-4.66-4.63h-5.86a12.94 12.94 0 0 0 1.22-5.65v-.42a6.02 6.02 0 0 0-5.92-5.98h-.06zm0 1.5h.03a4.48 4.48 0 0 1 4.44 4.47v.42c0 2.46-.53 4.14-1.58 6.04l-.62 1.1h8.35a3.13 3.13 0 0 1 2.29 5.29l-.49.5.48.52a3.1 3.1 0 0 1-.69 4.78l-.63.38.38.64a3.12 3.12 0 0 1-1.07 4.26l-.64.38.38.64a3.13 3.13 0 0 1-2.71 4.72h-3.94l-2.75.01-2.32.02c-4.24 0-7.84-.24-11.95-1.92l.39-18.58c2-.98 4.4-2.25 6.47-4.06 2.21-1.94 4.01-4.52 4.3-7.91.07-.93.93-1.7 1.88-1.7z" overflow="visible" style="line-height:normal;font-variant-ligatures:normal;font-variant-position:normal;font-variant-caps:normal;font-variant-numeric:normal;font-variant-alternates:normal;font-feature-settings:normal;text-indent:0;text-align:start;text-decoration-line:none;text-decoration-style:solid;text-decoration-color:#000;text-transform:none;text-orientation:mixed;shape-padding:0;isolation:auto;mix-blend-mode:normal"/></g><path fill="#29ccb1" d="M261.77 19.54h-2.7a1.25 1.25 0 1 1 0-2.5h2.7a1.25 1.25 0 1 1 0 2.5zm4.04-6.94c-.43 0-.86-.22-1.1-.63l-1.34-2.3c-.35-.6-.14-1.37.46-1.72.6-.35 1.38-.14 1.73.46l1.35 2.31a1.25 1.25 0 0 1-1.1 1.88zm8.09 0c-.21 0-.43-.05-.63-.17a1.25 1.25 0 0 1-.46-1.7l1.35-2.32a1.26 1.26 0 1 1 2.19 1.25L275 11.97c-.24.4-.66.63-1.1.63z"/><path fill="#73c3ff" d="M249.55 43.83v6.6h-2.53v-6.6c0-.69.57-1.25 1.27-1.25.7 0 1.26.56 1.26 1.25z"/><path fill="#59ff00" d="M280.64 19.54h-2.7c-.7 0-1.26-.56-1.26-1.25 0-.7.57-1.25 1.27-1.25h2.7c.7 0 1.26.56 1.26 1.25s-.57 1.25-1.27 1.25zm-18.87 0h-2.7a1.25 1.25 0 1 1 0-2.5h2.7a1.25 1.25 0 1 1 0 2.5zm4.04-6.94c-.43 0-.86-.22-1.1-.63l-1.34-2.3c-.35-.6-.14-1.37.46-1.72.6-.35 1.38-.14 1.73.46l1.35 2.31a1.25 1.25 0 0 1-1.1 1.88zm8.09 0c-.21 0-.43-.05-.63-.17a1.25 1.25 0 0 1-.46-1.7l1.35-2.32a1.26 1.26 0 1 1 2.19 1.25L275 11.97c-.24.4-.66.63-1.1.63z"/><path fill="#73c3ff" d="M249.55 43.83v6.6h-2.53v-6.6c0-.69.57-1.25 1.27-1.25.7 0 1.26.56 1.26 1.25z"/><path fill="#a600ff" d="M253.68 26.54h-10.79c-.7 0-1.26.56-1.26 1.25v21.37c0 .7.57 1.25 1.26 1.27h8.1a4.01 4.01 0 0 0 3.95-3.94v-18.7c0-.7-.56-1.25-1.26-1.25z"/><path fill="#dea0ff" d="M249.55 43.75v6.68h-2.53v-6.68c0-.69.57-1.25 1.27-1.25.7 0 1.26.56 1.26 1.25z"/></g></svg>