<svg xmlns="http://www.w3.org/2000/svg" width="1330" height="800" viewBox="0 0 351.9 211.67"><text style="line-height:1.25;-inkscape-font-specification:'SF Burlington Script Bold'" x="494.17" y="139.49" stroke-width=".26" font-family="SF Burlington Script" font-size="30.48" font-weight="700" letter-spacing="0" transform="translate(-163.24 -33.22)" word-spacing="0"/><text style="line-height:1.25;-inkscape-font-specification:'Roboto Bold'" x="624.47" y="235.14" stroke-width=".26" font-family="Roboto" font-size="25.4" font-weight="700" letter-spacing="0" transform="translate(-163.24 -33.22)" word-spacing="0"/><g stroke-width=".15"><path fill="#a600ff" d="M31.8 96.02a.9.9 0 0 1-.84-1.2l9.33-25.64L29 65.96a.9.9 0 0 1-.44-1.43l22.87-27.17a.9.9 0 0 1 1.54.82l-6.6 22.88 11.34 3.23a.89.89 0 0 1 .44 1.44L32.48 95.7a.9.9 0 0 1-.68.3zm-.97-31.4l10.87 3.1a.89.89 0 0 1 .6 1.16l-7.98 21.93L55.9 65.62l-10.86-3.1a.9.9 0 0 1-.62-1.1l5.68-19.7z"/></g></svg>