<svg xmlns="http://www.w3.org/2000/svg" width="1330" height="800" viewBox="0 0 351.896 211.667"><defs><filter id="h" width="1.059" height="1.093" x="-.029" y="-.046" color-interpolation-filters="sRGB"><feGaussianBlur stdDeviation="1.149"/></filter><filter id="g" width="1.163" height="1.257" x="-.081" y="-.129" color-interpolation-filters="sRGB"><feGaussianBlur stdDeviation="3.179"/></filter></defs><g stroke-width="1.27"><text x="513.018" y="14.216" style="line-height:1.25;-inkscape-font-specification:'Roboto Bold'" fill="#a600ff" stroke-width=".336" font-family="Roboto,sans-serif" font-size="25.4" font-weight="700" letter-spacing="0" transform="matrix(.78735 0 0 .7874 -162.298 13.478)" word-spacing="0"><tspan style="-inkscape-font-specification:Roboto" x="513.018" y="14.216" font-weight="400">A11Y</tspan></text><path d="M219.146 33.405l-3.584 6.208-3.584 6.207h-5.4a2.614 2.614 0 0 0-2.62 2.62v41.694a2.613 2.613 0 0 0 2.62 2.62h88.627a2.613 2.613 0 0 0 2.619-2.62V48.44a2.614 2.614 0 0 0-2.62-2.62h-68.89l-3.584-6.207z" filter="url(#h)" opacity=".12" paint-order="fill markers stroke" transform="matrix(.78735 0 0 .7874 78.232 3.856)"/><path d="M219.146 33.405l-3.584 6.208-3.584 6.207h-5.4a2.614 2.614 0 0 0-2.62 2.62v41.694a2.613 2.613 0 0 0 2.62 2.62h88.627a2.613 2.613 0 0 0 2.619-2.62V48.44a2.614 2.614 0 0 0-2.62-2.62h-68.89l-3.584-6.207z" filter="url(#g)" opacity=".471" paint-order="fill markers stroke" transform="matrix(.78735 0 0 .7874 78.232 3.856)"/><path fill="#1f1f1f" d="M250.777 30.16l-2.821 4.888-2.822 4.887h-4.253c-1.142 0-2.062.92-2.062 2.063v32.83c0 1.143.92 2.062 2.062 2.062h69.781c1.143 0 2.063-.92 2.063-2.062v-32.83c0-1.143-.92-2.063-2.063-2.063h-54.24l-2.823-4.887z" opacity=".89" paint-order="fill markers stroke"/><path fill="none" stroke="#e6e6e6" stroke-width=".336" d="M208.823 58.724h84.136" transform="matrix(.78735 0 0 .7874 78.232 3.856)"/><text style="line-height:1.25;-inkscape-font-specification:'Roboto Bold'" x="208.522" y="54.646" stroke-width=".336" font-family="Roboto,sans-serif" font-size="5.927" font-weight="700" letter-spacing="0" transform="matrix(.78735 0 0 .7874 78.232 3.856)" word-spacing="0"><tspan x="208.522" y="54.646"> <tspan fill="#549bbc">h2</tspan> <tspan fill="#e0e0e0">#</tspan> <tspan fill="#89a4c0">a11y</tspan> </tspan></text><text style="line-height:1.25;-inkscape-font-specification:'Roboto Bold'" x="208.575" y="67.678" stroke-width=".336" font-family="Roboto,sans-serif" font-size="5.927" font-weight="700" letter-spacing="0" transform="matrix(.78735 0 0 .7874 78.232 3.856)" word-spacing="0"><tspan x="208.575" y="67.678" style="-inkscape-font-specification:Roboto" fill="#e6e6e6" font-size="5.503" font-weight="400">Color</tspan></text><text style="line-height:1.25;-inkscape-font-specification:'Roboto Bold'" x="208.447" y="76.326" stroke-width=".336" font-family="Roboto,sans-serif" font-size="5.927" font-weight="700" letter-spacing="0" transform="matrix(.78735 0 0 .7874 78.232 3.856)" word-spacing="0"><tspan x="208.447" y="76.326" style="-inkscape-font-specification:Roboto" fill="#e6e6e6" font-size="5.503" font-weight="400">Font</tspan></text><text style="line-height:1.25;-inkscape-font-specification:'Roboto Bold'" x="208.575" y="85.032" stroke-width=".336" font-family="Roboto,sans-serif" font-size="5.927" font-weight="700" letter-spacing="0" transform="matrix(.78735 0 0 .7874 78.232 3.856)" word-spacing="0"><tspan x="208.575" y="85.032" style="-inkscape-font-specification:Roboto" fill="#e6e6e6" font-size="5.503" font-weight="400">Contrast</tspan></text><text x="292.312" y="51.704" style="line-height:1.25;-inkscape-font-specification:'Roboto Bold'" stroke-width=".336" font-family="Roboto,sans-serif" font-size="5.927" font-weight="700" letter-spacing="0" transform="matrix(.78735 0 0 .7874 73.76 6.675)" word-spacing="0"><tspan style="-inkscape-font-specification:Roboto" x="292.312" y="51.704" fill="#e6e6e6" font-weight="400">30</tspan></text><text x="276.186" y="51.462" style="line-height:1.25;-inkscape-font-specification:'Roboto Bold'" stroke-width=".336" font-family="Roboto,sans-serif" font-size="5.927" font-weight="700" letter-spacing="0" transform="matrix(.78735 0 0 .7874 73.76 6.675)" word-spacing="0"><tspan style="-inkscape-font-specification:Roboto" x="276.186" y="51.462" fill="#e6e6e6" font-weight="400">122</tspan></text><path d="M300.202 44.212l-.147.148 1.272 1.272-1.272 1.272.147.147 1.272-1.272 1.272 1.272.148-.147-1.272-1.272 1.272-1.272-.148-.148-1.272 1.272z" style="line-height:normal;font-variant-ligatures:normal;font-variant-position:normal;font-variant-caps:normal;font-variant-numeric:normal;font-variant-alternates:normal;font-feature-settings:normal;text-indent:0;text-align:start;text-decoration-line:none;text-decoration-style:solid;text-decoration-color:#000;text-transform:none;text-orientation:mixed;shape-padding:0;isolation:auto;mix-blend-mode:normal" fill="#e6e6e6" color="#000" enable-background="accumulate" font-family="sans-serif" font-weight="400" overflow="visible" white-space="normal"/><rect width="4.118" height="4.118" x="266.871" y="63.582" fill="#a600ff" paint-order="fill markers stroke" ry="0" transform="matrix(.78735 0 0 .7874 77.304 3.856)"/><text x="271.955" y="67.706" style="line-height:1.25;-inkscape-font-specification:'Roboto Bold'" stroke-width=".336" font-family="Roboto,sans-serif" font-size="5.927" font-weight="700" letter-spacing="0" transform="matrix(.78735 0 0 .7874 77.304 3.856)" word-spacing="0"><tspan style="-inkscape-font-specification:Roboto" x="271.955" y="67.706" fill="#e6e6e6" font-size="5.503" font-weight="400">#A600FF</tspan></text><text style="line-height:1.25;-inkscape-font-specification:'Roboto Bold'" x="236.662" y="75.902" stroke-width=".336" font-family="Roboto,sans-serif" font-size="5.927" font-weight="700" letter-spacing="0" transform="matrix(.78735 0 0 .7874 78.232 3.856)" word-spacing="0"><tspan x="236.662" y="75.902" style="-inkscape-font-specification:Roboto" fill="#e6e6e6" font-size="5.503" font-weight="400">22px Roboto, sans-se...</tspan></text><g stroke-width=".336"><text x="265.376" y="84.763" style="line-height:1.25;-inkscape-font-specification:'Roboto Bold'" fill="#a600ff" font-family="Roboto,sans-serif" font-size="5.927" font-weight="700" letter-spacing="0" transform="matrix(.78735 0 0 .7874 84.36 3.856)" word-spacing="0"><tspan style="-inkscape-font-specification:Roboto" x="265.376" y="84.763" font-size="4.233" font-weight="400">Aa</tspan></text><path fill="none" stroke="#a600ff" stroke-linecap="round" d="M264.501 80.825h6.916v4.908h-6.916z" paint-order="fill markers stroke" transform="matrix(.78735 0 0 .7874 84.36 3.856)"/><text x="273.876" y="85.367" style="line-height:1.25;-inkscape-font-specification:'Roboto Bold'" font-family="Roboto,sans-serif" font-size="5.927" font-weight="700" letter-spacing="0" transform="matrix(.78735 0 0 .7874 84.36 3.856)" word-spacing="0"><tspan style="-inkscape-font-specification:Roboto" x="273.876" y="85.367" fill="#e6e6e6" font-weight="400">5.17</tspan></text></g></g></svg>