<svg xmlns="http://www.w3.org/2000/svg" width="1330" height="800" viewBox="0 0 351.896 211.667"><text style="line-height:1.25;-inkscape-font-specification:'SF Burlington Script Bold'" x="494.168" y="139.486" stroke-width=".265" font-family="SF Burlington Script" font-size="30.48" font-weight="700" letter-spacing="0" transform="translate(-163.236 -33.222)" word-spacing="0"/><text style="line-height:1.25;-inkscape-font-specification:'Roboto Bold'" x="624.469" y="235.138" stroke-width=".265" font-family="Roboto" font-size="25.4" font-weight="700" letter-spacing="0" transform="translate(-163.236 -33.222)" word-spacing="0"/><text style="line-height:1.25;-inkscape-font-specification:'Roboto Bold'" x="320.065" y="100.123" stroke-width=".265" font-family="Roboto" font-size="5.927" font-weight="700" letter-spacing="0" transform="translate(-163.236 -33.222)" word-spacing="0"/><text style="line-height:1.25;-inkscape-font-specification:'Roboto Bold'" x="249.253" y="83.515" stroke-width=".265" font-family="Roboto" font-size="5.927" font-weight="700" letter-spacing="0" transform="translate(-163.236 -33.222)" word-spacing="0"/><path d="M9.134 10.957l-.01 15.752c-.006 8.664-.003 15.776.008 15.804.016.04.861.051 4.037.051 2.21 0 4.023-.004 4.028-.01.005-.005.02-2.447.03-5.425l.022-5.415 3.416-.024c3.145-.023 3.466-.032 4.037-.11 1.012-.138 1.922-.338 2.007-.44.024-.027.556-1.617 1.183-3.532l1.882-5.74c1.76-5.365 2.07-6.327 2.07-6.404 0-.11-.167-.363-.57-.863-1.654-2.055-3.906-3.192-7.069-3.57-.577-.07-1.129-.074-7.846-.074H9.134zm8.094 6.132h1.916c1.053.001 2.082.02 2.287.042 1.076.12 1.914.413 2.515.882.53.412 1.006 1.183 1.22 1.972.101.377.11.47.113 1.268.002.697-.012.929-.074 1.21-.158.717-.436 1.303-.85 1.795-.629.749-1.694 1.166-3.276 1.282-.62.046-3.78.057-3.823.014-.015-.015-.028-1.926-.028-4.246V17.09z" opacity=".89"/></svg>