<svg xmlns="http://www.w3.org/2000/svg" width="1330" height="800" viewBox="0 0 351.9 211.67"><defs><filter id="a" width="1.09" height="1.14" x="-.04" y="-.07" color-interpolation-filters="sRGB"><feGaussianBlur stdDeviation="4.83"/></filter></defs><text x="494.17" y="139.49" stroke-width=".26" font-family="SF Burlington Script" font-size="30.48" font-weight="700" letter-spacing="0" style="line-height:1.25;-inkscape-font-specification:'SF Burlington Script Bold'" transform="translate(-163.24 -33.22)" word-spacing="0"/><text x="624.47" y="235.14" stroke-width=".26" font-family="Roboto" font-size="25.4" font-weight="700" letter-spacing="0" style="line-height:1.25;-inkscape-font-specification:'Roboto Bold'" transform="translate(-163.24 -33.22)" word-spacing="0"/><g stroke-width="1.31"><g transform="matrix(.7696 0 0 .7579 43.58 30.2)"><rect width="264.58" height="164.04" x="163.33" y="-40.86" fill="#070707" fill-opacity=".94" filter="url(#a)" opacity=".22" rx="2.12" transform="matrix(.81267 0 0 .80237 43.44 2.24)"/><rect width="215.02" height="131.62" x="176.22" y="-30.54" fill="#323232" opacity=".76" rx="1.72"/><path fill="#3f3f3f" d="M177.9-30.54H389.5c.95 0 1.72.75 1.72 1.7l.03 3.74h-215.1l.05-3.75c0-.94.76-1.7 1.72-1.7z" opacity=".76"/><path fill="none" stroke="#d7d7d7" stroke-linecap="round" stroke-width=".35" d="M386.75-28.89l2.48 2.41M386.75-26.48l2.48-2.4M377.38-26.53h2.48"/><path fill="none" stroke="#d7d7d7" stroke-width=".35" d="M382.86-28.87a.26.26 0 0 0-.26.25v.25h1.15c.15 0 .27.12.27.26V-27h.26c.14 0 .26-.11.26-.25v-1.38a.26.26 0 0 0-.26-.25z" opacity=".76"/><path fill="none" stroke="#d7d7d7" stroke-width=".71" d="M545.53 47.21c-.3 0-.53.24-.53.53v2.87c0 .3.24.53.53.53h2.87c.3 0 .53-.24.53-.53v-2.87c0-.3-.24-.53-.53-.53z" opacity=".76" transform="matrix(.49435 0 0 .48064 112.65 -51.06)"/><rect width="55.91" height="3.4" x="184.74" y="-16.96" fill="#f2f2f2" opacity=".76" rx="1.72"/><rect width="17.2" height="3.4" x="244.95" y="-16.96" fill="#f2f2f2" opacity=".76" rx="1.72"/><rect width="17.2" height="3.4" x="266.45" y="-16.96" fill="#f2f2f2" opacity=".76" rx="1.72"/><rect width="25.8" height="3.4" x="184.74" y="-8.47" fill="#f2f2f2" opacity=".76" rx="1.72"/><rect width="25.8" height="3.4" x="214.84" y="-8.47" fill="#f2f2f2" opacity=".76" rx="1.72"/><rect width="32.25" height="3.4" x="184.74" y=".03" fill="#f2f2f2" opacity=".76" rx="1.72"/><rect width="12.9" height="3.4" x="221.29" y=".03" fill="#f2f2f2" opacity=".76" rx="1.72"/><rect width="19.35" height="3.4" x="238.5" y=".03" fill="#f2f2f2" opacity=".76" rx="1.72"/><rect width="23.65" height="3.4" x="184.74" y="50.98" fill="#f2f2f2" opacity=".76" rx="1.72"/><rect width="19.35" height="3.4" x="212.69" y="50.98" fill="#f2f2f2" opacity=".76" rx="1.72"/><rect width="19.35" height="3.4" x="236.34" y="50.98" fill="#f2f2f2" opacity=".76" rx="1.72"/><rect width="32.25" height="3.4" x="184.74" y="59.47" fill="#f2f2f2" opacity=".76" rx="1.72"/><rect width="12.9" height="3.4" x="221.29" y="59.47" fill="#f2f2f2" opacity=".76" rx="1.72"/><rect width="10.75" height="3.4" x="184.74" y="67.96" fill="#f2f2f2" opacity=".76" rx="1.72"/><rect width="30.1" height="3.4" x="199.79" y="67.96" fill="#f2f2f2" opacity=".76" rx="1.72"/><rect width="15.05" height="14.86" x="368.61" y="51.3" fill="none" stroke="#59ff00" stroke-linecap="round" stroke-width="1.04" opacity=".76" rx="7.53"/><text x="367.87" y="61.45" stroke-width=".35" font-family="sans-serif" font-size="22.59" font-weight="700" letter-spacing="0" style="line-height:1.25;-inkscape-font-specification:'sans-serif Bold'" transform="scale(1.0064 .99364)" word-spacing="0"><tspan x="367.87" y="61.45" fill="#59ff00" font-family="Roboto" font-size="6.78" font-weight="400" style="-inkscape-font-specification:Roboto">100</tspan></text><rect width="10.75" height="3.4" x="184.74" y="17.01" fill="#f2f2f2" opacity=".76" rx="1.72"/><rect width="30.1" height="3.4" x="199.79" y="17.01" fill="#f2f2f2" opacity=".76" rx="1.72"/><rect width="25.8" height="3.4" x="234.19" y="17.01" fill="#f2f2f2" opacity=".76" rx="1.72"/><rect width="21.5" height="3.4" x="264.3" y="17.01" fill="#f2f2f2" opacity=".76" rx="1.72"/><rect width="40.85" height="3.4" x="184.74" y="25.5" fill="#f2f2f2" opacity=".76" rx="1.72"/><rect width="17.2" height="3.4" x="229.89" y="25.71" fill="#f2f2f2" opacity=".76" rx="1.72"/><rect width="25.8" height="3.4" x="184.74" y="33.99" fill="#f2f2f2" opacity=".76" rx="1.72"/><rect width="47.3" height="3.4" x="214.84" y="33.99" fill="#f2f2f2" opacity=".76" rx="1.72"/><rect width="15.05" height="14.86" x="368.53" y="17.33" fill="none" stroke="#59ff00" stroke-linecap="round" stroke-width="1.04" opacity=".76" rx="7.53"/><text x="367.78" y="27.27" stroke-width=".35" font-family="sans-serif" font-size="22.59" font-weight="700" letter-spacing="0" style="line-height:1.25;-inkscape-font-specification:'sans-serif Bold'" transform="scale(1.0064 .99364)" word-spacing="0"><tspan x="367.78" y="27.27" fill="#59ff00" font-family="Roboto" font-size="6.78" font-weight="400" style="-inkscape-font-specification:Roboto">100</tspan></text><rect width="15.05" height="14.86" x="367.83" y="-18.4" fill="none" stroke="#59ff00" stroke-linecap="round" stroke-width="1.04" opacity=".76" rx="7.53"/><text x="367.09" y="-8.68" stroke-width=".35" font-family="sans-serif" font-size="22.59" font-weight="700" letter-spacing="0" style="line-height:1.25;-inkscape-font-specification:'sans-serif Bold'" transform="scale(1.0064 .99364)" word-spacing="0"><tspan x="367.09" y="-8.68" fill="#59ff00" font-family="Roboto" font-size="6.78" font-weight="400" style="-inkscape-font-specification:Roboto">100</tspan></text><path fill="#59ff00" d="M292.25 16.59c-1.19 0-2.15.95-2.15 2.12 0 1.17.96 2.12 2.15 2.12s2.15-.95 2.15-2.12c0-1.17-.96-2.12-2.15-2.12zm-.43 3.18l-1.07-1.06.3-.3.77.76 1.63-1.61.3.3zM253.65 25.29c-1.18 0-2.15.95-2.15 2.12 0 1.17.97 2.13 2.15 2.13 1.2 0 2.15-.96 2.15-2.13s-.96-2.12-2.15-2.12zm-.43 3.18l-1.07-1.06.3-.3.77.76 1.64-1.6.3.3zM268.6 33.57c-1.19 0-2.15.95-2.15 2.12 0 1.17.96 2.12 2.15 2.12 1.18 0 2.15-.95 2.15-2.12 0-1.17-.97-2.12-2.15-2.12zm-.43 3.18l-1.08-1.06.3-.3.78.76 1.63-1.6.3.3zM262.15 50.55c-1.19 0-2.15.95-2.15 2.13 0 1.17.96 2.12 2.15 2.12 1.18 0 2.15-.95 2.15-2.12 0-1.18-.97-2.13-2.15-2.13zm-.43 3.19l-1.08-1.06.3-.3.78.76 1.63-1.62.3.3zM240.65 59.04c-1.2 0-2.15.95-2.15 2.13 0 1.17.96 2.12 2.15 2.12 1.18 0 2.15-.95 2.15-2.12 0-1.18-.97-2.13-2.15-2.13zm-.43 3.19l-1.08-1.06.3-.3.78.76 1.63-1.61.3.3zM236.34 67.54c-1.18 0-2.15.95-2.15 2.12 0 1.17.97 2.12 2.15 2.12 1.2 0 2.16-.95 2.16-2.12 0-1.17-.97-2.12-2.16-2.12zm-.43 3.18l-1.07-1.06.3-.3.77.76 1.64-1.61.3.3zM264.3-.4c-1.19 0-2.15.95-2.15 2.12 0 1.18.96 2.13 2.15 2.13 1.18 0 2.15-.95 2.15-2.13 0-1.17-.97-2.12-2.15-2.12zm-.43 3.19l-1.08-1.07.3-.3.78.77L265.5.57l.3.3zM247.1-8.89c-1.2 0-2.15.95-2.15 2.12 0 1.17.96 2.13 2.15 2.13 1.18 0 2.15-.96 2.15-2.13s-.97-2.12-2.15-2.12zm-.43 3.18l-1.08-1.06.3-.3.78.76 1.63-1.6.3.3zM290.1-17.38c-1.19 0-2.15.95-2.15 2.12 0 1.17.96 2.12 2.15 2.12s2.15-.95 2.15-2.12c0-1.17-.96-2.12-2.15-2.12zm-.43 3.18l-1.08-1.06.3-.3.78.76 1.63-1.6.3.3z"/><rect width="25.8" height="3.4" x="322.63" y="-16.19" fill="#f2f2f2" opacity=".76" rx="1.72"/><rect width="21.5" height="3.4" x="342.99" y="-9.14" fill="#59ff00" opacity=".76" rx=".62"/><rect width="15.05" height="3.4" x="325.02" y="19.53" fill="#f2f2f2" opacity=".76" rx="1.72"/><rect width="17.2" height="3.4" x="344.94" y="26.59" fill="#59ff00" opacity=".76" rx=".62"/><rect width="40.85" height="3.4" x="321.47" y="53.5" fill="#f2f2f2" opacity=".76" rx="1.72"/><rect width="12.9" height="3.4" x="349.43" y="60.55" fill="#59ff00" opacity=".76" rx=".62"/><rect width="12.9" height="3.4" x="351.6" y="-16.19" fill="#f2f2f2" opacity=".76" rx="1.72"/><rect width="19.35" height="3.4" x="342.79" y="19.53" fill="#f2f2f2" opacity=".76" rx="1.72"/></g><text x="494.17" y="139.49" stroke-width=".35" font-family="SF Burlington Script" font-size="30.48" font-weight="700" letter-spacing="0" style="line-height:1.25;-inkscape-font-specification:'SF Burlington Script Bold'" transform="matrix(.7696 0 0 .7579 -164.69 30.2)" word-spacing="0"/><text x="624.47" y="235.14" stroke-width=".35" font-family="Roboto" font-size="25.4" font-weight="700" letter-spacing="0" style="line-height:1.25;-inkscape-font-specification:'Roboto Bold'" transform="matrix(.7696 0 0 .7579 -164.69 30.2)" word-spacing="0"/></g></svg>