<svg xmlns="http://www.w3.org/2000/svg" width="1330" height="800" viewBox="0 0 351.9 211.67"><g stroke-width="1.36" transform="translate(-397.45 13.04) scale(.73318)"><rect width="26.46" height="4.76" x="594.7" y="47.58" fill="#a600ff" rx="1.72"/><g fill="#a600ff" transform="translate(.74 .2)"><rect width="4.76" height="4.76" x="577.8" y="11.97" rx="1.72"/><rect width="4.76" height="4.76" x="585.24" y="11.97" rx="1.72"/><rect width="4.76" height="4.76" x="592.67" y="11.97" rx="1.72"/></g><g fill="#a600ff" transform="translate(25.24 .2)"><rect width="4.76" height="4.76" x="577.8" y="11.97" rx="1.72"/><rect width="4.76" height="4.76" x="585.24" y="11.97" rx="1.72"/><rect width="4.76" height="4.76" x="592.67" y="11.97" rx="1.72"/></g><rect width="10.58" height="4.76" x="636.59" y="38.72" fill="#a600ff" rx="1.72"/><rect width="9.52" height="4.76" x="637.65" y="29.87" fill="#a600ff" rx="1.72"/><rect width="5.82" height="4.76" x="641.36" y="21.02" fill="#a600ff" rx="1.72"/><g fill="#a600ff" transform="translate(49.74 .2)"><rect width="4.76" height="4.76" x="577.8" y="11.97" rx="1.72"/><rect width="4.76" height="4.76" x="585.24" y="11.97" rx="1.72"/><rect width="4.76" height="4.76" x="592.67" y="11.97" rx="1.72"/></g><rect width="4.76" height="4.76" x="577.11" y="21.02" fill="#a600ff" rx="1.72"/><rect width="4.76" height="4.76" x="584.25" y="21.02" fill="#a600ff" rx="1.72"/><rect width="4.76" height="4.76" x="591.38" y="21.02" fill="#a600ff" rx="1.72"/><rect width="4.76" height="4.76" x="598.52" y="21.02" fill="#a600ff" rx="1.72"/><rect width="4.76" height="4.76" x="605.66" y="21.02" fill="#a600ff" rx="1.72"/><rect width="4.76" height="4.76" x="612.8" y="21.02" fill="#a600ff" rx="1.72"/><rect width="4.76" height="4.76" x="619.94" y="21.02" fill="#a600ff" rx="1.72"/><rect width="4.76" height="4.76" x="627.08" y="21.02" fill="#a600ff" rx="1.72"/><rect width="4.76" height="4.76" x="634.22" y="21.02" fill="#a600ff" rx="1.72"/><rect width="7.41" height="4.76" x="568.91" y="29.87" fill="#a600ff" rx="1.72"/><rect width="4.76" height="4.76" x="578.9" y="29.87" fill="#a600ff" rx="1.72"/><rect width="4.76" height="4.76" x="586.24" y="29.87" fill="#a600ff" rx="1.72"/><rect width="4.76" height="4.76" x="593.59" y="29.87" fill="#a600ff" rx="1.72"/><rect width="4.76" height="4.76" x="600.93" y="29.87" fill="#a600ff" rx="1.72"/><rect width="4.76" height="4.76" x="608.28" y="29.87" fill="#a600ff" rx="1.72"/><rect width="4.76" height="4.76" x="615.62" y="29.87" fill="#a600ff" rx="1.72"/><rect width="4.76" height="4.76" x="622.96" y="29.87" fill="#a600ff" rx="1.72"/><rect width="4.76" height="4.76" x="630.31" y="29.87" fill="#a600ff" rx="1.72"/><rect width="8.47" height="4.76" x="568.91" y="38.72" fill="#a600ff" rx="1.72"/><rect width="4.76" height="4.76" x="580.61" y="38.72" fill="#a600ff" rx="1.72"/><rect width="4.76" height="4.76" x="588.61" y="38.72" fill="#a600ff" rx="1.72"/><rect width="4.76" height="4.76" x="596.61" y="38.72" fill="#a600ff" rx="1.72"/><rect width="4.76" height="4.76" x="604.6" y="38.72" fill="#a600ff" rx="1.72"/><rect width="4.76" height="4.76" x="612.6" y="38.72" fill="#a600ff" rx="1.72"/><rect width="4.76" height="4.76" x="620.6" y="38.72" fill="#a600ff" rx="1.72"/><rect width="4.76" height="4.76" x="628.6" y="38.72" fill="#a600ff" rx="1.72"/><g stroke-width="2.71"><path fill="#ebd4f4" d="M651.55 56.96h-55.4L578.16 7.12l70.29-.17a3.1 3.1 0 0 1 3.1 3.1z" opacity=".22"/><path fill="#fff" d="M624.54 56.42c1.53-.77 6.97-11.88 8.67-15.4a3.56 3.56 0 0 0-3.02 3.51v1.8c0 1.96-1.6-3.56-3.56-3.56a3.56 3.56 0 0 0-3.56 3.56v11.43c.35-.55.85-1.02 1.47-1.34zm3.87 22.19a18.9 18.9 0 0 1-3.11-6.72l-2.71-11.23a3.8 3.8 0 0 1 .23-2.45l-3.93-7.28a3.75 3.75 0 0 0-6.96 2.66l2.71 11.24a18.9 18.9 0 0 0 3.12 6.72l5.3 7.27v8.29h10.66v-1.23zm0 0"/><path fill="#edd9f5" d="M647.9 78.82l2.08-6.67a34.26 34.26 0 0 0 1.57-10.24V49.4a3.56 3.56 0 0 0-7.12 0v-2.6a3.56 3.56 0 0 0-7.12 0v-2.26a3.56 3.56 0 0 0-4.1-3.51c-1.7 3.52-7.14 14.63-8.67 15.4-.62.32-1.12.79-1.47 1.34v.91l-.25-.46c-.34.75-.44 1.6-.23 2.45l2.7 11.23a18.95 18.95 0 0 0 3.12 6.72l5.31 7.27v1.23h14.18v-8.3zm-55.11 8.28v-8.28l5.3-7.27a18.9 18.9 0 0 0 3.12-6.72l2.71-11.24a3.75 3.75 0 0 0-6.95-2.66l-4.18 7.74V46.33c0-1.97-1.6-3.56-3.56-3.56-1.97 0-3.57 5.52-3.57 3.56v-1.8a3.56 3.56 0 0 0-7.12 0v2.26a3.56 3.56 0 0 0-5.6-2.9v7.8c0 4.88.73 9.74 2.2 14.4l2.93 9.36v11.66z"/><path fill="#a600ff" d="M567.85 5.18a5.33 5.33 0 0 0-5.32 5.32v51.4c0 3.66.55 7.28 1.65 10.78l2 6.4v8.02a1.77 1.77 0 1 0 3.55 0v-8.3c0-.17-.02-.35-.08-.53l-2.09-6.66a32.44 32.44 0 0 1-1.49-9.71V49.4a1.79 1.79 0 0 1 3.58 0v4.35a1.77 1.77 0 1 0 3.55 0v-6.97a1.79 1.79 0 0 1 3.57 0v6.97a1.77 1.77 0 1 0 3.55 0v-9.23a1.79 1.79 0 0 1 3.57 0v9.23a1.77 1.77 0 1 0 3.55 0V45a1.79 1.79 0 0 1 3.57 0v13.66a1.77 1.77 0 0 0 3.34.84l4.18-7.74a1.97 1.97 0 0 1 2.63-.83 1.97 1.97 0 0 1 1.04 2.24l-2.71 11.23a17.02 17.02 0 0 1-2.83 6.1l-5.3 7.26c-.23.3-.35.67-.35 1.05v8.29a1.77 1.77 0 0 0 3.55 0v-7.72l4.97-6.8a20.57 20.57 0 0 0 3.4-7.34l1.57-6.52h6.85l1.57 6.51a20.57 20.57 0 0 0 3.4 7.35l4.98 6.8v7.72a1.77 1.77 0 0 0 3.54 0v-8.3c0-.37-.12-.74-.34-1.04l-5.31-7.27a17.03 17.03 0 0 1-2.82-6.09l-2.71-11.23c-.22-.9.2-1.82 1.03-2.24a1.97 1.97 0 0 1 2.64.83l4.18 7.74a1.77 1.77 0 0 0 3.33-.84V44.98a1.79 1.79 0 0 1 3.58 0v8.78a1.77 1.77 0 0 0 3.54 0v-9.23a1.79 1.79 0 0 1 3.58 0v9.23a1.77 1.77 0 0 0 3.54 0v-6.97a1.79 1.79 0 0 1 3.58 0v6.97a1.77 1.77 0 1 0 3.55 0V49.4a1.79 1.79 0 0 1 3.57 0v12.5c0 3.3-.5 6.57-1.49 9.71l-2.09 6.67c-.05.17-.08.35-.08.53v8.29a1.77 1.77 0 0 0 3.55 0v-8.02l2-6.4c1.1-3.5 1.66-7.12 1.66-10.78V10.5A5.33 5.33 0 0 0 648 5.18zm0 3.54H648c.97 0 1.77.8 1.77 1.78v33.89a5.32 5.32 0 0 0-4.05.2 5.34 5.34 0 0 0-7.27-2.56 5.34 5.34 0 0 0-4.7-2.83 5.2 5.2 0 0 0-3.58 2.03c-.7-1.14-2.37-1.63-3.55-1.58a5.34 5.34 0 0 0-5.33 5.33v6.67l-.85-1.56c-1.86-3.1-5.76-3.45-8.39-1.64a5.5 5.5 0 0 0-1.85 5.56l.28 1.18h-5.13l.29-1.18a5.5 5.5 0 0 0-1.86-5.56 8.17 8.17 0 0 0-2.68-1.2 5.5 5.5 0 0 0-5.7 2.84l-.85 1.56v-6.64c0-2.94-2.4-5.33-5.34-5.33-1.78-.05-3 1.07-3.58 2.57-.38-1.54-.92-2.9-3.54-3.05a5.13 5.13 0 0 0-4.7 2.83 5.34 5.34 0 0 0-7.27 2.55 5.3 5.3 0 0 0-4.06-.2V10.5c0-.98.8-1.78 1.78-1.78z"/></g><rect width="4.76" height="4.76" x="568.91" y="12.17" fill="#a600ff" rx="1.72"/><rect width="5.82" height="4.76" x="568.91" y="21.02" fill="#a600ff" rx="1.72"/></g></svg>