<svg xmlns="http://www.w3.org/2000/svg" width="1330" height="800" viewBox="0 0 351.9 211.67"><g fill="none" fill-rule="evenodd" stroke-width="2.47"><path fill="#000" fill-opacity=".89" d="M33 148.1v1.53h1.55v4.48h3.27v-1.72h-1.54v-5.77h1.54v-1.53h1.5v-2.24h1.53v-5.26h1.25v1.48h1.79v-3.24h-3.04v-2.77h6.07v-1.77h-4.57v-1.24h7.6v-7.02h-1.54v-1.53H36.04v1.53h-1.5v9.79h-1.53v1.48h-2.27v1.53h-2.26v1.52h-1.54v1.48h-2.8v-1.52h-1.49v-1.48h-1.54v-3.01h-1.73v9.26h1.5v1.53h1.53v1.48h1.5v1.53h1.54v1.48h1.49v6.01h3.27v-1.72h-1.49v-1.28h1.5v-1.48h1.53v-1.53z"/><path fill="#fff" d="M37.53 123.7h1.83v1.81h-1.83z"/></g></svg>