<svg xmlns="http://www.w3.org/2000/svg" viewBox="0 0 658.95 512.4">
    <defs>
        <clipPath id="a">
            <path d="M56 66.7h641v384.6H56z"/>
        </clipPath>
        <clipPath id="b">
            <path d="M202.79 451H722V66.7H202.79z"/>
        </clipPath>
        <clipPath id="c">
            <path d="M0 500h750V0H0z"/>
        </clipPath>
        <clipPath id="d">
            <path d="M266.6 253.8h418.1V83.88H266.6z"/>
        </clipPath>
        <clipPath id="e">
            <path d="M490.4 389h186V146.62h-186z"/>
        </clipPath>
        <clipPath id="f">
            <path d="M490.4 389h186V146.62h-186z"/>
        </clipPath>
        <clipPath id="g">
            <path d="M492.03 381.77h175.61V149.72H492.03z"/>
        </clipPath>
        <clipPath id="h">
            <path d="M500.1 388.79h.03-.03z"/>
        </clipPath>
        <clipPath id="i">
            <path d="M490.4 377.99H663.5V148.5H490.4z"/>
        </clipPath>
        <clipPath id="j">
            <path d="M392.46 246.49h136.62v-95.77H392.46z"/>
        </clipPath>
        <clipPath id="k">
            <path d="M392.46 246.49h136.62v-95.77H392.46z"/>
        </clipPath>
        <clipPath id="l">
            <path d="M395.48 245.82h130v-75.39h-130z"/>
        </clipPath>
        <clipPath id="m">
            <path d="M396.44 246.49h127.94v-50.02H396.44z"/>
        </clipPath>
        <clipPath id="n">
            <path d="M392.46 219h136.62v-55.48H392.46z"/>
        </clipPath>
        <clipPath id="o">
            <path d="M395.48 246.37h130v-95.65h-130z"/>
        </clipPath>
        <clipPath id="p">
            <path d="M525.23 221.58c.35-.19.36-.63-.2-.97l-85.91-49.92c-.57-.32-1.33-.32-1.66-.12l-41.74 24.1c-.35.2-.36.63.2.96l85.9 49.92c.59.33 1.34.33 1.67.13l41.74-24.1"/>
        </clipPath>
        <clipPath id="q">
            <path d="M472.22 242.2h6.47v-70.1h-6.47z"/>
        </clipPath>
        <clipPath id="r">
            <path d="M472.22 246.37h13.5v-7.83h-13.5z"/>
        </clipPath>
        <clipPath id="s">
            <path d="M478.5 242.72h7.42V172.1h-7.42z"/>
        </clipPath>
        <clipPath id="t">
            <path d="M459.64 212.06h6.4v-47.25h-6.4z"/>
        </clipPath>
        <clipPath id="u">
            <path d="M459.64 216.23h13.5v-7.82h-13.5z"/>
        </clipPath>
        <clipPath id="v">
            <path d="M465.92 212.58h7.35v-47.77h-7.35z"/>
        </clipPath>
        <clipPath id="w">
            <path d="M447.84 221.88h6.46v-63.86h-6.46z"/>
        </clipPath>
        <clipPath id="x">
            <path d="M447.84 226.05h13.51v-7.82h-13.5z"/>
        </clipPath>
        <clipPath id="y">
            <path d="M454.13 222.4h7.4v-64.38h-7.4z"/>
        </clipPath>
        <clipPath id="z">
            <path d="M435.16 228.08h6.5v-77.36h-6.5z"/>
        </clipPath>
        <clipPath id="A">
            <path d="M435.16 232.25h13.51v-7.82h-13.5z"/>
        </clipPath>
        <clipPath id="B">
            <path d="M441.44 228.6h7.44v-77.88h-7.44z"/>
        </clipPath>
        <clipPath id="C">
            <path d="M631.34 126.16h33.82v-19.59h-33.82z"/>
        </clipPath>
        <clipPath id="D">
            <path d="M631.34 126.16h33.82v-19.59h-33.82z"/>
        </clipPath>
        <clipPath id="E">
            <path d="M365.23 222.01h33.82v-19.59h-33.83z"/>
        </clipPath>
        <clipPath id="F">
            <path d="M365.23 222.01h33.82v-19.59h-33.83z"/>
        </clipPath>
    </defs>
    <g clip-path="url(#c)" transform="matrix(1.33333 0 0 -1.33333 -270.38 601.33)">
        <g clip-path="url(#e)">
            <g clip-path="url(#f)">
                <g clip-path="url(#h)">
                    <path fill="#37085d" d="M500.13 388.78h-.03a.1.1 0 0 0 .02 0"/>
                </g>
            </g>
        </g>
        <path fill="#f7d355" d="M560.98 300.74v-.1z"/>
        <g clip-path="url(#C)">
            <g clip-path="url(#D)" opacity=".12">
                <path d="M660.17 123.3c6.63-3.83 6.66-10.03.08-13.86-6.58-3.82-17.3-3.83-23.92 0-6.62 3.82-6.66 10.03-.08 13.86 6.58 3.82 17.3 3.82 23.92 0"/>
            </g>
        </g>
        <path fill="#f49f00" d="M661.05 120.42a33.86 33.86 0 0 1-2.44 9.05l-20.31.63s-3.8-5.54-3.27-10.56c-.05-1.65.72-3.82.73-3.82.64-1.28 1.69-1.93 3.18-2.79 5.17-2.99 13.55-2.9 18.68.09 3 1.73 3.56 4.98 3.43 7.4"/>
        <path fill="#ad7000" d="M655.99 131.9c4.3-2.48 4.33-6.5.05-9-4.27-2.48-11.23-2.48-15.53 0-4.3 2.49-4.32 6.52-.05 9 4.28 2.49 11.23 2.48 15.53 0"/>
        <path fill="#f1639e" d="M636.93 125.84c-.9 2.4.33 4.94 3.21 6.61 4.44 2.59 11.7 2.59 16.17 0 2.57-1.48 3.84-3.57 3.5-5.74l-1.25.2c.25 1.62-.8 3.24-2.89 4.44-4.12 2.38-10.8 2.38-14.89 0-2.34-1.36-3.34-3.25-2.66-5.06z"/>
        <path fill="#fff" d="M647.64 122.65a134.82 134.82 0 0 0-2.74 5.7c-5.42 11.95-9.7 25.42-12.59 35.87a339.35 339.35 0 0 0-4.14 16.56l-.2.98-.08.33c-.1.53-.47 1.04-.87 1.27a1.04 1.04 0 0 1-.23.1c-.48.13-.77-.28-.64-.9 0-.04 2.75-13.38 7.86-29.53 2.56-8.07 5.7-16.84 9.41-25.03a143.94 143.94 0 0 1 2.9-6l.6-1.14c.53.02 1.07.04 1.62.08l-.9 1.7"/>
        <path fill="#c887f6" d="M646.32 122a143.94 143.94 0 0 0-2.9 6 229.29 229.29 0 0 0-9.41 25.03c-5.11 16.15-7.85 29.5-7.86 29.53-.13.62.16 1.03.64.9a1.05 1.05 0 0 0 .23-.1c.4-.23.76-.74.87-1.27l.07-.33.21-.98a338.87 338.87 0 0 1 4.14-16.56c2.9-10.45 7.17-23.92 12.59-35.86a134.82 134.82 0 0 1 2.74-5.71c.67.6 1.13 1.63 1.3 3.16.47 4.3-2.72 9.95-2.6 14.43.12 4.76 6.59 8.4 1.62 14.83-2.12 2.73-5.06 3.03-6.3 7.21-.86 2.93.63 4.46 1.18 6.45.58 2.17.59 4.7-.48 7.66-1.32 3.64-4.1 4.1-5.99 6.86-2.41 3.53-.36 5.96-.52 8.84-.13 2.3-1.51 3.59-3.12 4.52-.64.36-1.31.68-1.95.97-.64.29-1.25.57-1.84.91-3.4 2.03-3.09 3.5-5.9 6.49a22.49 22.49 0 0 1-3.56 3 6.91 6.91 0 0 1-1.2.88c-4.47 2.58-10.83-.3-7.88-6.24 1.36-2.75 5.03-4.69 6.5-7.36 3.2-5.82-2.12-6.28-3.18-9.23-2-5.56 6.83-8.71 6.34-14.45-.29-3.3-3.73-4.54-.84-9.41 1.4-2.38 3.76-2.7 4.98-5.07 1.66-3.18-.13-5.89-.62-7.94-.59-2.5.52-6.86 2.24-9.86 3.16-5.58 8.8-10.58 13.15-14.14a20.92 20.92 0 0 1 2.75-1.93c1.7-.98 3.32-1.49 4.6-1.24"/>
        <path fill="#fff" d="M666.68 167.22a1.63 1.63 0 0 1-.42.37c-.32.18-.64.16-.8-.1 0-.01-3.66-5.67-7.31-14.29-3.33-7.85-6.69-18.11-7.29-28.88a59.86 59.86 0 0 1-.09-3.14c.62.08 1.23.2 1.85.33.01.59.02 1.18.05 1.76.6 10.36 3.87 20.48 7.16 28.2a111.42 111.42 0 0 0 4.97 10.26 80.3 80.3 0 0 0 1.64 2.87l.45.75.16.25c.24.37.07 1.1-.37 1.62"/>
        <path fill="#6908af" d="M681.53 161.57c2.25 1.84-1.94 6.51-3.57 9.3-2.42 4.12-1.21 4.39-2.43 8.3-.69 2.2-1.96 4.56-2.02 4.68-1.17 2.97-4.37 6.16-7.28 7.84-2.84 1.64-5.4 1.85-5.62-.94-.19-2.4 2.58-6.78 2.54-9.24-.05-5.39-6-.32-8.9-.41-5.45-.17 2.1-10.09-1.86-11.8-2.26-.99-6.68 1.93-6.5-2.8.08-2.3 2.4-4.74 2.3-6.86-.14-2.86-3.67-2.13-5.41-2.44-2.12-.38-3.54-3.14-3.5-5.99.05-5.26 3.1-12.77 5.62-18.41 1.52-3.42 3.63-6.69 5.96-8.48.6 10.77 3.96 21.03 7.29 28.88 3.65 8.61 7.3 14.28 7.31 14.3.16.25.48.27.8.09a1.63 1.63 0 0 0 .42-.37c.44-.53.6-1.25.37-1.62a15.2 15.2 0 0 0-.16-.25l-.45-.75c-.4-.66-.96-1.63-1.64-2.87a111.33 111.33 0 0 1-4.97-10.26c-3.29-7.72-6.56-17.84-7.16-28.2a4.38 4.38 0 0 1 3.28-.07c.12.05.24.11.35.18l-.29-.02.3.02c2.7 1.45 2.8 6.4 5.47 7.93 2.97 1.71 12.06-3.29 10.58 4.1-.64 3.14-3.6 6.16-2.41 8.98.82 1.97 3.33 1.1 5.1 1.32 1.92.25 3.44 1.22 4.06 3.41.77 2.7-1.93 5.63-2.3 8.55-.48 3.74 3.17 2.65 4.72 3.9"/>
        <path fill="#6908af" d="M650.67 123.02a79.69 79.69 0 0 0-.82 4.47c-.93 6.07-1.24 12.3-1.23 17.87a158.58 158.58 0 0 0 1.1 17.87l.15 1.09.05.38c.07.52-.26 1.24-.75 1.62a1.27 1.27 0 0 1-.14.09c-.44.25-.82.11-.9-.36 0-.04-1.28-8.52-1.31-19.65-.02-5.66.3-12 1.26-18.3a83.32 83.32 0 0 1 .88-4.77c.16-.78.36-1.54.55-2.3.53.05 1.06.11 1.59.2-.15.6-.3 1.19-.43 1.8"/>
        <path fill="#fff" d="M656.22 147.62c.06 2.01 1.78 2.18 2.8 3.04 1.1.92 1.8 2.32 1.7 4.44-.15 2.61-2.44 4.14-3.32 6.52-1.12 3.06 1.34 3.45 1.99 5.12.95 2.41-2.63 4.89-4.24 6.7-2.4 2.65-1.72 3.33-3.34 6.26-.9 1.65-2.2 3.2-2.26 3.28a9.52 9.52 0 0 1-3.22 2.95c-3.17 1.83-6.87 1.84-6.15-1.78.43-2.13 3.08-4.89 3.61-7.02 1.18-4.67-3.56-2.5-5.29-3.65-3.27-2.16 3.53-7.93 1.52-10.87-1.16-1.69-4.5-.81-3.32-4.82.56-1.96 2.52-3.2 2.93-5.07.55-2.51-1.75-3.18-2.73-4.1-1.2-1.12-1.44-4.03-.79-6.47 1.22-4.52 4.75-9.87 7.54-13.8 1.42-2.02 3.08-3.79 4.66-4.7.21-.12.43-.23.65-.32a84.36 84.36 0 0 0-.88 4.77c-.97 6.3-1.28 12.64-1.26 18.3.03 11.13 1.3 19.61 1.3 19.65.08.47.47.61.9.36a1.13 1.13 0 0 0 .14-.09c.5-.38.83-1.1.76-1.62l-.05-.38a82.68 82.68 0 0 1-.14-1.1 109.34 109.34 0 0 1-.45-4.07 158.09 158.09 0 0 1-.66-13.79c-.01-5.57.3-11.8 1.23-17.87.23-1.5.5-3 .82-4.47.67.08 1.3.43 1.81 1.14 1.6 2.16.4 6.73 1.73 9.15 1.41 2.58 8.03 1.64 5.48 7.46-1.08 2.48-3.55 3.98-3.47 6.85"/>
        <path fill="#ff7f9f" d="M648.29 120.42c-2.93 0-5.86.65-8.1 1.94a6.9 6.9 0 0 0-3.13 3.53l.72.27c.51-1 1.67-1.9 3.05-2.7 4.12-2.38 10.8-2.38 14.9 0 1.62.95 2.72 2.05 3.15 3.45l.94-.2c-.26-1.66-1.49-3.2-3.46-4.35a16.42 16.42 0 0 0-8.07-1.94"/>
        <g clip-path="url(#E)">
            <g clip-path="url(#F)" opacity=".12">
                <path d="M394.05 219.14c6.63-3.82 6.67-10.02.08-13.85-6.57-3.82-17.29-3.83-23.92 0-6.62 3.82-6.65 10.03-.08 13.85 6.59 3.83 17.3 3.82 23.92 0"/>
            </g>
        </g>
        <path fill="#f49f00" d="M394.94 216.26a33.97 33.97 0 0 1-2.44 9.06l-20.32.63s-3.8-5.54-3.27-10.57c-.05-1.64.73-3.81.73-3.81h.01c.64-1.28 1.68-1.93 3.17-2.79 5.18-2.99 13.55-2.9 18.69.09 2.98 1.73 3.55 4.98 3.43 7.4"/>
        <path fill="#ad7000" d="M389.87 227.75c4.3-2.48 4.33-6.51.06-9-4.27-2.48-11.23-2.48-15.53 0-4.3 2.49-4.33 6.52-.06 9 4.28 2.49 11.24 2.48 15.53 0"/>
        <path fill="#f1639e" d="M370.81 221.7c-.9 2.4.33 4.93 3.21 6.6 4.45 2.58 11.7 2.59 16.17 0 2.57-1.48 3.85-3.57 3.51-5.74l-1.26.2c.25 1.61-.8 3.24-2.88 4.44-4.12 2.38-10.8 2.38-14.9 0-2.34-1.36-3.33-3.25-2.66-5.06z"/>
        <path fill="#fff" d="M381.52 218.5a134.82 134.82 0 0 0-2.74 5.7c-5.42 11.95-9.7 25.42-12.58 35.87a340.8 340.8 0 0 0-4.14 16.56l-.21.98-.08.33c-.1.52-.47 1.04-.86 1.27a1.04 1.04 0 0 1-.24.1c-.48.12-.77-.28-.64-.9.01-.04 2.75-13.39 7.86-29.53 2.56-8.08 5.7-16.84 9.42-25.03a143.9 143.9 0 0 1 2.89-6.01l.6-1.14 1.62.09-.9 1.7"/>
        <path fill="#9426e8" d="M380.2 217.84c-1 1.95-1.96 3.96-2.9 6a229.44 229.44 0 0 0-9.41 25.04c-5.1 16.15-7.85 29.49-7.86 29.52-.12.63.16 1.03.64.9a1 1 0 0 0 .24-.1c.4-.22.76-.74.87-1.26l.07-.33.2-.98a340.77 340.77 0 0 1 4.15-16.56c2.89-10.45 7.16-23.92 12.58-35.87a134.82 134.82 0 0 1 2.74-5.7c.67.6 1.14 1.63 1.3 3.15.47 4.31-2.71 9.96-2.6 14.44.12 4.76 6.6 8.4 1.62 14.83-2.12 2.72-5.06 3.03-6.3 7.21-.86 2.92.64 4.46 1.18 6.45.59 2.17.6 4.7-.47 7.65-1.32 3.65-4.11 4.11-6 6.87-2.41 3.53-.35 5.96-.51 8.83-.13 2.3-1.52 3.6-3.12 4.52-.64.37-1.32.68-1.96.98-.63.28-1.24.56-1.84.9-3.4 2.04-3.08 3.5-5.9 6.5a22.58 22.58 0 0 1-3.56 3 6.97 6.97 0 0 1-1.2.88c-4.46 2.57-10.82-.3-7.88-6.25 1.36-2.74 5.04-4.68 6.5-7.35 3.2-5.82-2.11-6.29-3.17-9.23-2-5.56 6.83-8.72 6.33-14.46-.28-3.29-3.72-4.54-.84-9.4 1.41-2.38 3.77-2.7 4.99-5.07 1.65-3.18-.14-5.9-.63-7.94-.58-2.5.53-6.87 2.24-9.86 3.16-5.58 8.81-10.59 13.15-14.14a20.97 20.97 0 0 1 2.76-1.93c1.7-.98 3.31-1.5 4.59-1.24"/>
        <path fill="#fff" d="M400.57 263.06a1.61 1.61 0 0 1-.43.37c-.32.19-.63.17-.8-.09 0-.02-3.65-5.68-7.3-14.3-3.34-7.84-6.7-18.1-7.3-28.87a59.89 59.89 0 0 1-.09-3.15c.62.09 1.23.2 1.85.34.02.59.02 1.17.05 1.76.6 10.35 3.87 20.48 7.16 28.2a111.26 111.26 0 0 0 4.98 10.26 78.55 78.55 0 0 0 1.63 2.86l.45.75.17.25c.23.37.06 1.1-.37 1.62"/>
        <path fill="#37085d" d="M415.41 257.42c2.25 1.84-1.93 6.5-3.57 9.29-2.41 4.13-1.2 4.4-2.43 8.32-.68 2.2-1.95 4.55-2.02 4.67-1.17 2.97-4.36 6.16-7.28 7.84-2.83 1.64-5.4 1.85-5.62-.95-.18-2.4 2.58-6.77 2.55-9.23-.06-5.39-6.01-.32-8.9-.41-5.46-.17 2.1-10.1-1.86-11.8-2.27-.99-6.69 1.93-6.51-2.8.09-2.3 2.4-4.75 2.3-6.86-.13-2.86-3.67-2.13-5.41-2.44-2.12-.39-3.54-3.14-3.5-5.99.06-5.26 3.11-12.78 5.62-18.42 1.52-3.41 3.64-6.68 5.97-8.47.6 10.77 3.95 21.03 7.28 28.88 3.66 8.61 7.3 14.27 7.32 14.3.16.25.47.27.79.08.14-.08.3-.2.43-.37.44-.52.6-1.25.37-1.62l-.17-.25-.45-.75a80.3 80.3 0 0 1-1.63-2.86 111.03 111.03 0 0 1-4.98-10.26c-3.28-7.72-6.56-17.85-7.15-28.2a4.38 4.38 0 0 1 3.27-.07c.13.05.24.11.36.17l-.3-.02.3.02c2.7 1.46 2.8 6.4 5.48 7.94 2.97 1.7 12.06-3.29 10.57 4.1-.63 3.14-3.59 6.16-2.4 8.97.81 1.98 3.33 1.1 5.1 1.32 1.92.26 3.44 1.23 4.05 3.42.78 2.7-1.93 5.63-2.3 8.54-.47 3.75 3.17 2.65 4.72 3.91"/>
        <path fill="#37085d" d="M384.55 218.87a80.02 80.02 0 0 0-.81 4.47c-.94 6.07-1.25 12.3-1.23 17.87a158.53 158.53 0 0 0 1.1 17.86l.14 1.1.05.38c.08.51-.26 1.24-.75 1.62a1.26 1.26 0 0 1-.14.09c-.43.25-.82.11-.9-.37 0-.03-1.27-8.51-1.3-19.64-.02-5.66.29-12 1.25-18.3a83.2 83.2 0 0 1 .88-4.78c.17-.77.36-1.53.56-2.3a27.82 27.82 0 0 1 1.58.2c-.14.6-.3 1.2-.43 1.8"/>
        <path fill="#fff" d="M390.1 243.47c.06 2 1.79 2.18 2.8 3.04 1.1.92 1.81 2.32 1.7 4.43-.14 2.62-2.43 4.15-3.32 6.53-1.12 3.05 1.34 3.45 2 5.11.94 2.42-2.63 4.9-4.25 6.7-2.39 2.66-1.72 3.33-3.34 6.27-.9 1.65-2.2 3.2-2.26 3.28a9.52 9.52 0 0 1-3.22 2.95c-3.16 1.82-6.86 1.83-6.14-1.78.42-2.13 3.08-4.89 3.6-7.02 1.19-4.68-3.56-2.51-5.29-3.65-3.27-2.17 3.53-7.94 1.52-10.87-1.16-1.69-4.49-.82-3.32-4.82.57-1.96 2.53-3.21 2.94-5.08.55-2.5-1.76-3.18-2.74-4.1-1.2-1.11-1.43-4.03-.78-6.46 1.22-4.52 4.74-9.87 7.53-13.81 1.43-2.02 3.09-3.78 4.66-4.69a5.84 5.84 0 0 1 .65-.33 84.37 84.37 0 0 0-.88 4.78c-.96 6.3-1.27 12.64-1.26 18.3.03 11.13 1.31 19.6 1.31 19.65.08.47.47.6.9.36a1.13 1.13 0 0 0 .14-.1c.5-.37.83-1.1.75-1.61l-.05-.39a70.94 70.94 0 0 1-.14-1.09c-.13-.95-.28-2.34-.44-4.07a158.09 158.09 0 0 1-.66-13.8c-.02-5.56.29-11.8 1.23-17.86a80.02 80.02 0 0 1 .81-4.47c.68.08 1.3.43 1.82 1.13 1.6 2.17.39 6.74 1.72 9.16 1.42 2.58 8.04 1.64 5.49 7.45-1.09 2.48-3.56 3.98-3.48 6.86"/>
        <path fill="#ff7f9f" d="M382.17 216.27c-2.93 0-5.86.64-8.1 1.93a6.89 6.89 0 0 0-3.13 3.54l.72.27c.51-1 1.68-1.9 3.05-2.7 4.12-2.38 10.8-2.38 14.9 0 1.62.94 2.73 2.05 3.15 3.45l.94-.2c-.26-1.66-1.49-3.2-3.46-4.35a16.43 16.43 0 0 0-8.07-1.94"/>
    </g>
</svg>
