<svg xmlns="http://www.w3.org/2000/svg" viewBox="0 0 658.95 512.4">
    <defs>
        <clipPath id="a">
            <path d="M56 66.7h641v384.6H56z"/>
        </clipPath>
        <clipPath id="b">
            <path d="M202.79 451H722V66.7H202.79z"/>
        </clipPath>
        <clipPath id="c">
            <path d="M0 500h750V0H0z"/>
        </clipPath>
        <clipPath id="d">
            <path d="M266.6 253.8h418.1V83.88H266.6z"/>
        </clipPath>
        <clipPath id="e">
            <path d="M490.4 389h186V146.62h-186z"/>
        </clipPath>
        <clipPath id="f">
            <path d="M490.4 389h186V146.62h-186z"/>
        </clipPath>
        <clipPath id="g">
            <path d="M492.03 381.77h175.61V149.72H492.03z"/>
        </clipPath>
        <clipPath id="h">
            <path d="M500.1 388.79h.03-.03z"/>
        </clipPath>
        <clipPath id="i">
            <path d="M490.4 377.99H663.5V148.5H490.4z"/>
        </clipPath>
        <clipPath id="j">
            <path d="M392.46 246.49h136.62v-95.77H392.46z"/>
        </clipPath>
        <clipPath id="k">
            <path d="M392.46 246.49h136.62v-95.77H392.46z"/>
        </clipPath>
        <clipPath id="l">
            <path d="M395.48 245.82h130v-75.39h-130z"/>
        </clipPath>
        <clipPath id="m">
            <path d="M396.44 246.49h127.94v-50.02H396.44z"/>
        </clipPath>
        <clipPath id="n">
            <path d="M392.46 219h136.62v-55.48H392.46z"/>
        </clipPath>
        <clipPath id="o">
            <path d="M395.48 246.37h130v-95.65h-130z"/>
        </clipPath>
        <clipPath id="p">
            <path d="M525.23 221.58c.35-.19.36-.63-.2-.97l-85.91-49.92c-.57-.32-1.33-.32-1.66-.12l-41.74 24.1c-.35.2-.36.63.2.96l85.9 49.92c.59.33 1.34.33 1.67.13l41.74-24.1"/>
        </clipPath>
        <clipPath id="q">
            <path d="M472.22 242.2h6.47v-70.1h-6.47z"/>
        </clipPath>
        <clipPath id="r">
            <path d="M472.22 246.37h13.5v-7.83h-13.5z"/>
        </clipPath>
        <clipPath id="s">
            <path d="M478.5 242.72h7.42V172.1h-7.42z"/>
        </clipPath>
        <clipPath id="t">
            <path d="M459.64 212.06h6.4v-47.25h-6.4z"/>
        </clipPath>
        <clipPath id="u">
            <path d="M459.64 216.23h13.5v-7.82h-13.5z"/>
        </clipPath>
        <clipPath id="v">
            <path d="M465.92 212.58h7.35v-47.77h-7.35z"/>
        </clipPath>
        <clipPath id="w">
            <path d="M447.84 221.88h6.46v-63.86h-6.46z"/>
        </clipPath>
        <clipPath id="x">
            <path d="M447.84 226.05h13.51v-7.82h-13.5z"/>
        </clipPath>
        <clipPath id="y">
            <path d="M454.13 222.4h7.4v-64.38h-7.4z"/>
        </clipPath>
        <clipPath id="z">
            <path d="M435.16 228.08h6.5v-77.36h-6.5z"/>
        </clipPath>
        <clipPath id="A">
            <path d="M435.16 232.25h13.51v-7.82h-13.5z"/>
        </clipPath>
        <clipPath id="B">
            <path d="M441.44 228.6h7.44v-77.88h-7.44z"/>
        </clipPath>
        <clipPath id="C">
            <path d="M631.34 126.16h33.82v-19.59h-33.82z"/>
        </clipPath>
        <clipPath id="D">
            <path d="M631.34 126.16h33.82v-19.59h-33.82z"/>
        </clipPath>
        <clipPath id="E">
            <path d="M365.23 222.01h33.82v-19.59h-33.83z"/>
        </clipPath>
        <clipPath id="F">
            <path d="M365.23 222.01h33.82v-19.59h-33.83z"/>
        </clipPath>
    </defs>
    <g clip-path="url(#a)" transform="matrix(1.33333 0 0 -1.33333 -270.38 601.33)">
        <g clip-path="url(#b)">
            <path fill="#8d0ffa" d="M233.75 66.7s-77.8 82.75 13.23 100.53C338 185 399 215 431 318s266 133 266 133l.26-384.55z"/>
        </g>
    </g>
    <g clip-path="url(#c)" transform="matrix(1.33333 0 0 -1.33333 -270.38 601.33)">
        <g clip-path="url(#d)" opacity=".12">
            <path d="M683.97 172.94l-139.71 80.67a1.46 1.46 0 0 1-1.47 0l-26.36-15.33a1.46 1.46 0 0 0-1.46 0l-21.33 12.31c-.45.26-1.01.26-1.46 0l-99.2-57.65a1.46 1.46 0 0 0-1.47 0l-22.66 13.08c-.46.26-1.01.26-1.47 0l-100.05-58.15a1.46 1.46 0 0 1 0-2.52l79.11-45.67a1.46 1.46 0 0 1 1.47 0l93.59 54.39 5.25 3.04a1.46 1.46 0 0 0 1.46 0l21.84-12.6c.97-.56.97-1.96 0-2.52l-13.46-7.82a1.46 1.46 0 0 1 0-2.52l81.37-47.57c.23-.13.48-.2.74-.2h4.64c.25 0 .5.07.73.2l61.42 35.7a1.46 1.46 0 0 1 0 2.51 1.46 1.46 0 0 0 0 2.52l78.49 45.6a1.46 1.46 0 0 1 0 2.53"/>
        </g>
        <path fill="#2c064b" d="M521.39 192.37l-.01-4.15c0-1.1.53-2.04 1.68-2.7l35.82-20.68c5.5-3.33 20.08 3.64 20.43 3.84l26.12 15.18-3.58 2.07-22.53-13.1a36.5 36.5 0 0 0-12-4.44c-2.7-.47-5.74-.58-8.43.6l-35.82 20.69c-1.14.66-1.68 1.59-1.68 2.7z"/>
        <path fill="#37085d" d="M552.17 214.61l-22.53-13.1c-7.46-4.32-10.4-9.62-6.57-11.84L558.89 169c3.83-2.2 12.98-.49 20.43 3.84l22.54 13.1-49.7 28.68z"/>
        <g clip-path="url(#e)">
            <g clip-path="url(#f)">
                <g clip-path="url(#g)">
                    <path fill="#2c064b" d="M664.09 284.22a7.83 7.83 0 0 0 3.55-6.16l-.36-125.8c0-2.27-1.6-3.18-3.57-2.04l-168.13 97.06a7.83 7.83 0 0 0-3.56 6.16l.36 125.8c0 2.27 1.61 3.19 3.58 2.05l168.12-97.07"/>
                    <path fill="#37085d" d="M664.09 284.22a7.83 7.83 0 0 0 3.55-6.16l-.36-125.8c0-2.27-1.6-3.18-3.57-2.04l-168.13 97.06a7.83 7.83 0 0 0-3.56 6.16l.36 125.8c0 2.27 1.61 3.19 3.58 2.05l168.12-97.07"/>
                </g>
                <path fill="#510b83" d="M495.58 247.28a7.83 7.83 0 0 0-3.55 6.16l.35 125.8c0 2.27 1.61 3.18 3.58 2.05l168.13-97.07a7.83 7.83 0 0 0 3.55-6.16l-.36-125.8c0-2.27-1.6-3.18-3.57-2.04zm4.55 141.5h-.03zm175.86-104.52c-1.2 4.17-5.86 6.67-5.94 6.7l-168 97c-4.2 2.28-9 .74-10.69-3.82-.81-2.2-.58-4.47-.6-6.76-.02-.74-.36-121.74-.36-121.75 0-8.31 5.75-10.54 6.24-10.83 0 0 168.67-97.35 168.9-97.47 4.78-2.4 10.85 1.64 10.85 6.9l.02 121.12c0 1.33.07 7.2-.42 8.91"/>
                <g clip-path="url(#h)">
                    <path fill="#37085d" d="M500.13 388.78h-.03a.1.1 0 0 0 .02 0"/>
                </g>
                <g clip-path="url(#i)">
                    <path fill="#37085d" d="M492.19 377.51c-.51.3-1 .45-1.44.48v-.6l-.35-121.76c0-8.31 5.75-10.55 6.24-10.83l166.87-96.3v1.83l-167.93 96.95a7.83 7.83 0 0 0-3.55 6.16l.35 123.96z"/>
                </g>
                <path fill="#37085d" d="M496.35 385l-.02.01h.03-.01m179.64-100.75c-1.2 4.17-5.86 6.67-5.94 6.7l-168 97c-4.02 2.18-8.6.85-10.46-3.29a7.7 7.7 0 0 0 6.68-.49l168-97c.08-.02 4.75-2.52 5.94-6.7.49-1.7.42-7.57.42-8.9l-.01-121.13a6.98 6.98 0 0 0-.72-3.02c2.55 1.25 4.49 3.83 4.49 6.8l.02 121.12c0 1.33.06 7.2-.42 8.9"/>
            </g>
        </g>
        <path fill="#f7d355" d="M560.98 300.74v-.1z"/>
        <g clip-path="url(#j)">
            <g clip-path="url(#k)">
                <g clip-path="url(#l)">
                    <path fill="#37085d" d="M525.23 221.58c.35-.19.36-.63-.21-.97l-85.9-49.92c-.57-.32-1.33-.32-1.66-.12l-41.74 24.1c-.35.2-.36.63.2.96l85.9 49.92c.59.33 1.34.33 1.67.13l41.74-24.1"/>
                </g>
                <path fill="#510b83" d="M481.83 245.55c.57.33 1.33.33 1.66.13l41.74-24.1c.35-.19.36-.63-.21-.97l-85.9-49.92c-.57-.32-1.33-.32-1.66-.12l-41.74 24.1c-.35.2-.36.63.2.96zm-41.03-81.44l85.9 50.14m-85.9-50.14l85.9 50.14m.2 7.17c-13.91 8.9-27.82 16.23-41.74 24.26-.21.12-1.35.8-2.39.8-1.38 0-2.63-.87-2.63-.87-2.58-1.27-85.68-49.78-85.6-49.7-3.17-3.1-2.19-6.07-.51-7.57l41.73-24.1c.55-.31 1.8-.74 2.46-.72 1.32.03 2.58.59 2.58.59l85.9 50.14c5.23 3.07.2 7.17.2 7.17"/>
                <g clip-path="url(#m)">
                    <path fill="#37085d" d="M482.77 246.49a5.27 5.27 0 0 1-2.63-.88c-2.35-1.16-71.31-41.4-83.7-48.6l.93-.54 84.46 49.08c.57.33 1.33.33 1.66.13l40.09-23.15.8.47c-13.07 8.2-26.14 15.13-39.22 22.68-.21.12-1.36.8-2.39.8"/>
                </g>
                <g clip-path="url(#n)">
                    <path fill="#37085d" d="M526.7 217.01l-85.9-50.14s-1.26-.56-2.58-.6c-.66 0-1.91.42-2.45.72l-41.74 24.1a4.82 4.82 0 0 0-1.34 2.03c-.64-2 .18-3.74 1.34-4.78l41.73-24.1c.55-.31 1.8-.74 2.46-.72 1.32.03 2.58.59 2.58.59l85.9 50.14c2.62 1.54 2.66 3.33 2.06 4.74a5.02 5.02 0 0 0-2.06-1.98"/>
                </g>
            </g>
        </g>
        <g fill="#37085d">
            <path d="M396.23 167.88v-1.9c.35-.69.56-1.56.56-2.6 0-3.99-2.8-8.86-6.27-10.86a5.14 5.14 0 0 0-3.47-.8 5.1 5.1 0 0 0-1.04 3.36c0 2.46 1.07 5.26 2.7 7.5a2.62 2.62 0 0 0-1.4.26c-.45.45-.74.9-.9 1.36-1.88-2.58-3.11-5.79-3.1-8.6 0-2.27.8-3.86 2.1-4.61l1.8-1.05c-.1.05-.17.12-.25.18 1.32-.94 3.23-.9 5.36.32 3.97 2.29 7.18 7.86 7.17 12.42-.01 2.87-1.3 4.67-3.26 5.02"/>
            <path d="M384.77 175.52v-1.9c.35-.69.56-1.56.56-2.6 0-3.99-2.8-8.86-6.27-10.86a5.13 5.13 0 0 0-3.47-.8 5.1 5.1 0 0 0-1.04 3.36c0 2.46 1.07 5.26 2.7 7.5a2.6 2.6 0 0 0-1.4.26c-.45.45-.74.9-.9 1.36-1.88-2.58-3.11-5.79-3.1-8.6 0-2.27.8-3.86 2.1-4.61l1.8-1.05c-.1.05-.17.12-.25.18 1.32-.94 3.23-.9 5.36.32 3.97 2.3 7.18 7.86 7.17 12.42-.01 2.87-1.31 4.67-3.26 5.02"/>
            <path d="M373.3 181.89v-1.9c.35-.7.56-1.56.56-2.6.02-3.99-2.8-8.86-6.26-10.86a5.13 5.13 0 0 0-3.47-.8 5.1 5.1 0 0 0-1.04 3.36c0 2.46 1.07 5.25 2.7 7.5a2.6 2.6 0 0 0-1.4.25c-.45.46-.74.91-.9 1.36-1.88-2.57-3.11-5.78-3.1-8.6 0-2.26.8-3.86 2.1-4.6l1.8-1.05c-.1.05-.17.12-.26.17 1.33-.93 3.24-.9 5.37.33 3.97 2.29 7.18 7.86 7.16 12.42 0 2.87-1.3 4.67-3.26 5.02m-12.73 7.64v-1.9c.35-.7.56-1.56.56-2.6.01-3.99-2.8-8.86-6.26-10.86a5.13 5.13 0 0 0-3.48-.8 5.11 5.11 0 0 0-1.03 3.36c-.01 2.46 1.06 5.26 2.7 7.5a2.63 2.63 0 0 0-1.4.25c-.46.46-.74.91-.91 1.36-1.88-2.57-3.1-5.78-3.1-8.6 0-2.26.81-3.85 2.1-4.6l1.8-1.05c-.1.05-.17.12-.25.17 1.32-.93 3.24-.9 5.36.33 3.97 2.29 7.18 7.86 7.17 12.42-.01 2.87-1.3 4.67-3.26 5.02m-12.73 7.64v-1.9c.35-.69.55-1.56.56-2.6 0-3.99-2.8-8.86-6.27-10.86a5.13 5.13 0 0 0-3.47-.8 5.1 5.1 0 0 0-1.04 3.36c0 2.46 1.07 5.26 2.7 7.5a2.63 2.63 0 0 0-1.4.26c-.45.45-.74.9-.9 1.35-1.88-2.57-3.11-5.78-3.1-8.6 0-2.26.8-3.85 2.1-4.6l1.8-1.05c-.1.05-.17.12-.26.17 1.33-.93 3.24-.9 5.37.33 3.97 2.29 7.18 7.86 7.16 12.42 0 2.87-1.3 4.67-3.25 5.02m-12.74 7.64v-1.9c.35-.69.56-1.56.56-2.6.01-3.99-2.8-8.86-6.26-10.86a5.13 5.13 0 0 0-3.48-.8 5.12 5.12 0 0 0-1.03 3.36c-.01 2.46 1.07 5.26 2.7 7.5a2.63 2.63 0 0 0-1.4.26c-.46.45-.74.9-.9 1.36-1.89-2.58-3.12-5.79-3.1-8.6 0-2.27.8-3.86 2.1-4.61l1.79-1.05c-.09.05-.17.12-.25.18 1.32-.94 3.24-.9 5.37.32 3.96 2.3 7.17 7.86 7.16 12.42 0 2.88-1.3 4.67-3.26 5.02m72.59-44.57v-1.9c.35-.7.56-1.56.56-2.6.01-3.99-2.8-8.86-6.27-10.86a5.13 5.13 0 0 0-3.47-.8 5.12 5.12 0 0 0-1.04 3.36c0 2.46 1.07 5.26 2.7 7.5a2.63 2.63 0 0 0-1.4.26c-.45.45-.73.9-.9 1.36-1.88-2.58-3.11-5.79-3.1-8.6 0-2.27.8-3.86 2.1-4.62l1.8-1.04c-.1.05-.17.12-.25.17 1.32-.93 3.23-.9 5.36.33 3.97 2.29 7.18 7.86 7.17 12.42-.01 2.87-1.3 4.67-3.26 5.02"/>
        </g>
        <path fill="#e0bcff" d="M406.58 144.6l-53-30.8a6.67 6.67 0 0 0-6.07 0l-76.16 43.97c-.85.49-1.27 1.13-1.27 1.77l-.01-4.15c0-.64.42-1.28 1.27-1.77l76.16-43.97a6.66 6.66 0 0 1 6.06 0l53 30.8c.84.48 1.25 1.11 1.26 1.74v4.16c0-.64-.4-1.27-1.24-1.75"/>
        <path fill="#f3e5ff" d="M406.56 148.11c1.68-.97 1.7-2.54.02-3.5l-53-30.81a6.67 6.67 0 0 0-6.07 0l-76.16 43.97c-1.68.97-1.7 2.54-.03 3.51l53.01 30.8c1.67.98 4.39.97 6.07 0z"/>
        <path fill="#fff" d="M406.58 150.97l-53-30.8a6.67 6.67 0 0 0-6.07 0l-76.16 43.96c-.85.5-1.27 1.14-1.27 1.78l-.01-4.15c0-.64.42-1.29 1.27-1.78l76.16-43.97a6.66 6.66 0 0 1 6.06 0l53 30.8c.84.49 1.25 1.12 1.26 1.75v4.15c0-.63-.4-1.26-1.24-1.74"/>
        <path fill="#e0bcff" d="M406.58 153.52l-53-30.8a6.67 6.67 0 0 0-6.07 0l-76.16 43.96c-.85.5-1.27 1.14-1.27 1.78l-.01-4.16c0-.64.42-1.28 1.27-1.77l76.16-43.97a6.66 6.66 0 0 1 6.06 0l53 30.8c.84.49 1.25 1.12 1.26 1.75v4.15c0-.63-.4-1.26-1.24-1.74"/>
        <path fill="#f3e5ff" d="M406.56 157.03c1.68-.98 1.7-2.54.02-3.52l-53-30.8a6.67 6.67 0 0 0-6.07 0l-76.16 43.97c-1.68.97-1.7 2.55-.03 3.52l53.01 30.8c1.67.97 4.39.97 6.07 0z"/>
        <path fill="#37085d" d="M407.69 160.5l-.64.37c-1.3.76-3.11.65-5.11-.5a13.7 13.7 0 0 1-4.07-3.81c.16-.46.45-.91.9-1.36a2.63 2.63 0 0 1 1.4-.25 11.96 11.96 0 0 0 3.57 3.34c1.28.74 2.47.96 3.47.77.18-.22.34-.45.48-.71v1.89a3.58 3.58 0 0 0 1.16-.41zm-11.46 7.64l-.64.37c-1.3.76-3.11.65-5.11-.5a13.7 13.7 0 0 1-4.07-3.81c.16-.46.45-.91.9-1.36a2.62 2.62 0 0 1 1.4-.25 11.97 11.97 0 0 0 3.57 3.34c1.29.74 2.47.96 3.47.77a4.01 4.01 0 0 0 .48-.71v1.89a3.59 3.59 0 0 0 1.16-.41zm-11.46 7.64l-.64.37c-1.3.76-3.12.65-5.11-.5a13.7 13.7 0 0 1-4.07-3.81c.16-.46.45-.91.9-1.36a2.6 2.6 0 0 1 1.4-.25 11.97 11.97 0 0 0 3.57 3.34c1.28.74 2.47.96 3.47.77a3.98 3.98 0 0 0 .48-.71v1.89a3.53 3.53 0 0 0 1.15-.42zm-11.46 6.36l-.64.37c-1.3.76-3.12.66-5.11-.5a13.72 13.72 0 0 1-4.07-3.8c.16-.46.45-.91.9-1.37a2.6 2.6 0 0 1 1.4-.24 11.95 11.95 0 0 0 3.56 3.34c1.3.74 2.48.95 3.48.76.17-.21.34-.44.47-.7v1.89a3.53 3.53 0 0 0 1.16-.42zm-12.74 7.65l-.64.37c-1.3.76-3.11.65-5.1-.5a13.7 13.7 0 0 1-4.08-3.82c.17-.45.45-.9.9-1.36a2.63 2.63 0 0 1 1.41-.24 11.96 11.96 0 0 0 3.56 3.34c1.29.74 2.47.96 3.47.76.18-.2.34-.44.48-.7v1.89a3.53 3.53 0 0 0 1.16-.42zm-12.73 7.64l-.64.37c-1.3.76-3.12.65-5.11-.5a13.68 13.68 0 0 1-4.07-3.82c.16-.45.45-.9.9-1.36a2.63 2.63 0 0 1 1.4-.24 11.96 11.96 0 0 0 3.56 3.34c1.3.74 2.48.96 3.48.77.17-.22.34-.45.47-.71v1.89a3.56 3.56 0 0 0 1.16-.42zm-12.74 7.64l-.64.37c-1.3.76-3.11.65-5.1-.5a13.7 13.7 0 0 1-4.08-3.82c.17-.45.45-.9.9-1.35a2.63 2.63 0 0 1 1.41-.25 11.96 11.96 0 0 0 3.56 3.34c1.29.74 2.47.96 3.47.77.18-.22.35-.45.48-.71v1.89a3.56 3.56 0 0 0 1.16-.42zM334.29 187.42l-44.02-25.58-9.6 5.54 44.02 25.58zm-2.21-10.36l-24.53-14.26-3.17 1.83 24.54 14.26z"/>
        <path fill="#ebd6fe" d="M482.18 126.3v-2.08c0-.63.41-1.27 1.25-1.75L537.95 91a6.6 6.6 0 0 1 5.98 0l34.42 20c.82.48 1.23 1.1 1.24 1.73v1.09l1.45.84c.81.47 1.22 1.1 1.22 1.72v2.07c0-.62-.4-1.24-1.22-1.72l-1.75-1.01v-1.82c-.2-.3-.52-.58-.93-.82l-34.42-20a6.58 6.58 0 0 0-5.98 0l-54.53 31.48c-.83.48-1.25 1.11-1.25 1.74z"/>
        <path fill="#fff" d="M520.83 148.74a6.09 6.09 0 0 1-3-.72l-34.42-20c-1.64-.96-1.64-2.51.02-3.47l54.53-31.48a6.58 6.58 0 0 1 5.98 0l34.42 20c1.23.72 1.54 1.76.93 2.64l1.75 1.01c1.65.96 1.63 2.52-.03 3.47l-27.41 15.83a6.59 6.59 0 0 1-5.98 0l-1.5-.87-22.3 12.87a6.1 6.1 0 0 1-3 .72z"/>
        <path fill="#6908af" d="M516.74 136.8l-22.84-13.28-2.1 1.2 22.85 13.29zm.35-9.48l-15.9-9.25-2.09 1.2 15.9 9.25zm8.8 9.94l-28.4-16.5-2.08 1.2 28.39 16.5z"/>
    </g>
</svg>
