<?xml version="1.0" encoding="UTF-8" standalone="no"?>
<svg
   xmlns:dc="http://purl.org/dc/elements/1.1/"
   xmlns:cc="http://creativecommons.org/ns#"
   xmlns:rdf="http://www.w3.org/1999/02/22-rdf-syntax-ns#"
   xmlns:svg="http://www.w3.org/2000/svg"
   xmlns="http://www.w3.org/2000/svg"
   xmlns:sodipodi="http://sodipodi.sourceforge.net/DTD/sodipodi-0.dtd"
   xmlns:inkscape="http://www.inkscape.org/namespaces/inkscape"
   width="331.9111"
   height="186.7"
   viewBox="0 0 87.822221 49.4"
   version="1.1"
   id="svg20"
   sodipodi:docname="restaurant-reviews.svg"
   inkscape:version="0.92.2 (5c3e80d, 2017-08-06)"
   inkscape:export-filename="D:\Web-Projects\gatsby-may\src\images\restaurant-reviews.png"
   inkscape:export-xdpi="357.66223"
   inkscape:export-ydpi="357.66223">
  <metadata
     id="metadata26">
    <rdf:RDF>
      <cc:Work
         rdf:about="">
        <dc:format>image/svg+xml</dc:format>
        <dc:type
           rdf:resource="http://purl.org/dc/dcmitype/StillImage" />
        <dc:title />
      </cc:Work>
    </rdf:RDF>
  </metadata>
  <defs
     id="defs24" />
  <sodipodi:namedview
     pagecolor="#ffffff"
     bordercolor="#666666"
     borderopacity="1"
     objecttolerance="10"
     gridtolerance="10"
     guidetolerance="10"
     inkscape:pageopacity="0"
     inkscape:pageshadow="2"
     inkscape:window-width="1920"
     inkscape:window-height="1017"
     id="namedview22"
     showgrid="false"
     inkscape:zoom="1.7876508"
     inkscape:cx="112.27184"
     inkscape:cy="137.7983"
     inkscape:window-x="-8"
     inkscape:window-y="-8"
     inkscape:window-maximized="1"
     inkscape:current-layer="svg20"
     fit-margin-top="0"
     fit-margin-left="0"
     fit-margin-right="0"
     fit-margin-bottom="0" />
  <g
     transform="translate(-0.69999999,-246.89999)"
     id="g6"
     style="fill-rule:evenodd">
    <rect
       width="87.82222"
       height="49.400002"
       x="0.69999999"
       y="246.89999"
       ry="0"
       id="rect2"
       style="fill:#252831" />
  </g>
  <path
     sodipodi:nodetypes="ccccccccc"
     style="opacity:0.3;stroke-width:1"
     inkscape:connector-curvature="0"
     id="path4"
     d="m 54.54739,9.7499987 -9.4,25.4999993 -1,8.700003 7.1,7.199998 H 63.947393 L 96.587223,50.850421 92.908763,47.452339 54.44739,9.8499987 Z" />
  <g
     id="g18"
     style="fill:#ffffff"
     transform="translate(1.1920929e-8,6.1035156e-6)" />
  <g
     id="g3079"
     transform="translate(131.0033,36.033031)">
    <path
       sodipodi:nodetypes="ccccc"
       style="fill:#d1481c;stroke-width:1"
       inkscape:connector-curvature="0"
       id="path8"
       class="st0"
       d="m -86.85591,7.9169696 c -6.485691,-7.86168802 -14.56748,-13.496782 -14.9,-23.7999996 0.15948,-8.0516 6.6484,-14.540516 14.7,-14.7 8.1,0 14.6,6.7 14.6,14.6 -0.401349,9.3180666 -8.349662,17.2501906 -14.4,23.8999996 z" />
    <path
       sodipodi:nodetypes="ccccccccc"
       style="opacity:0.3;stroke:#000000;stroke-width:0.1"
       inkscape:connector-curvature="0"
       id="path10"
       d="m -75.85591,-23.68303 -9,7.7 -3.7,-3.7 -4,4.5 3.2,3.4 -4.399999,4.9999996 10.499999,10.600001 c 6.500756,-7.188668 13.068524,-16.0285086 10.000001,-24.9000006 z" />
    <path
       id="path12"
       d="m -85.05591,-13.88303 -1.3,-1.5 c 3,-1.9 5.3,-8.7 10.5,-8.3 0.599999,0.599999 -9.2,9.8 -9.2,9.8 z"
       style="fill:#ffffff;stroke-width:1"
       inkscape:connector-curvature="0" />
    <path
       id="path14"
       d="m -79.45591,-8.1830304 a 1.3086253,1.3086253 0 0 1 -1.8,1.9 c -2.1,-2.7 -4,-4.6999996 -5.5,-5.9999996 a 32,32 0 0 0 -3.2,-2.6 c -0.8,-0.5 -1.7,0 -2.6,-0.3 -1,-0.3 -6.2,-6.7 -6.2,-6.7 0,-0.5 0.2,-0.7 0.6,-0.6 0,0 4.8,4.8 5.2,4.8 0.2,0.1 0.600001,-0.3 0.5,-0.5 0,-0.2 -4.4,-4.900001 -4.8,-5.3 -0.1,-0.4 0.2,-0.7 0.7,-0.6 0,0 4.8,5 5.2,5 0.2,0.1 0.6,-0.4 0.5,-0.6 -0.1,-0.3 -5,-5.3 -5,-5.3 0,-0.400001 0.2,-0.7 0.8,-0.6 0,0 6.5,5.5 6.6,6.3 0.2,1 0,1.6 0.4,2.4 l 1,1.3 1.7,2 c 1.4,1.5 3.3,3.3 6,5.3999996 z"
       inkscape:connector-curvature="0"
       style="fill:#ffffff;fill-opacity:1;stroke-width:1" />
    <path
       id="path16"
       d="m -91.955909,-6.7830304 c -0.500001,0.5 -1.400001,0.5 -1.900001,0 -0.5,-0.5 -0.5,-1.4 0,-1.9 l 3.7,-2.7999996 1.8,-1.7 1.4,1.3 z"
       style="fill:#ffffff;fill-opacity:1;stroke-width:1"
       inkscape:connector-curvature="0" />
  </g>
</svg>
