<svg xmlns="http://www.w3.org/2000/svg" width="1330" height="800" viewBox="0 0 351.9 211.67"><g fill="#a600ff"><path d="M105.07 180.14a8.89 8.89 0 0 0-.02-2.14l2.35-1.82c.2-.16.26-.46.13-.7l-2.21-3.8a.57.57 0 0 0-.68-.25l-2.77 1.1a7.88 7.88 0 0 0-1.87-1.07l-.41-2.92a.55.55 0 0 0-.56-.46H94.6c-.28 0-.5.19-.54.46l-.41 2.92a8.3 8.3 0 0 0-1.88 1.07l-2.76-1.1a.55.55 0 0 0-.68.25l-2.22 3.8a.53.53 0 0 0 .14.7L88.6 178a6.85 6.85 0 0 0-.02 2.14l-2.34 1.82a.56.56 0 0 0-.14.7l2.22 3.8c.14.25.43.33.68.25l2.76-1.1c.58.44 1.2.8 1.87 1.07l.42 2.92c.05.27.27.47.55.47h4.44c.28 0 .51-.2.54-.47l.42-2.92c.68-.27 1.3-.64 1.87-1.07l2.76 1.1c.25.1.54 0 .68-.25l2.22-3.8a.53.53 0 0 0-.14-.7zm-8.26 3.05a4.15 4.15 0 0 1-4.16-4.12 4.15 4.15 0 0 1 8.32 0 4.15 4.15 0 0 1-4.16 4.12z"/><path d="M113.74 193.35a5.47 5.47 0 0 0 0-1.32l1.44-1.12c.12-.1.16-.29.08-.43l-1.36-2.34a.35.35 0 0 0-.42-.16l-1.7.68a5.11 5.11 0 0 0-1.16-.66l-.25-1.8a.34.34 0 0 0-.34-.28h-2.74c-.17 0-.3.12-.33.29l-.26 1.8c-.41.16-.8.39-1.15.65l-1.7-.68a.34.34 0 0 0-.42.16l-1.36 2.34a.33.33 0 0 0 .08.43l1.45 1.12a4.21 4.21 0 0 0-.01 1.32l-1.45 1.11a.35.35 0 0 0-.08.44l1.37 2.34c.08.15.26.2.41.15l1.7-.67c.36.27.74.49 1.16.66l.25 1.79c.04.17.17.29.34.29h2.74c.17 0 .31-.12.33-.3l.26-1.78c.41-.17.8-.4 1.15-.66l1.7.67c.15.06.33 0 .42-.15l1.36-2.34a.33.33 0 0 0-.08-.44zm-5.08 1.88a2.56 2.56 0 0 1-2.56-2.54 2.56 2.56 0 0 1 5.12 0c0 1.4-1.15 2.54-2.56 2.54z"/></g></svg>