<svg xmlns="http://www.w3.org/2000/svg" width="1330" height="800" viewBox="0 0 351.9 211.67"><path d="M9.13 10.96V26.7v15.8a391.9 391.9 0 0 0 8.06.04c.01 0 .03-2.44.04-5.42l.02-5.42 3.41-.02c3.15-.02 3.47-.03 4.04-.11a7.7 7.7 0 0 0 2-.44c.03-.03.57-1.62 1.2-3.53l1.87-5.74c1.76-5.37 2.07-6.33 2.07-6.4 0-.12-.16-.37-.57-.87-1.65-2.05-3.9-3.2-7.06-3.57-.58-.07-1.13-.07-7.85-.07H9.13zm8.1 6.13h1.91c1.06 0 2.09.02 2.3.04 1.07.12 1.9.41 2.5.88a3.92 3.92 0 0 1 1.34 3.24c0 .7-.01.93-.08 1.21-.15.72-.43 1.3-.85 1.8-.62.75-1.69 1.16-3.27 1.28-.62.05-3.78.06-3.82.01-.02-.01-.03-1.92-.03-4.24v-4.22z" opacity=".89"/></svg>