<?xml version="1.0" encoding="UTF-8" standalone="no"?>
<!-- Created with Inkscape (http://www.inkscape.org/) -->

<svg
   xmlns:dc="http://purl.org/dc/elements/1.1/"
   xmlns:cc="http://creativecommons.org/ns#"
   xmlns:rdf="http://www.w3.org/1999/02/22-rdf-syntax-ns#"
   xmlns:svg="http://www.w3.org/2000/svg"
   xmlns="http://www.w3.org/2000/svg"
   xmlns:sodipodi="http://sodipodi.sourceforge.net/DTD/sodipodi-0.dtd"
   xmlns:inkscape="http://www.inkscape.org/namespaces/inkscape"
   sodipodi:docname="slide-reliability-top-right.svg"
   inkscape:version="0.92.2 (5c3e80d, 2017-08-06)"
   id="svg8"
   version="1.1"
   viewBox="0 0 351.89582 211.66667"
   height="800"
   width="1330">
  <sodipodi:namedview
     inkscape:object-nodes="false"
     guidehiopacity="0.49803922"
     guidehicolor="#00e676"
     guideopacity="0.49803922"
     guidecolor="#ff6d00"
     inkscape:guide-bbox="true"
     showguides="true"
     inkscape:showpageshadow="false"
     fit-margin-bottom="0"
     fit-margin-right="0"
     fit-margin-left="0"
     fit-margin-top="0"
     inkscape:window-maximized="1"
     inkscape:window-y="-8"
     inkscape:window-x="-8"
     inkscape:window-height="1017"
     inkscape:window-width="1920"
     inkscape:snap-path-mask="false"
     inkscape:snap-path-clip="false"
     objecttolerance="20"
     units="px"
     showborder="true"
     showgrid="false"
     inkscape:current-layer="layer1"
     inkscape:document-units="px"
     inkscape:cy="160.09751"
     inkscape:cx="246.34345"
     inkscape:zoom="0.35355339"
     inkscape:pageshadow="2"
     inkscape:pageopacity="0"
     borderopacity="1"
     bordercolor="#b4b4b4"
     pagecolor="#ffffff"
     id="base" />
  <defs
     id="defs2">
    <clipPath
       id="b">
      <path
         d="M 0,1000 H 1333.3 V 0 H 0 Z"
         id="path5727"
         inkscape:connector-curvature="0" />
    </clipPath>
    <filter
       id="d"
       width="1.054"
       height="1.027"
       x="-0.027000001"
       y="-0.014"
       style="color-interpolation-filters:sRGB">
      <feGaussianBlur
         stdDeviation="5.819"
         id="feGaussianBlur5730" />
    </filter>
    <filter
       id="c"
       width="1.054"
       height="1.027"
       x="-0.027000001"
       y="-0.014"
       style="color-interpolation-filters:sRGB">
      <feGaussianBlur
         stdDeviation="5.804"
         id="feGaussianBlur5733" />
    </filter>
    <filter
       id="a"
       width="1.1619999"
       height="1.081"
       x="-0.081"
       y="-0.041000001"
       style="color-interpolation-filters:sRGB">
      <feGaussianBlur
         stdDeviation="17.412"
         id="feGaussianBlur5736" />
    </filter>
    <filter
       id="e"
       width="1.3107001"
       height="3.796"
       x="-0.15530001"
       y="-1.398"
       style="color-interpolation-filters:sRGB">
      <feGaussianBlur
         stdDeviation="33.5779"
         id="feGaussianBlur5739" />
    </filter>
  </defs>
  <metadata
     id="metadata5">
    <rdf:RDF>
      <cc:Work
         rdf:about="">
        <dc:format>image/svg+xml</dc:format>
        <dc:type
           rdf:resource="http://purl.org/dc/dcmitype/StillImage" />
        <dc:title></dc:title>
      </cc:Work>
    </rdf:RDF>
  </metadata>
  <g
     transform="translate(-163.23636,-33.221958)"
     id="layer1"
     inkscape:groupmode="layer"
     inkscape:label="Layer 1">
    <text
       xml:space="preserve"
       style="font-style:normal;font-variant:normal;font-weight:bold;font-stretch:normal;font-size:30.47999954px;line-height:1.25;font-family:'SF Burlington Script';-inkscape-font-specification:'SF Burlington Script Bold';letter-spacing:0px;word-spacing:0px;fill:#000000;fill-opacity:1;stroke:none;stroke-width:0.26458332"
       x="494.16785"
       y="139.48601"
       id="text13517"><tspan
         sodipodi:role="line"
         id="tspan13515"
         x="494.16785"
         y="166.85478"
         style="stroke-width:0.26458332" /></text>
    <text
       xml:space="preserve"
       style="font-style:normal;font-variant:normal;font-weight:bold;font-stretch:normal;font-size:25.39999962px;line-height:1.25;font-family:Roboto;-inkscape-font-specification:'Roboto Bold';letter-spacing:0px;word-spacing:0px;fill:#000000;fill-opacity:1;stroke:none;stroke-width:0.26458332"
       x="624.46863"
       y="235.13847"
       id="text13574"><tspan
         sodipodi:role="line"
         id="tspan13572"
         x="624.46863"
         y="257.36346"
         style="stroke-width:0.26458332" /></text>
    <text
       xml:space="preserve"
       style="font-style:normal;font-variant:normal;font-weight:bold;font-stretch:normal;font-size:5.92666626px;line-height:1.25;font-family:Roboto;-inkscape-font-specification:'Roboto Bold';letter-spacing:0px;word-spacing:0px;fill:#000000;fill-opacity:1;stroke:none;stroke-width:0.26458332"
       x="320.06525"
       y="100.12349"
       id="text4979"><tspan
         sodipodi:role="line"
         id="tspan4977"
         x="320.06525"
         y="105.30933"
         style="stroke-width:0.26458332" /></text>
    <text
       xml:space="preserve"
       style="font-style:normal;font-variant:normal;font-weight:bold;font-stretch:normal;font-size:5.92666626px;line-height:1.25;font-family:Roboto;-inkscape-font-specification:'Roboto Bold';letter-spacing:0px;word-spacing:0px;fill:#000000;fill-opacity:1;stroke:none;stroke-width:0.26458332"
       x="249.25262"
       y="83.515175"
       id="text5023"><tspan
         sodipodi:role="line"
         id="tspan5021"
         x="249.25262"
         y="88.701004"
         style="stroke-width:0.26458332" /></text>
    <g
       style="stroke-width:1.71531618"
       id="g8039"
       transform="matrix(0.15424755,0,0,0.15424755,534.40861,-149.88014)">
      <g
         style="stroke-width:1.71531618"
         id="g8037" />
    </g>
    <g
       style="stroke-width:1.71531618"
       id="g8047"
       transform="matrix(0.15424755,0,0,0.15424755,534.40861,-149.88014)" />
    <g
       style="stroke-width:1.71531618"
       id="g8049"
       transform="matrix(0.15424755,0,0,0.15424755,534.40861,-149.88014)" />
    <g
       style="stroke-width:1.71531618"
       id="g8051"
       transform="matrix(0.15424755,0,0,0.15424755,534.40861,-149.88014)" />
    <g
       style="stroke-width:1.71531618"
       id="g8053"
       transform="matrix(0.15424755,0,0,0.15424755,534.40861,-149.88014)" />
    <g
       style="stroke-width:1.71531618"
       id="g8055"
       transform="matrix(0.15424755,0,0,0.15424755,534.40861,-149.88014)" />
    <g
       style="stroke-width:1.71531618"
       id="g8057"
       transform="matrix(0.15424755,0,0,0.15424755,534.40861,-149.88014)" />
    <g
       style="stroke-width:1.71531618"
       id="g8059"
       transform="matrix(0.15424755,0,0,0.15424755,534.40861,-149.88014)" />
    <g
       style="stroke-width:1.71531618"
       id="g8061"
       transform="matrix(0.15424755,0,0,0.15424755,534.40861,-149.88014)" />
    <g
       style="stroke-width:1.71531618"
       id="g8063"
       transform="matrix(0.15424755,0,0,0.15424755,534.40861,-149.88014)" />
    <g
       style="stroke-width:1.71531618"
       id="g8065"
       transform="matrix(0.15424755,0,0,0.15424755,534.40861,-149.88014)" />
    <g
       style="stroke-width:1.71531618"
       id="g8067"
       transform="matrix(0.15424755,0,0,0.15424755,534.40861,-149.88014)" />
    <g
       style="stroke-width:1.71531618"
       id="g8069"
       transform="matrix(0.15424755,0,0,0.15424755,534.40861,-149.88014)" />
    <g
       style="stroke-width:1.71531618"
       id="g8071"
       transform="matrix(0.15424755,0,0,0.15424755,534.40861,-149.88014)" />
    <g
       style="stroke-width:1.71531618"
       id="g8073"
       transform="matrix(0.15424755,0,0,0.15424755,534.40861,-149.88014)" />
    <g
       style="stroke-width:1.71531618"
       id="g8075"
       transform="matrix(0.15424755,0,0,0.15424755,534.40861,-149.88014)" />
    <g
       id="g8411"
       transform="matrix(0.71248738,0,0,0.70590476,50.552884,119.23896)"
       style="stroke-width:1.41006255">
      <g
         id="g8391"
         style="stroke-width:1.41006255">
        <path
           id="path7737"
           d="m 552.04792,-94.17151 h -3.78447 c -0.97964,0 -1.77396,-0.79431 -1.77396,-1.77395 0,-0.97965 0.79432,-1.77396 1.77396,-1.77396 h 3.78447 c 0.97964,0 1.77395,0.79431 1.77395,1.77396 0,0.97964 -0.79419,1.77395 -1.77395,1.77395 z"
           style="fill:#29ccb1;stroke-width:0.37307903"
           inkscape:connector-curvature="0" />
        <g
           transform="matrix(0.11634674,0,0,0.11665609,496.88757,-110.3854)"
           style="stroke:#2ad4ff;stroke-width:3.2023592"
           id="g8021">
          <g
             style="stroke:#2ad4ff;stroke-width:3.2023592"
             id="g8019">
            <path
               style="color:#000000;font-style:normal;font-variant:normal;font-weight:normal;font-stretch:normal;font-size:medium;line-height:normal;font-family:sans-serif;font-variant-ligatures:normal;font-variant-position:normal;font-variant-caps:normal;font-variant-numeric:normal;font-variant-alternates:normal;font-feature-settings:normal;text-indent:0;text-align:start;text-decoration:none;text-decoration-line:none;text-decoration-style:solid;text-decoration-color:#000000;letter-spacing:normal;word-spacing:normal;text-transform:none;writing-mode:lr-tb;direction:ltr;text-orientation:mixed;dominant-baseline:auto;baseline-shift:baseline;text-anchor:start;white-space:normal;shape-padding:0;clip-rule:nonzero;display:inline;overflow:visible;visibility:visible;opacity:1;isolation:auto;mix-blend-mode:normal;color-interpolation:sRGB;color-interpolation-filters:linearRGB;solid-color:#000000;solid-opacity:1;vector-effect:none;fill:#ebd4f4;fill-opacity:1;fill-rule:nonzero;stroke:none;stroke-width:11.32420635;stroke-linecap:butt;stroke-linejoin:miter;stroke-miterlimit:4;stroke-dasharray:none;stroke-dashoffset:0;stroke-opacity:1;color-rendering:auto;image-rendering:auto;shape-rendering:auto;text-rendering:auto;enable-background:accumulate"
               d="m 1007.1797,-268.89844 c -5.0458,0 -9.62517,4.19652 -10.03517,9.15821 -0.0649,0.78534 -0.16523,1.55098 -0.25976,2.32031 4.80193,0.88528 9.18983,3.20603 12.69723,6.77539 4.473,4.55194 6.9083,10.5077 6.9102,16.90039 v 0.002 2.23242 c 0,13.205 -2.8282,22.27229 -8.4395,32.45704 l -3.2871,5.96484 h 37.4082 7.0762 c 9.2866,0 16.7773,7.5106 16.7773,16.82227 0,4.49 -1.7493,8.53133 -4.6093,11.55664 l -2.5703,2.71875 2.5234,2.76171 c 2.7384,2.99992 4.4023,6.95894 4.4023,11.34375 0,6.09384 -3.228,11.39888 -8.0507,14.35938 l -3.3711,2.06836 2.0156,3.41015 c 1.4817,2.50713 2.3301,5.40994 2.3301,8.54102 0,6.09384 -3.2281,11.39888 -8.0508,14.35938 l -3.3711,2.07031 c 2.3966,3.662535 4.3048,8.161785 4.3437,11.95117 0,1.836868 -0.3479,3.780026 -0.9531,5.683594 8.6568,-0.681372 15.4395,-7.894992 15.4395,-16.753904 0,-3.13078 -0.8485,-6.03543 -2.3301,-8.54297 l -2.0137,-3.4082 3.3711,-2.07032 c 4.8227,-2.96049 8.0488,-8.26553 8.0488,-14.35937 0,-3.13108 -0.8464,-6.03389 -2.3281,-8.54102 l -2.0156,-3.41015 3.3711,-2.07032 c 4.8227,-2.96049 8.0488,-8.26553 8.0488,-14.35937 0,-4.38481 -1.6639,-8.34188 -4.4023,-11.3418 l -2.5215,-2.76367 2.5683,-2.7168 c 2.8601,-3.0253 4.6094,-7.06858 4.6094,-11.55859 0,-9.31167 -7.4888,-16.82031 -16.7754,-16.82031 h -7.0781 -37.4062 l 3.2851,-5.96485 c 5.6113,-10.18475 8.4414,-19.25399 8.4414,-32.45898 v -2.23047 -0.002 c 0,-6.39269 -2.4371,-12.35041 -6.9101,-16.90235 -4.4679,-4.54674 -10.3646,-7.07665 -16.7266,-7.17968 -0.07,-8.9e-4 -0.1229,-0.002 -0.1602,-0.002 z"
               id="path8422"
               inkscape:connector-curvature="0"
               sodipodi:nodetypes="scccccscccsscccscccsccccscccscccscccsscccsccccss"
               transform="matrix(2.2653165,0,0,2.2593093,-1953.2236,695.42157)" />
            <path
               inkscape:connector-curvature="0"
               id="path8017"
               d="m 328.35938,69.728516 c -21.06379,0 -39.10257,16.363441 -40.8418,37.355464 v 0.002 c -2.95184,35.63041 -21.36387,62.42153 -45.70508,83.91601 -24.34121,21.49448 -54.46604,37.12282 -79.05078,49.07813 l -4.99219,2.42773 -5.20508,249.11719 5.5918,2.42969 c 55.02314,23.9012 103.29956,27.02929 157.04297,27.02929 9.17879,0 18.53724,-0.0887 28.13086,-0.17968 10.60934,-0.10001 21.54891,-0.20313 32.99414,-0.20313 h 47.51562 c 30.89207,0 56.17188,-25.28085 56.17188,-56.17187 0,-7.44158 -1.51727,-14.56002 -4.17188,-21.08985 12.31566,-10.32038 20.20118,-25.79011 20.20118,-43.03125 0,-7.44195 -1.51641,-14.55892 -4.17188,-21.08984 12.31577,-10.32039 20.20313,-25.78807 20.20313,-43.0293 0,-11.75059 -3.78534,-22.62436 -10.00391,-31.66992 6.55838,-9.19303 10.57812,-20.35114 10.57812,-32.45117 0,-30.89207 -25.28085,-56.17188 -56.17187,-56.17188 h -16.03125 -54.64844 c 9.42233,-20.54722 14.64063,-41.94116 14.64063,-68.64062 v -5.04102 -0.01 -0.002 C 400.42985,123.1818 392.97584,104.99085 379.55664,91.371094 366.1467,77.760615 348.08511,70.03099 328.98242,69.732422 h -0.0156 -0.0137 c -0.16047,-0.002 -0.35804,-0.0039 -0.59374,-0.0039 z m 0,18.167968 c 0.0843,0 0.20766,0.0019 0.36718,0.0039 14.412,0.232785 27.76559,5.950166 37.88672,16.222656 10.1328,10.28424 15.64999,23.74248 15.6543,38.18554 v 0.006 5.04102 c 0,29.83417 -6.4098,50.32153 -19.1211,73.33203 l -7.44336,13.47656 h 84.74024 16.03125 c 21.03698,0 38.00391,16.96597 38.00391,38.00391 0,10.14432 -3.96244,19.27819 -10.44141,26.11328 l -5.82031,6.14063 5.71289,6.24218 c 6.20342,6.77774 9.97265,15.71835 9.97265,25.625 0,13.76787 -7.30944,25.75468 -18.23437,32.44336 l -7.63672,4.67578 4.56641,7.70313 c 3.35649,5.66438 5.27539,12.22279 5.27539,19.29687 0,13.76787 -7.30945,25.75468 -18.23438,32.44336 l -7.63672,4.67578 4.56446,7.70313 c 3.35624,5.66532 5.27539,12.22544 5.27539,19.29883 0,21.03698 -16.96402,38.0039 -38.00196,38.0039 h -47.51562 c -11.55477,0 -22.5554,0.10313 -33.16406,0.20313 h -0.002 c -9.59368,0.091 -18.89641,0.17969 -27.95898,0.17969 -51.12399,0 -94.57366,-2.89832 -144.21094,-23.31446 l 4.71289,-225.68359 c 24.08084,-11.84015 53.20497,-27.28288 78.13672,-49.29883 26.61379,-23.50127 48.37599,-54.88261 51.78516,-96.0332 0.92877,-11.209973 11.30611,-20.689453 22.73633,-20.689453 z"
               style="color:#000000;font-style:normal;font-variant:normal;font-weight:normal;font-stretch:normal;font-size:medium;line-height:normal;font-family:sans-serif;font-variant-ligatures:normal;font-variant-position:normal;font-variant-caps:normal;font-variant-numeric:normal;font-variant-alternates:normal;font-feature-settings:normal;text-indent:0;text-align:start;text-decoration:none;text-decoration-line:none;text-decoration-style:solid;text-decoration-color:#000000;letter-spacing:normal;word-spacing:normal;text-transform:none;writing-mode:lr-tb;direction:ltr;text-orientation:mixed;dominant-baseline:auto;baseline-shift:baseline;text-anchor:start;white-space:normal;shape-padding:0;clip-rule:nonzero;display:inline;overflow:visible;visibility:visible;opacity:1;isolation:auto;mix-blend-mode:normal;color-interpolation:sRGB;color-interpolation-filters:linearRGB;solid-color:#000000;solid-opacity:1;vector-effect:none;fill:#a600ff;fill-opacity:1;fill-rule:nonzero;stroke:none;stroke-width:25.6188755;stroke-linecap:butt;stroke-linejoin:miter;stroke-miterlimit:4;stroke-dasharray:none;stroke-dashoffset:0;stroke-opacity:1;color-rendering:auto;image-rendering:auto;shape-rendering:auto;text-rendering:auto;enable-background:accumulate" />
          </g>
        </g>
        <path
           id="path7739"
           d="m 525.55675,-94.17151 h -3.78447 c -0.97964,0 -1.77395,-0.79431 -1.77395,-1.77395 0,-0.97965 0.79431,-1.77396 1.77395,-1.77396 h 3.78447 c 0.97964,0 1.77396,0.79431 1.77396,1.77396 0,0.97964 -0.79408,1.77395 -1.77396,1.77395 z"
           style="fill:#29ccb1;stroke-width:0.37307903"
           inkscape:connector-curvature="0" />
        <path
           id="path7741"
           d="m 531.23523,-104.00346 c -0.61324,0 -1.20936,-0.31812 -1.53787,-0.88721 l -1.89224,-3.27747 c -0.48988,-0.84838 -0.19913,-1.93343 0.64924,-2.4232 0.84838,-0.48988 1.93343,-0.19914 2.4232,0.64924 l 1.89223,3.27747 c 0.48988,0.84838 0.19914,1.93344 -0.64924,2.4232 -0.27929,0.16136 -0.58443,0.23797 -0.88532,0.23797 z"
           style="fill:#29ccb1;stroke-width:0.37307903"
           inkscape:connector-curvature="0" />
        <path
           id="path7743"
           d="m 542.58509,-104.00346 c -0.30101,0 -0.60603,-0.0766 -0.88532,-0.23797 -0.84838,-0.48988 -1.13912,-1.57482 -0.64924,-2.4232 l 1.89223,-3.27747 c 0.48977,-0.84838 1.57482,-1.13935 2.4232,-0.64924 0.84838,0.48988 1.13912,1.57482 0.64924,2.4232 l -1.89224,3.27747 c -0.32828,0.56909 -0.92475,0.88721 -1.53787,0.88721 z"
           style="fill:#29ccb1;stroke-width:0.37307903"
           inkscape:connector-curvature="0" />
        <path
           inkscape:connector-curvature="0"
           id="SVGCleanerId_0"
           style="fill:#73c3ff;stroke-width:0.37307903"
           d="m 508.40848,-59.756803 v 9.342894 h -3.54791 v -9.342894 c 0,-0.979169 0.79479,-1.773955 1.77396,-1.773955 0.97916,0 1.77395,0.794786 1.77395,1.773955 z" />
        <path
           id="path7748"
           d="m 552.04792,-94.17151 h -3.78447 c -0.97964,0 -1.77396,-0.79431 -1.77396,-1.77395 0,-0.97965 0.79432,-1.77396 1.77396,-1.77396 h 3.78447 c 0.97964,0 1.77395,0.79431 1.77395,1.77396 0,0.97964 -0.79419,1.77395 -1.77395,1.77395 z"
           style="fill:#59ff00;fill-opacity:1;stroke-width:0.37307903"
           inkscape:connector-curvature="0" />
        <path
           id="path7750"
           d="m 525.55675,-94.17151 h -3.78447 c -0.97964,0 -1.77395,-0.79431 -1.77395,-1.77395 0,-0.97965 0.79431,-1.77396 1.77395,-1.77396 h 3.78447 c 0.97964,0 1.77396,0.79431 1.77396,1.77396 0,0.97964 -0.79408,1.77395 -1.77396,1.77395 z"
           style="fill:#59ff00;fill-opacity:1;stroke-width:0.37307903"
           inkscape:connector-curvature="0" />
        <path
           id="path7752"
           d="m 531.23523,-104.00346 c -0.61324,0 -1.20936,-0.31812 -1.53787,-0.88721 l -1.89224,-3.27747 c -0.48988,-0.84838 -0.19913,-1.93343 0.64924,-2.4232 0.84838,-0.48988 1.93343,-0.19914 2.4232,0.64924 l 1.89223,3.27747 c 0.48988,0.84838 0.19914,1.93344 -0.64924,2.4232 -0.27929,0.16136 -0.58443,0.23797 -0.88532,0.23797 z"
           style="fill:#59ff00;fill-opacity:1;stroke-width:0.37307903"
           inkscape:connector-curvature="0" />
        <path
           id="path7754"
           d="m 542.58509,-104.00346 c -0.30101,0 -0.60603,-0.0766 -0.88532,-0.23797 -0.84838,-0.48988 -1.13912,-1.57482 -0.64924,-2.4232 l 1.89223,-3.27747 c 0.48977,-0.84838 1.57482,-1.13935 2.4232,-0.64924 0.84838,0.48988 1.13912,1.57482 0.64924,2.4232 l -1.89224,3.27747 c -0.32828,0.56909 -0.92475,0.88721 -1.53787,0.88721 z"
           style="fill:#59ff00;fill-opacity:1;stroke-width:0.37307903"
           inkscape:connector-curvature="0" />
        <path
           d="m 508.40848,-59.756803 v 9.342894 h -3.54791 v -9.342894 c 0,-0.979169 0.79479,-1.773955 1.77396,-1.773955 0.97916,0 1.77395,0.794786 1.77395,1.773955 z"
           style="fill:#73c3ff;stroke-width:0.37307903"
           id="SVGCleanerId_0_1_"
           inkscape:connector-curvature="0" />
        <path
           inkscape:connector-curvature="0"
           style="fill:#a600ff;fill-opacity:1;stroke-width:0.37307903"
           d="M 514.20346,-84.259883 H 499.0657 c -0.97916,0 -1.77395,0.794786 -1.77395,1.773955 v 30.275517 c 0,0.98035 0.79479,1.773955 1.77395,1.796384 h 11.35329 c 2.17483,-0.02243 4.06117,-1.277229 4.97305,-3.100881 0.37491,-0.74627 0.58538,-1.589453 0.58538,-2.479972 v -26.491048 c 0,-0.979287 -0.79479,-1.773955 -1.77396,-1.773955 z"
           id="path7761" />
        <path
           inkscape:connector-curvature="0"
           style="fill:#dea0ff;fill-opacity:1;stroke-width:0.37307903"
           d="m 508.40848,-59.875082 v 9.461173 h -3.54791 v -9.461173 c 0,-0.97917 0.79479,-1.773955 1.77396,-1.773955 0.97916,0 1.77395,0.794785 1.77395,1.773955 z"
           id="path7763" />
      </g>
    </g>
    <g
       id="g4683"
       transform="matrix(0.70973757,0,0,0.70318036,26.407249,62.094017)"
       style="stroke-width:1.41552556">
      <g
         style="stroke-width:0.56516749"
         transform="matrix(0.66233723,0,0,0.66302059,10.958968,142.99681)"
         id="g8590">
        <g
           transform="translate(856.44113,-84.652877)"
           id="g4438"
           style="stroke-width:0.56516749">
          <path
             id="path8496"
             d="m -1.5189999,-34.890791 v 0 c -0.731,-4.462 -11.1740001,-8 -23.9550001,-8 -12.781,0 -23.224,3.538 -23.955,8 v 0 h -0.045 v 0.5 11.5 0.5 0.5 11 0.5 0.4999998 12 h 0.045 c 0.731,4.461 11.175,8.0000002 23.955,8.0000002 12.78,0 23.2240001,-3.5390002 23.9550001,-8.0000002 h 0.045 v -12 -0.4999998 -0.5 -11 -0.5 -0.5 -11.5 -0.5 z"
             style="fill:none;stroke:#a600ff;stroke-width:1.69550228;stroke-miterlimit:4;stroke-dasharray:none;stroke-opacity:1"
             inkscape:connector-curvature="0" />
          <g
             id="g8504"
             style="stroke-width:0.56516749"
             transform="translate(-51.974,-42.890791)">
            <path
               id="path8498"
               d="M 26.5,41 C 13.245,41 2.5,37.194 2.5,32.5 V 45 h 0.045 c 0.731,4.461 11.175,8 23.955,8 12.78,0 23.224,-3.539 23.955,-8 H 50.5 V 32.5 c 0,4.694 -10.745,8.5 -24,8.5 z"
               style="fill:none;fill-opacity:1;stroke:#a600ff;stroke-width:1.69550228;stroke-miterlimit:4;stroke-dasharray:none;stroke-opacity:1"
               inkscape:connector-curvature="0" />
            <path
               id="path8500"
               d="m 2.5,32 v 0.5 c 0,-0.168 0.018,-0.334 0.045,-0.5 z"
               style="fill:#424a60;stroke-width:0.56516749"
               inkscape:connector-curvature="0" />
            <path
               id="path8502"
               d="m 50.455,32 c 0.027,0.166 0.045,0.332 0.045,0.5 V 32 Z"
               style="fill:#424a60;stroke-width:0.56516749"
               inkscape:connector-curvature="0" />
          </g>
          <g
             id="g8512"
             style="stroke-width:0.56516749"
             transform="translate(-51.974,-42.890791)">
            <path
               id="path8506"
               d="M 26.5,29 C 13.245,29 2.5,25.194 2.5,20.5 V 33 h 0.045 c 0.731,4.461 11.175,8 23.955,8 12.78,0 23.224,-3.539 23.955,-8 H 50.5 V 20.5 c 0,4.694 -10.745,8.5 -24,8.5 z"
               style="fill:none;fill-opacity:1;stroke:#a600ff;stroke-width:1.69550228;stroke-miterlimit:4;stroke-dasharray:none;stroke-opacity:1"
               inkscape:connector-curvature="0" />
            <path
               id="path8508"
               d="m 2.5,20 v 0.5 c 0,-0.168 0.018,-0.334 0.045,-0.5 z"
               style="fill:#556080;stroke-width:0.56516749"
               inkscape:connector-curvature="0" />
            <path
               id="path8510"
               d="m 50.455,20 c 0.027,0.166 0.045,0.332 0.045,0.5 V 20 Z"
               style="fill:#556080;stroke-width:0.56516749"
               inkscape:connector-curvature="0" />
          </g>
          <ellipse
             id="ellipse8514"
             ry="8.5"
             rx="24"
             cy="-34.390793"
             cx="-25.473999"
             style="fill:none;fill-opacity:1;stroke-width:0.56516749" />
          <g
             id="g8522"
             style="stroke-width:0.56516749"
             transform="translate(-51.974,-42.890791)">
            <path
               id="path8516"
               d="M 26.5,17 C 13.245,17 2.5,13.194 2.5,8.5 V 21 h 0.045 c 0.731,4.461 11.175,8 23.955,8 12.78,0 23.224,-3.539 23.955,-8 H 50.5 V 8.5 c 0,4.694 -10.745,8.5 -24,8.5 z"
               style="fill:none;fill-opacity:1;stroke:#a600ff;stroke-width:1.69550228;stroke-miterlimit:4;stroke-dasharray:none;stroke-opacity:1"
               inkscape:connector-curvature="0" />
            <path
               id="path8518"
               d="M 2.5,8 V 8.5 C 2.5,8.332 2.518,8.166 2.545,8 Z"
               style="fill:#7383bf;stroke-width:0.56516749"
               inkscape:connector-curvature="0" />
            <path
               id="path8520"
               d="M 50.455,8 C 50.482,8.166 50.5,8.332 50.5,8.5 V 8 Z"
               style="fill:#7383bf;stroke-width:0.56516749"
               inkscape:connector-curvature="0" />
          </g>
          <path
             id="path4646"
             transform="matrix(0.39946921,0,0,0.39905749,-626.53198,-192.65101)"
             d="m 1504.6406,375.28516 c -29.8342,0 -54.568,7.70963 -59.2578,17.8164 l 106.7383,106.73828 c 7.2101,-3.29583 11.7633,-7.36 12.4883,-11.78906 h 0.1113 v -30.07031 -1.25391 -1.25195 -27.56641 -1.25195 -1.25391 -28.8164 -1.25391 h -0.1113 c -1.83,-11.18135 -27.9738,-20.04687 -59.9688,-20.04687 z"
             style="fill:#c45cff;fill-opacity:0.11046514;stroke:none;stroke-width:4.24657679;stroke-miterlimit:4;stroke-dasharray:none;stroke-opacity:1"
             inkscape:connector-curvature="0" />
        </g>
        <g
           style="stroke-width:0.56516749"
           id="g8524" />
        <g
           style="stroke-width:0.56516749"
           id="g8526" />
        <g
           style="stroke-width:0.56516749"
           id="g8528" />
        <g
           style="stroke-width:0.56516749"
           id="g8530" />
        <g
           style="stroke-width:0.56516749"
           id="g8532" />
        <g
           style="stroke-width:0.56516749"
           id="g8534" />
        <g
           style="stroke-width:0.56516749"
           id="g8536" />
        <g
           style="stroke-width:0.56516749"
           id="g8538" />
        <g
           style="stroke-width:0.56516749"
           id="g8540" />
        <g
           style="stroke-width:0.56516749"
           id="g8542" />
        <g
           style="stroke-width:0.56516749"
           id="g8544" />
        <g
           style="stroke-width:0.56516749"
           id="g8546" />
        <g
           style="stroke-width:0.56516749"
           id="g8548" />
        <g
           style="stroke-width:0.56516749"
           id="g8550" />
        <g
           style="stroke-width:0.56516749"
           id="g8552" />
      </g>
    </g>
    <g
       id="g4644"
       transform="matrix(0.05265158,0,0,0.05216514,452.57385,76.185688)"
       style="stroke-width:5.04854822">
      <g
         id="g4695"
         transform="translate(100.87739,151.31608)"
         style="stroke-width:5.04854822">
        <path
           inkscape:connector-curvature="0"
           style="fill:#303c42;stroke-width:5.04854822"
           d="m 437.333,192 h -32 V 149.333 C 405.333,66.99 338.344,0 256,0 173.656,0 106.667,66.99 106.667,149.333 V 192 h -32 C 68.771,192 64,196.771 64,202.667 V 469.334 C 64,492.865 83.135,512 106.667,512 H 405.334 C 428.865,512 448,492.865 448,469.333 V 202.667 C 448,196.771 443.229,192 437.333,192 Z m -96,0 H 170.667 V 149.333 C 170.667,102.281 208.948,64 256,64 c 47.052,0 85.333,38.281 85.333,85.333 z"
           id="path4557" />
        <path
           inkscape:connector-curvature="0"
           style="fill:#f2f2f2;stroke-width:5.04854822"
           d="m 128,149.333 c 0,-70.583 57.417,-128 128,-128 70.583,0 128,57.417 128,128 V 192 H 362.667 V 149.333 C 362.667,90.52 314.813,42.666 256,42.666 c -58.813,0 -106.667,47.855 -106.667,106.667 V 192 H 128 Z"
           id="path4559" />
        <path
           inkscape:connector-curvature="0"
           style="fill:#59ff00;fill-opacity:1;stroke-width:5.04854822"
           d="m 426.667,469.333 c 0,11.76 -9.573,21.333 -21.333,21.333 H 106.667 c -11.76,0 -21.333,-9.573 -21.333,-21.333 v -256 h 341.333 z"
           id="path4561" />
        <path
           inkscape:connector-curvature="0"
           style="opacity:0.2;fill:#ffffff;stroke-width:5.04854822;enable-background:new"
           d="m 128,469.333 v -256 H 85.333 v 256 c 0,11.76 9.573,21.333 21.333,21.333 H 144 c -8.82,10e-4 -16,-9.572 -16,-21.333 z"
           id="path4563" />
        <path
           inkscape:connector-curvature="0"
           style="opacity:0.1;stroke-width:5.04854822;enable-background:new"
           d="m 384,213.333 v 256 c 0,11.76 -7.18,21.333 -16,21.333 h 37.333 c 11.76,0 21.333,-9.573 21.333,-21.333 v -256 z"
           id="path4565" />
        <path
           inkscape:connector-curvature="0"
           style="fill:#303c42;stroke-width:5.04854822"
           d="m 230.792,354.313 -6.729,60.51 c -0.333,3.01 0.635,6.031 2.656,8.292 2.021,2.26 4.917,3.552 7.948,3.552 h 42.667 c 3.031,0 5.927,-1.292 7.948,-3.552 2.021,-2.26 2.99,-5.281 2.656,-8.292 l -6.729,-60.51 c 10.927,-7.948 17.458,-20.521 17.458,-34.313 0,-23.531 -19.135,-42.667 -42.667,-42.667 -23.532,0 -42.667,19.136 -42.667,42.667 0,13.792 6.532,26.365 17.459,34.313 z"
           id="path4567" />
        <path
           inkscape:connector-curvature="0"
           style="fill:#5c6671;stroke-width:5.04854822"
           d="m 256,298.667 c 11.76,0 21.333,9.573 21.333,21.333 0,8.177 -4.646,15.5 -12.125,19.125 -4.073,1.979 -6.458,6.292 -5.958,10.781 l 6.167,55.427 h -18.833 l 6.167,-55.427 c 0.5,-4.49 -1.885,-8.802 -5.958,-10.781 C 239.314,335.5 234.668,328.177 234.668,320 234.667,308.24 244.24,298.667 256,298.667 Z"
           id="path4569" />
        <path
           inkscape:connector-curvature="0"
           style="opacity:0.1;stroke-width:5.04854822;enable-background:new"
           d="m 247.716,340.001 c -1.434,-2.866 -2.383,-5.987 -2.383,-9.335 0,-11.76 9.573,-21.333 21.333,-21.333 3.12,0 6.034,0.749 8.708,1.958 -3.349,-7.406 -10.734,-12.625 -19.375,-12.625 -11.76,0 -21.333,9.573 -21.333,21.333 0,8.177 4.646,15.5 12.125,19.125 0.402,0.196 0.558,0.639 0.925,0.877 z"
           id="path4571" />
        <path
           inkscape:connector-curvature="0"
           style="opacity:0.1;stroke-width:5.04854822;enable-background:new"
           d="m 261.927,373.965 -2.48,-22.288 c -0.701,-0.608 -1.125,-1.466 -1.988,-1.885 -2.096,-1.016 -3.9,-2.376 -5.512,-3.911 0.385,1.323 0.962,2.599 0.803,4.026 l -6.167,55.427 h 11.853 z"
           id="path4573" />
        <path
           inkscape:connector-curvature="0"
           style="fill:url(#SVGID_1_);stroke-width:5.04854822"
           d="m 437.333,192 h -32 V 149.333 C 405.333,66.99 338.344,0 256,0 173.656,0 106.667,66.99 106.667,149.333 V 192 h -32 C 68.771,192 64,196.771 64,202.667 V 469.334 C 64,492.865 83.135,512 106.667,512 H 405.334 C 428.865,512 448,492.865 448,469.333 V 202.667 C 448,196.771 443.229,192 437.333,192 Z m -96,0 H 170.667 V 149.333 C 170.667,102.281 208.948,64 256,64 c 47.052,0 85.333,38.281 85.333,85.333 z"
           id="path4580" />
      </g>
      <g
         id="g4582"
         style="stroke-width:5.04854822" />
      <g
         id="g4584"
         style="stroke-width:5.04854822" />
      <g
         id="g4586"
         style="stroke-width:5.04854822" />
      <g
         id="g4588"
         style="stroke-width:5.04854822" />
      <g
         id="g4590"
         style="stroke-width:5.04854822" />
      <g
         id="g4592"
         style="stroke-width:5.04854822" />
      <g
         id="g4594"
         style="stroke-width:5.04854822" />
      <g
         id="g4596"
         style="stroke-width:5.04854822" />
      <g
         id="g4598"
         style="stroke-width:5.04854822" />
      <g
         id="g4600"
         style="stroke-width:5.04854822" />
      <g
         id="g4602"
         style="stroke-width:5.04854822" />
      <g
         id="g4604"
         style="stroke-width:5.04854822" />
      <g
         id="g4606"
         style="stroke-width:5.04854822" />
      <g
         id="g4608"
         style="stroke-width:5.04854822" />
      <g
         id="g4610"
         style="stroke-width:5.04854822" />
    </g>
  </g>
</svg>
