<svg xmlns="http://www.w3.org/2000/svg" width="1330" height="800" viewBox="0 0 351.9 211.67"><g stroke-width=".62"><path fill="#a600ff" stroke="#a600ff" stroke-linejoin="round" stroke-width="1.15" d="M518.87 119.95l8.92 19.5h-5.87l1.71 6.38h-4.69l4.57 4.57v5.97l-.88.19-15.24 3.26.17-39.86z" transform="matrix(1.61238 0 0 1.612 -588.69 -60.39)"/><path fill="#a600ff" d="M263.92 172.31a1.28 1.28 0 0 0-.92 2.07 4.91 4.91 0 0 1 .2 5.72 1.28 1.28 0 1 0 2.13 1.41 7.49 7.49 0 0 0-.3-8.68 1.28 1.28 0 0 0-1.11-.52zm6.39-3.79a1.28 1.28 0 0 0-.91 2.13c3.39 3.9 3.6 9.1.52 13.18a1.28 1.28 0 1 0 2.05 1.54 12.88 12.88 0 0 0-.64-16.4 1.28 1.28 0 0 0-1.02-.45z" color="#000" opacity=".8" overflow="visible" paint-order="fill markers stroke"/><path fill="#a600ff" d="M276.2 163.79a1.28 1.28 0 0 0-.86 2.15c6.04 6.66 6.4 15.61.93 22.6a1.28 1.28 0 1 0 2.01 1.58c6.19-7.88 5.75-18.41-1.05-25.9a1.28 1.28 0 0 0-1.03-.43z" color="#000" opacity=".9" overflow="visible" paint-order="fill markers stroke"/><path fill="#fff" d="M247.92 132.07l-18.23.01c-.5 0-.9.4-.91.9v.5c0 .5.4.9.9.9h15.05c1.38 0 1.98.72 2.4 1.53.51 1 1.15 2.3 1.87 3.8a1170.7 1170.7 0 0 1 11.61 25.61h1.69a.9.9 0 0 0 .83-1.29l-14.39-31.43a.9.9 0 0 0-.83-.53zm4.45 33.36c-.99.2-1 1.15-.71 2.19l2.37 7.99h1.57a.9.9 0 0 0 .88-1.15l-2.45-9.14zm-2.92 10.18c-.21.05-.77.25-.95.9-.3 1.35.22 1.65.95 2.4l4.44 4.58v9.44l1.1-.23.6-.13a.9.9 0 0 0 .72-.9v-9.61a.9.9 0 0 0-.26-.64l-5.81-5.82c-.16-.02-.67.01-.8.01z" color="#000" opacity=".54" overflow="visible"/></g></svg>