<svg xmlns="http://www.w3.org/2000/svg" width="1330" height="800" viewBox="0 0 351.9 211.67"><text x="494.17" y="139.49" stroke-width=".26" font-family="SF Burlington Script" font-size="30.48" font-weight="700" letter-spacing="0" style="line-height:1.25;-inkscape-font-specification:'SF Burlington Script Bold'" transform="translate(-163.24 -33.22)" word-spacing="0"/><text x="624.47" y="235.14" stroke-width=".26" font-family="Roboto" font-size="25.4" font-weight="700" letter-spacing="0" style="line-height:1.25;-inkscape-font-specification:'Roboto Bold'" transform="translate(-163.24 -33.22)" word-spacing="0"/><text x="320.07" y="100.12" stroke-width=".26" font-family="Roboto" font-size="5.93" font-weight="700" letter-spacing="0" style="line-height:1.25;-inkscape-font-specification:'Roboto Bold'" transform="translate(-163.24 -33.22)" word-spacing="0"/><text x="249.25" y="83.52" stroke-width=".26" font-family="Roboto" font-size="5.93" font-weight="700" letter-spacing="0" style="line-height:1.25;-inkscape-font-specification:'Roboto Bold'" transform="translate(-163.24 -33.22)" word-spacing="0"/><g fill="none" fill-rule="evenodd" stroke-width="2.47"><path fill="#000" fill-opacity=".89" d="M33 148.1v1.53h1.55v4.48h3.27v-1.72h-1.54v-5.77h1.54v-1.53h1.5v-2.24h1.53v-5.26h1.25v1.48h1.79v-3.24h-3.04v-2.77h6.07v-1.77h-4.57v-1.24h7.6v-7.02h-1.54v-1.53H36.04v1.53h-1.5v9.79h-1.53v1.48h-2.27v1.53h-2.26v1.52h-1.54v1.48h-2.8v-1.52h-1.49v-1.48h-1.54v-3.01h-1.73v9.26h1.5v1.53h1.53v1.48h1.5v1.53h1.54v1.48h1.49v6.01h3.27v-1.72h-1.49v-1.28h1.5v-1.48h1.53v-1.53z"/><path fill="#fff" d="M37.53 123.7h1.83v1.81h-1.83z"/></g><g stroke-width="1.42" transform="matrix(.70974 0 0 .70318 -7 37.42)"><rect width="134.94" height="21.17" x="16.9" y="219.63" fill="#a600ff" stroke="#a600ff" stroke-linecap="square" stroke-width="1.5" opacity=".9" ry="2.21"/><text x="19.99" y="232.29" fill-rule="evenodd" stroke-width=".37" font-family="Roboto" font-size="16.45" font-weight="700" letter-spacing="0" style="line-height:1.25;-inkscape-font-specification:'Roboto Bold'" transform="scale(1.00117 .99883)" word-spacing="0"><tspan x="19.99" y="232.29" fill="#fff" font-size="6.31" font-weight="400" style="-inkscape-font-specification:Roboto">(&apos;ServiceWorker&apos; in navigator) &amp;&amp; registerSW();</tspan></text></g><g stroke-width="3.17"><g stroke-width=".19"><path fill="none" d="M82.94 165.33h27.74v27.48H82.94z"/><path fill="#a600ff" d="M105.07 180.14a8.89 8.89 0 0 0-.02-2.14l2.35-1.82c.2-.16.26-.46.13-.7l-2.21-3.8c-.14-.25-.44-.33-.68-.25l-2.77 1.1c-.58-.44-1.19-.8-1.87-1.07l-.41-2.92a.55.55 0 0 0-.56-.46H94.6c-.28 0-.5.19-.54.46l-.41 2.92c-.68.27-1.3.64-1.88 1.07l-2.76-1.1a.55.55 0 0 0-.68.25l-2.22 3.8a.53.53 0 0 0 .14.7L88.6 178a6.85 6.85 0 0 0-.02 2.14l-2.34 1.82a.56.56 0 0 0-.14.7l2.22 3.8c.14.25.43.33.68.25l2.76-1.1c.58.44 1.2.8 1.87 1.07l.42 2.92c.05.27.27.47.55.47h4.44c.28 0 .51-.2.54-.47l.42-2.92c.68-.27 1.3-.64 1.87-1.07l2.76 1.1c.25.1.54 0 .68-.25l2.22-3.8a.53.53 0 0 0-.14-.7zm-8.26 3.05a4.15 4.15 0 0 1-4.16-4.12 4.15 4.15 0 0 1 8.32 0 4.15 4.15 0 0 1-4.16 4.12z"/></g><g stroke-width=".31"><path fill="none" d="M100.12 184.23h17.08v16.92h-17.08z"/><path fill="#a600ff" d="M113.74 193.35a5.47 5.47 0 0 0 0-1.32l1.44-1.12c.12-.1.16-.29.08-.43l-1.36-2.34a.35.35 0 0 0-.42-.16l-1.7.68c-.36-.27-.74-.49-1.16-.66l-.25-1.8a.34.34 0 0 0-.34-.28h-2.74c-.17 0-.3.12-.33.29l-.26 1.8c-.41.16-.8.39-1.15.65l-1.7-.68a.34.34 0 0 0-.42.16l-1.36 2.34a.33.33 0 0 0 .08.43l1.45 1.12a4.21 4.21 0 0 0-.01 1.32l-1.45 1.11a.35.35 0 0 0-.08.44l1.37 2.34c.08.15.26.2.41.15l1.7-.67c.36.27.74.49 1.16.66l.25 1.79c.04.17.17.29.34.29h2.74c.17 0 .31-.12.33-.3l.26-1.78c.41-.17.8-.4 1.15-.66l1.7.67c.15.06.33 0 .42-.15l1.36-2.34a.33.33 0 0 0-.08-.44zm-5.08 1.88a2.56 2.56 0 0 1-2.56-2.54 2.56 2.56 0 0 1 5.12 0c0 1.4-1.15 2.54-2.56 2.54z"/></g></g></svg>