<svg xmlns="http://www.w3.org/2000/svg" width="1330" height="800" viewBox="0 0 351.9 211.67"><defs><clipPath id="c"><path d="M0 1000h1333.3V0H0z"/></clipPath><filter id="e" width="1.05" height="1.03" x="-.03" y="-.01" color-interpolation-filters="sRGB"><feGaussianBlur stdDeviation="5.82"/></filter><filter id="d" width="1.05" height="1.03" x="-.03" y="-.01" color-interpolation-filters="sRGB"><feGaussianBlur stdDeviation="5.8"/></filter><filter id="b" width="1.16" height="1.08" x="-.08" y="-.04" color-interpolation-filters="sRGB"><feGaussianBlur stdDeviation="17.41"/></filter><filter id="f" width="1.31" height="3.8" x="-.16" y="-1.4" color-interpolation-filters="sRGB"><feGaussianBlur stdDeviation="33.58"/></filter><filter id="a" width="1.09" height="1.14" x="-.04" y="-.07" color-interpolation-filters="sRGB"><feGaussianBlur stdDeviation="4.83"/></filter></defs><g stroke-width="1.47" transform="matrix(.68607 0 0 .67013 -124.98 49.99)"><rect width="264.58" height="164.04" x="163.33" y="-40.86" fill="#070707" fill-opacity=".94" filter="url(#a)" opacity=".22" rx="2.12" transform="matrix(.81267 0 0 .80237 58.85 133.13)"/><rect width="215.02" height="131.62" x="191.62" y="100.34" fill="#323232" opacity=".76" rx="1.72"/><path fill="#3f3f3f" d="M193.32 100.34H404.9c.95 0 1.72.76 1.72 1.7l.03 3.75h-215.1l.05-3.75c0-.94.76-1.7 1.72-1.7z" opacity=".76"/><path fill="none" stroke="#d7d7d7" stroke-linecap="round" stroke-width=".39" d="M402.16 102l2.48 2.4M402.16 104.4l2.48-2.4M392.79 104.36h2.48"/><path fill="none" stroke="#d7d7d7" stroke-width=".39" d="M398.27 102.01a.26.26 0 0 0-.26.26v.25h1.15c.15 0 .27.11.27.26v1.12h.26c.14 0 .26-.11.26-.25v-1.38a.26.26 0 0 0-.26-.26z" opacity=".76"/><path fill="none" stroke="#d7d7d7" stroke-width=".8" d="M545.53 47.21c-.3 0-.53.24-.53.53v2.87c0 .3.24.53.53.53h2.87c.3 0 .53-.24.53-.53v-2.87c0-.3-.24-.53-.53-.53z" opacity=".76" transform="matrix(.49435 0 0 .48064 128.06 79.83)"/><rect width="17.2" height="3.4" x="200.15" y="113.93" fill="#f55" fill-opacity=".95" opacity=".76" rx="1.72"/><rect width="18.52" height="3.4" x="207.03" y="144.15" fill="#d54e4e" fill-opacity=".95" rx="1.72"/><rect width="14.55" height="3.4" x="200.15" y="164.3" fill="#d54e4e" fill-opacity=".95" rx="1.72"/><rect width="12.9" height="3.4" x="200.15" y="174.38" fill="#d54e4e" fill-opacity=".95" rx="1.72"/><rect width="23.81" height="3.4" x="207.03" y="184.45" fill="#d54e4e" fill-opacity=".95" rx="1.72"/><rect width="16.93" height="3.4" x="212.4" y="194.53" fill="#c6c6c6" fill-opacity=".99" rx="1.72"/><rect width="23.81" height="3.4" x="207.03" y="204.6" fill="#d54e4e" fill-opacity=".95" rx="1.72"/><rect width="20.11" height="3.4" x="207.03" y="214.68" fill="#d54e4e" fill-opacity=".95" rx="1.72"/><rect width="39.36" height="3.4" x="296.08" y="194.53" fill="#f2f2f2" opacity=".76" rx="1.72"/><g fill-opacity=".95" transform="translate(6.88 30.22)"><rect width="12.9" height="3.4" x="200.15" y="124" fill="#d54e4e" rx="1.72"/><rect width="12.9" height="3.4" x="217.08" y="124" fill="#fc0" rx="1.72"/><rect width="39.36" height="3.4" x="234.02" y="124" fill="#71c837" rx="1.72"/></g><rect width="12.9" height="3.4" x="207.03" y="134.08" fill="#d54e4e" fill-opacity=".95" rx="1.72"/><rect width="12.9" height="3.4" x="223.96" y="134.08" fill="#fc0" fill-opacity=".95" rx="1.72"/><rect width="39.36" height="3.4" x="240.9" y="134.08" fill="#71c837" fill-opacity=".95" rx="1.72"/><rect width="31.75" height="3.4" x="230.05" y="144.15" fill="#cbcbcb" fill-opacity=".95" rx="1.72"/><rect width="18.52" height="3.4" x="266.3" y="144.15" fill="#d54e4e" fill-opacity=".95" rx="1.72"/><rect width="14.55" height="3.4" x="200.15" y="124" fill="#d54e4e" fill-opacity=".95" rx="1.72"/><rect width="18.52" height="3.4" x="235.58" y="184.45" fill="#f7c702" fill-opacity=".99" rx="1.72"/><rect width="42.33" height="3.4" x="258.84" y="184.45" fill="#6fc336" fill-opacity=".99" rx="1.72"/><rect width="13.23" height="3.4" x="305.91" y="184.45" fill="#f6c601" rx="1.72"/><rect width="13.23" height="3.4" x="323.88" y="184.45" fill="#6ec235" rx="1.72"/><rect width="8.47" height="3.4" x="233.27" y="194.53" fill="#cf4d4d" fill-opacity=".99" rx="1.72"/><rect width="8.47" height="3.4" x="283.68" y="194.53" fill="#cf4d4d" fill-opacity=".99" rx="1.72"/><rect width="19.58" height="3.4" x="260.17" y="194.53" fill="#c6c6c6" fill-opacity=".99" rx="1.72"/><rect width="10.58" height="3.4" x="245.66" y="194.53" fill="#f6c601" rx="1.72"/><rect width="6.88" height="3.4" x="231.7" y="214.68" fill="#59f" fill-opacity=".95" rx="1.72"/><rect width="24.34" height="3.4" x="243.15" y="214.68" fill="#6ec235" rx="1.72"/><rect width="12.9" height="3.4" x="272.06" y="214.68" fill="#fc0" fill-opacity=".95" rx="1.72"/><rect width="18.52" height="3.4" x="289.53" y="214.68" fill="#f7c702" fill-opacity=".99" rx="1.72"/><rect width="31.75" height="3.4" x="312.61" y="214.68" fill="#71c837" fill-opacity=".95" rx="1.72"/></g><path fill="#a600ff" stroke="#a600ff" stroke-linecap="square" stroke-width="1.06" d="M676.14 223.75a31.06 31.06 0 0 1-30.8 31.06 31.06 31.06 0 0 1-31.3-30.56 31.06 31.06 0 0 1 30.29-31.55 31.06 31.06 0 0 1 31.8 30.04"/><text style="line-height:1.25;-inkscape-font-specification:'SF Burlington Script Bold'" x="784.35" y="265.99" stroke-width=".26" font-family="SF Burlington Script" font-size="25.36" font-weight="700" letter-spacing="0" transform="translate(-163.24 -33.22)" word-spacing="0"><tspan x="784.35" y="265.99" style="-inkscape-font-specification:'Roboto Light, '" fill="#fff" font-family="Roboto Light" font-weight="400">60<tspan style="-inkscape-font-specification:'Roboto Bold'" font-family="Roboto" font-size="10.57" font-weight="700">FPS</tspan></tspan></text><text style="line-height:1.25;-inkscape-font-specification:'SF Burlington Script Bold'" x="494.17" y="139.49" stroke-width=".26" font-family="SF Burlington Script" font-size="30.48" font-weight="700" letter-spacing="0" transform="translate(-163.24 -33.22)" word-spacing="0"/><g transform="translate(-325.85 -56.36)"><path fill="#a600ff" d="M199.19 7.03h11.22v11.22h-11.22z"/><path fill="#a600ff" stroke="#a600ff" stroke-linecap="square" stroke-width="1.06" d="M241.77 17.75l-9.97-.03 4.85-9.6zM221.18 7.23l5.36 5.36-5.36 5.36-5.36-5.36z"/><rect width="10.28" height="10.28" x="282.12" y="35.36" fill="none" stroke="#a600ff" stroke-linecap="square" stroke-width="1.06" ry="5.14"/><path fill="none" stroke="#a600ff" stroke-width="1.06" d="M244.67 12.65h42.57v19.79"/></g><g transform="translate(125.63 48.08)"><rect width="107.37" height="26.46" x="553.83" y="202.03" fill="#a600ff" stroke="#a600ff" stroke-linecap="square" stroke-width="1.06" ry="2.21"/><text x="564.71" y="217.32" stroke-width=".26" font-family="Roboto" font-size="16.45" font-weight="700" letter-spacing="0" transform="scale(1.00117 .99883)" style="line-height:1.25;-inkscape-font-specification:'Roboto Bold'" word-spacing="0"><tspan style="-inkscape-font-specification:Roboto" x="564.71" y="217.32" fill="#fff" font-size="6.31" font-weight="400">requestAnimationFrame(loop)</tspan></text></g><text style="line-height:1.25;-inkscape-font-specification:'Roboto Bold'" x="624.47" y="235.14" stroke-width=".26" font-family="Roboto" font-size="25.4" font-weight="700" letter-spacing="0" transform="translate(-163.24 -33.22)" word-spacing="0"/><g stroke-width=".15"><path fill="#a600ff" d="M-94.86 46.15a.9.9 0 0 1-.84-1.2l9.33-25.64-11.28-3.22a.9.9 0 0 1-.43-1.43l22.86-27.17a.9.9 0 0 1 1.54.82l-6.59 22.88 11.34 3.23a.89.89 0 0 1 .43 1.44l-25.68 29.98a.9.9 0 0 1-.68.31zm-.97-31.4l10.87 3.1a.89.89 0 0 1 .6 1.16l-7.98 21.93 21.58-25.19-10.86-3.1a.9.9 0 0 1-.61-1.1l5.68-19.7z"/></g><g stroke="#59ff00" stroke-width="1.06" transform="translate(595.47 38.35)"><rect width="6.75" height="6.75" x="-56.63" y="197.48" fill="none" stroke-linecap="square" rx="1.29" ry="0" transform="scale(1.01566 .9841) rotate(-45)"/><path fill="none" d="M114.09 176.82h45.95"/><rect width="6.75" height="6.75" x="-13.46" y="240.65" fill="#59ff00" stroke-linecap="square" rx="0" ry="0" transform="scale(1.01566 .9841) rotate(-45)"/></g><text style="line-height:1.25;-inkscape-font-specification:'Roboto Bold'" x="320.07" y="100.12" stroke-width=".26" font-family="Roboto" font-size="5.93" font-weight="700" letter-spacing="0" transform="translate(-163.24 -33.22)" word-spacing="0"/><text style="line-height:1.25;-inkscape-font-specification:'Roboto Bold'" x="249.25" y="83.52" stroke-width=".26" font-family="Roboto" font-size="5.93" font-weight="700" letter-spacing="0" transform="translate(-163.24 -33.22)" word-spacing="0"/><g stroke-width=".08"><path fill="#a600ff" d="M-101.06 68.87a6.76 6.76 0 0 0-6.76 6.76 6.76 6.76 0 0 0 6.76 6.76 6.76 6.76 0 0 0 6.76-6.76 6.76 6.76 0 0 0-6.76-6.76zm-24.47 15.08a6.92 6.92 0 0 0-6.32 4.05l-2.27 6.09 6.5 1.79 2.19-5.17h7.47l-6.19 13.86c-2.03 4.5 1.32 9.8 6.26 9.8h16.83v16.9h6.76v-18.59a6.78 6.78 0 0 0-6.76-6.76h-6.28l5.64-12.4a6.77 6.77 0 0 0-6.25-9.57zm-2.57 16.9a16.91 16.91 0 1 0 16.9 16.9h-6.76c0 5.58-4.56 10.15-10.14 10.15a10.17 10.17 0 0 1-10.14-10.15c0-5.57 4.56-10.14 10.14-10.14z"/><path fill="none" d="M-158.53 60.28h81.14v81.14h-81.14z"/></g><g stroke-width="1.5"><path fill="none" stroke="#1f1f1f" stroke-miterlimit="10" stroke-opacity=".57" stroke-width="5.94" d="M3.68 979.07V55.33A53.33 53.33 0 0 1 57.02 2h410.66a53.33 53.33 0 0 1 53.34 53.33v923.74a53.33 53.33 0 0 1-53.34 53.33H57.02a53.33 53.33 0 0 1-53.34-53.33z" filter="url(#b)" transform="matrix(.1726 0 0 .18391 505.59 26.8)"/><g clip-path="url(#c)" transform="matrix(.23013 0 0 -.24138 445.99 240.54)"><path fill="#323232" d="M300.5 884.4a40 40 0 0 1-40-40V150.1a40 40 0 0 1 40-40h308a40 40 0 0 1 40 40v694.3a40 40 0 0 1-40 40zm-.3-22h308.7c15 0 27-12 27-27V160c0-15-12-27-27-27H300.2c-15 0-27 12-27 27v675.5c0 15 12 27 27 27z"/><path fill="none" stroke="#484c57" stroke-miterlimit="10" stroke-width="4.49" d="M260.5 151.6v692.8a40 40 0 0 0 40 40h308a40 40 0 0 0 40-40V151.6a40 40 0 0 0-40-40h-308a40 40 0 0 0-40 40z"/><path fill="#3e3e3e" d="M648.5 647.4a2 2 0 0 0-2 2v48c0 1.1 1 2 2 2a4 4 0 0 0 4-4v-44a4 4 0 0 0-4-4m.5-152a2.5 2.5 0 0 0-2.5 2.5v96a2.5 2.5 0 1 0 5 0v-96c0-1.4-1.1-2.5-2.5-2.5"/></g><path fill="none" stroke="#acacac" stroke-miterlimit="10" stroke-opacity=".27" stroke-width="6.07" d="M3.68 979.07V55.33A53.33 53.33 0 0 1 57.02 2h410.66a53.33 53.33 0 0 1 53.34 53.33v923.73a53.33 53.33 0 0 1-53.34 53.34H57.02a53.33 53.33 0 0 1-53.34-53.34z" filter="url(#d)" transform="matrix(.1726 0 0 .17646 505.59 31.52)"/><path fill="none" stroke="#000" stroke-miterlimit="10" stroke-width="5.99" d="M81.32 1019.98V96.25a53.33 53.33 0 0 1 53.33-53.33h410.67a53.33 53.33 0 0 1 53.33 53.33v923.73a53.33 53.33 0 0 1-53.33 53.34H134.65a53.33 53.33 0 0 1-53.33-53.34z" filter="url(#e)" transform="matrix(.1726 0 0 .18103 492.19 19.4)"/><path fill="#4b4b4b" fill-opacity=".7" d="M599.39 1093.6a259.4 28.82 0 0 1-257.3 28.82 259.4 28.82 0 0 1-261.47-28.36 259.4 28.82 0 0 1 253.06-29.28 259.4 28.82 0 0 1 265.57 27.88" filter="url(#f)" transform="matrix(.1726 0 0 .18103 492.19 19.4)"/></g></svg>