<svg xmlns="http://www.w3.org/2000/svg" width="1330" height="800" viewBox="0 0 351.9 211.67"><defs><filter id="a" width="1.09" height="1.14" x="-.04" y="-.07" color-interpolation-filters="sRGB"><feGaussianBlur stdDeviation="4.83"/></filter></defs><g stroke-width="1.11"><path fill="#070707" fill-opacity=".94" d="M226.65-40.86H425.8a2.1 2.1 0 0 1 2.11 2.12V63.24a2.1 2.1 0 0 1-2.11 2.12H226.65a2.11 2.11 0 0 1-2.11-2.12V-38.74a2.1 2.1 0 0 1 2.11-2.12z" filter="url(#a)" opacity=".22" transform="matrix(.7353 0 0 .72058 -158.55 159.16)"/><path fill="#323232" d="M7.75 129.72h146.8c.86 0 1.55.69 1.55 1.54v73.45c0 .86-.7 1.55-1.55 1.55H7.75c-.86 0-1.55-.69-1.55-1.55v-73.45c0-.85.7-1.54 1.55-1.54z" opacity=".76"/><path fill="#3f3f3f" d="M7.73 129.72h146.81c.87 0 1.56.68 1.56 1.52l.03 3.37h-150l.04-3.37c0-.84.7-1.6 1.56-1.52z" opacity=".76"/><path fill="none" stroke="#d7d7d7" stroke-linecap="round" stroke-width=".29" d="M710.51-14.93l2.48 2.4m-2.48.01l2.48-2.41m-11.85 2.36h2.48" transform="matrix(.90479 0 0 .89806 -490.8 144.61)"/><path fill="none" stroke="#d7d7d7" stroke-width=".29" d="M706.62-14.92a.26.26 0 0 0-.26.26v.25h1.15c.15 0 .27.12.27.26v1.12h.26c.14 0 .26-.11.26-.25v-1.38a.26.26 0 0 0-.26-.26z" opacity=".76" transform="matrix(.90479 0 0 .89806 -490.8 144.61)"/><path fill="none" stroke="#d7d7d7" stroke-width=".6" d="M545.53 47.21c-.3 0-.53.24-.53.53v2.87c0 .3.24.53.53.53h2.87c.3 0 .53-.24.53-.53v-2.87c0-.3-.24-.53-.53-.53z" opacity=".76" transform="matrix(.44728 0 0 .43165 -95.93 111.3)"/><g fill="#59ff00" stroke-width="4.29"><path d="M43.87 177.5a.47.47 0 0 0-.63.1L30.1 194.1a2.3 2.3 0 0 0 .37 3.27 2.34 2.34 0 0 0 1.73.49 2.33 2.33 0 0 0 1.83-1.26l.02-.02 9.98-18.45a.46.46 0 0 0-.16-.61zm-10.65 18.61c-.05.1-.14.24-.2.3a1.4 1.4 0 0 1-2.5-.71 1.5 1.5 0 0 1 .31-1.03l9.86-12.36zm11.2-16.47a.47.47 0 0 0-.66-.05.46.46 0 0 0-.05.66 15.34 15.34 0 0 1 3.74 9.57h-3.99a14.3 14.3 0 0 0-1.68-4.98.47.47 0 0 0-.64-.18.46.46 0 0 0-.19.63 13.38 13.38 0 0 1 1.63 5.05c.03.23.23.41.47.41h4.87c.26 0 .47-.2.47-.47 0-3.9-1.4-7.68-3.97-10.64zm-2.77-2.54a16.41 16.41 0 0 0-9.72-3.16c-2.02 0-4 .36-5.86 1.07a.47.47 0 0 0-.28.6c.1.24.37.36.61.27a15.56 15.56 0 0 1 9.94-.37c1.7.5 3.3 1.28 4.75 2.34a.47.47 0 0 0 .66-.1c.15-.21.1-.5-.1-.66z"/><path d="M39.07 181.37a14.6 14.6 0 0 0-10.09-4c-3.3 0-6.44 1.09-8.97 3.04a15.55 15.55 0 0 1 4.95-3.9c.23-.11.32-.4.2-.62a.47.47 0 0 0-.63-.2 16.44 16.44 0 0 0-7.76 8.22.47.47 0 0 0 .43.64.5.5 0 0 0 .4-.2 13.7 13.7 0 0 1 16.87-4.92c1.46.64 2.8 1.52 3.96 2.62.18.17.48.17.66-.02a.46.46 0 0 0-.02-.66zM32 195.3a.48.48 0 0 0-.54.03c-.33.27-.13.83.3.83.21 0 .4-.15.45-.36a.47.47 0 0 0-.2-.5z"/></g><path fill="none" stroke="#59ff00" stroke-linecap="square" stroke-width="1.17" d="M197.5 166.62a447.08 447.08 0 0 1 1.42-4.36 68.36 68.36 0 0 1 1.42-3.74c.24-.54.47-1.03.71-1.47.24-.43.47-.8.71-1.12.24-.31.48-.56.71-.74.24-.18.48-.3.71-.34.24-.04.48 0 .71.1.24.1.48.26.71.5.24.23.48.54.72.9a22.7 22.7 0 0 1 1.42 2.88 47.65 47.65 0 0 1 1.42 3.9c.24.72.47 1.45.7 2.2.25.73.48 1.48.72 2.22a237.52 237.52 0 0 0 1.42 4.28 52.82 52.82 0 0 0 1.42 3.54c.24.5.48.95.71 1.33.24.39.48.71.71.97.24.26.48.45.72.58.23.12.47.17.7.16.24-.02.48-.11.72-.27.23-.16.47-.38.7-.67.24-.3.48-.65.72-1.07a33.16 33.16 0 0 0 1.42-3.13 61.58 61.58 0 0 0 1.42-4.06l.71-2.22.71-2.22a156.4 156.4 0 0 1 1.42-4.18l.71-1.8a21.65 21.65 0 0 1 1.42-2.7c.24-.33.48-.6.72-.8.23-.21.47-.35.7-.41.24-.06.48-.06.72.02.24.07.47.22.7.43.25.22.48.5.72.85.24.34.47.75.71 1.21.24.46.47.98.71 1.55a80.1 80.1 0 0 1 2.13 6.02l.71 2.22a293.49 293.49 0 0 0 1.43 4.32 58.48 58.48 0 0 0 1.42 3.62c.23.51.47.98.7 1.39.25.4.48.75.72 1.03s.47.5.71.64c.24.15.47.22.71.23.24 0 .47-.06.71-.2.24-.13.48-.33.71-.6a6 6 0 0 0 .71-1c.24-.4.48-.86.71-1.36a55.58 55.58 0 0 0 2.13-5.68l.72-2.2.7-2.23a182.18 182.18 0 0 1 1.43-4.22c.24-.65.47-1.27.71-1.84a24 24 0 0 1 .71-1.57c.24-.47.47-.9.71-1.25s.47-.65.71-.87c.24-.23.48-.38.71-.47.24-.09.48-.1.71-.06.24.06.48.18.71.37.24.2.48.45.71.78.24.32.48.7.72 1.15a38.78 38.78 0 0 1 1.42 3.27 72.04 72.04 0 0 1 1.42 4.16l.7 2.22a380.83 380.83 0 0 0 1.43 4.34 64.91 64.91 0 0 0 1.42 3.7 11.12 11.12 0 0 0 1.42 2.55c.24.3.48.53.71.7.24.17.48.27.72.3.23.03.47-.01.7-.12.24-.12.48-.3.72-.54.23-.25.47-.57.7-.94.24-.38.48-.81.72-1.3a50.14 50.14 0 0 0 2.13-5.57l.71-2.2.71-2.22a215.58 215.58 0 0 1 1.42-4.26c.24-.67.48-1.3.71-1.88a25.76 25.76 0 0 1 1.42-2.92c.24-.38.48-.7.72-.94.23-.25.47-.43.7-.54.24-.11.48-.15.72-.13.24.03.47.13.7.3.25.17.48.4.72.71.24.3.47.67.71 1.1.24.42.47.9.71 1.44a64.83 64.83 0 0 1 2.13 5.83l.71 2.22.71 2.22a145.85 145.85 0 0 0 1.43 4.15c.23.63.47 1.23.7 1.78a19.04 19.04 0 0 0 1.42 2.65c.25.32.48.58.72.77.24.2.47.32.71.37.24.05.47.03.71-.05.24-.1.47-.25.71-.48.24-.22.48-.51.71-.87.24-.35.48-.77.71-1.24a24 24 0 0 0 .71-1.57 84.6 84.6 0 0 0 2.13-6.06l.72-2.23a262.84 262.84 0 0 1 1.42-4.3 55.59 55.59 0 0 1 1.42-3.58c.24-.51.47-.97.71-1.36.24-.4.47-.73.71-1s.48-.48.71-.61c.24-.14.48-.2.71-.2.24.01.48.09.71.23.24.15.48.37.71.65.24.28.48.62.72 1.03.23.4.47.87.7 1.38.24.52.48 1.09.72 1.7a58.49 58.49 0 0 1 1.42 4.04l.7 2.2.72 2.23a168.68 168.68 0 0 0 1.42 4.2 29.2 29.2 0 0 0 1.42 3.36c.24.47.48.87.71 1.22.24.34.48.62.71.84.24.21.48.36.71.44.24.07.48.08.72.01.23-.06.47-.2.7-.4.24-.2.48-.47.72-.8a21.65 21.65 0 0 0 1.42-2.71 75.94 75.94 0 0 0 2.13-5.97l.71-2.23a331.45 331.45 0 0 1 1.42-4.33 61.61 61.61 0 0 1 1.42-3.67 15.02 15.02 0 0 1 1.42-2.47c.24-.3.48-.52.72-.68.23-.16.47-.24.7-.26.24-.02.48.03.72.16.24.12.47.31.7.57.25.26.48.59.72.97.24.39.47.83.71 1.33.24.5.47 1.05.71 1.64a52.77 52.77 0 0 1 1.42 3.99c.24.71.48 1.45.71 2.2l.71 2.22a197.73 197.73 0 0 0 1.43 4.24 24.98 24.98 0 0 0 2.12 4.73c.24.37.48.67.72.9.24.24.47.41.71.51.24.1.47.13.71.09.24-.04.47-.15.71-.33.24-.18.47-.43.71-.74a15.6 15.6 0 0 0 1.42-2.6 68.33 68.33 0 0 0 2.13-5.88l.72-2.22" transform="matrix(.90479 0 0 .89806 -161.36 3.51)"/><g fill="#f2f2f2" transform="matrix(.90479 0 0 .89806 -165.93 3.51)"><rect width="10.75" height="3.4" x="282.03" y="207.72" opacity=".76" rx="1.72"/><rect width="30.1" height="3.4" x="292.98" y="199.23" opacity=".76" rx="1.72"/><rect width="25.8" height="3.4" x="293.04" y="190.74" opacity=".76" rx="1.72"/><rect width="21.5" height="3.4" x="323.15" y="190.74" opacity=".76" rx="1.72"/><rect width="40.85" height="3.4" x="247.14" y="199.23" opacity=".76" rx="1.72"/><rect width="17.2" height="3.4" x="327.45" y="199.44" opacity=".76" rx="1.72"/><rect width="25.8" height="3.4" x="262.19" y="190.74" opacity=".76" rx="1.72"/><rect width="47.3" height="3.4" x="297.35" y="207.72" opacity=".76" rx="1.72"/></g></g></svg>