<svg xmlns="http://www.w3.org/2000/svg" width="1330" height="800" viewBox="0 0 351.896 211.667"><text style="line-height:1.25;-inkscape-font-specification:'SF Burlington Script Bold'" x="494.168" y="139.486" stroke-width=".265" font-family="SF Burlington Script" font-size="30.48" font-weight="700" letter-spacing="0" transform="translate(-163.236 -33.222)" word-spacing="0"/><text style="line-height:1.25;-inkscape-font-specification:'Roboto Bold'" x="624.469" y="235.138" stroke-width=".265" font-family="Roboto" font-size="25.4" font-weight="700" letter-spacing="0" transform="translate(-163.236 -33.222)" word-spacing="0"/><text style="line-height:1.25;-inkscape-font-specification:'SF Burlington Script Bold'" x="400.58" y="184.399" stroke-width=".265" font-family="SF Burlington Script" font-size="20.663" font-weight="700" letter-spacing="0" transform="matrix(1.00153 0 0 .99847 -163.236 -33.222)" word-spacing="0"/><text style="line-height:1.25;-inkscape-font-specification:'Roboto Bold'" x="488.913" y="249.244" stroke-width=".265" font-family="Roboto" font-size="17.219" font-weight="700" letter-spacing="0" transform="matrix(1.00153 0 0 .99847 -163.236 -33.222)" word-spacing="0"/><g transform="translate(-163.236 -33.222)"><path fill="#a600ff" stroke="#a600ff" stroke-linecap="square" stroke-width="1.058" d="M439.446 208.607a21.086 21.022 0 0 1-20.915 21.021 21.086 21.022 0 0 1-21.254-20.68 21.086 21.022 0 0 1 20.57-21.357 21.086 21.022 0 0 1 21.588 20.334"/><text x="401.471" y="215.037" stroke-width=".265" font-family="SF Burlington Script" font-size="17.193" font-weight="700" letter-spacing="0" transform="scale(1.00153 .99847)" style="line-height:1.25;-inkscape-font-specification:'SF Burlington Script Bold'" word-spacing="0"><tspan style="-inkscape-font-specification:'Roboto Light, '" x="401.471" y="215.037" fill="#fff" font-family="Roboto Light" font-weight="400">60<tspan style="-inkscape-font-specification:'Roboto Bold'" font-family="Roboto" font-size="7.164" font-weight="700">FPS</tspan></tspan></text><rect width="72.902" height="17.909" x="441.7" y="226.451" fill="#a600ff" stroke="#a600ff" stroke-linecap="square" stroke-width="1.058" ry="1.494"/><text x="445.328" y="237.395" stroke-width=".265" font-family="Roboto" font-size="12.325" font-weight="700" letter-spacing="0" transform="scale(1.0027 .9973)" style="line-height:1.25;-inkscape-font-specification:'Roboto Bold'" word-spacing="0"><tspan style="-inkscape-font-specification:Roboto" x="445.328" y="237.395" fill="#fff" font-size="4.724" font-weight="400">requestAnimationFrame(loop)</tspan></text><rect width="4.577" height="4.577" x="169.207" y="461.107" fill="none" stroke="#59ff00" stroke-linecap="square" stroke-width="1.059" rx=".877" ry="0" transform="scale(1.01716 .98254) rotate(-45)"/><path fill="none" stroke="#59ff00" stroke-width="1.058" d="M462.13 202.8h31.202"/><rect width="4.577" height="4.577" x="198.478" y="490.378" fill="#59ff00" stroke="#59ff00" stroke-linecap="square" stroke-width="1.059" rx="0" ry="0" transform="scale(1.01716 .98254) rotate(-45)"/></g></svg>