<svg xmlns="http://www.w3.org/2000/svg" width="1330" height="800" viewBox="0 0 351.9 211.67"><text style="line-height:1.25;-inkscape-font-specification:'SF Burlington Script Bold'" x="494.17" y="139.49" stroke-width=".26" font-family="SF Burlington Script" font-size="30.48" font-weight="700" letter-spacing="0" transform="translate(-163.24 -33.22)" word-spacing="0"/><text style="line-height:1.25;-inkscape-font-specification:'Roboto Bold'" x="624.47" y="235.14" stroke-width=".26" font-family="Roboto" font-size="25.4" font-weight="700" letter-spacing="0" transform="translate(-163.24 -33.22)" word-spacing="0"/><text style="line-height:1.25;-inkscape-font-specification:'SF Burlington Script Bold'" x="400.58" y="184.4" stroke-width=".26" font-family="SF Burlington Script" font-size="20.66" font-weight="700" letter-spacing="0" transform="matrix(1.00153 0 0 .99847 -163.24 -33.22)" word-spacing="0"/><text style="line-height:1.25;-inkscape-font-specification:'Roboto Bold'" x="488.91" y="249.24" stroke-width=".26" font-family="Roboto" font-size="17.22" font-weight="700" letter-spacing="0" transform="matrix(1.00153 0 0 .99847 -163.24 -33.22)" word-spacing="0"/><path fill="#a600ff" stroke="#a600ff" stroke-linecap="square" stroke-width="1.06" d="M276.21 175.38a21.09 21.02 0 0 1-20.92 21.03 21.09 21.02 0 0 1-21.25-20.68 21.09 21.02 0 0 1 20.57-21.36 21.09 21.02 0 0 1 21.59 20.33"/><text style="line-height:1.25;-inkscape-font-specification:'SF Burlington Script Bold'" x="401.47" y="215.04" stroke-width=".26" font-family="SF Burlington Script" font-size="17.19" font-weight="700" letter-spacing="0" transform="matrix(1.00153 0 0 .99847 -163.24 -33.22)" word-spacing="0"><tspan x="401.47" y="215.04" style="-inkscape-font-specification:'Roboto Light, '" fill="#fff" font-family="Roboto Light" font-weight="400">60<tspan style="-inkscape-font-specification:'Roboto Bold'" font-family="Roboto" font-size="7.16" font-weight="700">FPS</tspan></tspan></text></svg>