<svg xmlns="http://www.w3.org/2000/svg" width="1330" height="800" viewBox="0 0 351.9 211.67"><defs><clipPath id="b"><path d="M0 1000h1333.3V0H0z"/></clipPath><filter id="d" width="1.05" height="1.03" x="-.03" y="-.01" color-interpolation-filters="sRGB"><feGaussianBlur stdDeviation="5.82"/></filter><filter id="c" width="1.05" height="1.03" x="-.03" y="-.01" color-interpolation-filters="sRGB"><feGaussianBlur stdDeviation="5.8"/></filter><filter id="a" width="1.16" height="1.08" x="-.08" y="-.04" color-interpolation-filters="sRGB"><feGaussianBlur stdDeviation="17.41"/></filter><filter id="e" width="1.31" height="3.8" x="-.16" y="-1.4" color-interpolation-filters="sRGB"><feGaussianBlur stdDeviation="33.58"/></filter></defs><path fill="#a600ff" stroke="#a600ff" stroke-linecap="square" stroke-width="1.06" d="M676.14 223.75a31.06 31.06 0 0 1-30.8 31.06 31.06 31.06 0 0 1-31.3-30.56 31.06 31.06 0 0 1 30.29-31.55 31.06 31.06 0 0 1 31.8 30.04"/><text x="784.35" y="265.99" stroke-width=".26" font-family="SF Burlington Script" font-size="25.36" font-weight="700" letter-spacing="0" style="line-height:1.25;-inkscape-font-specification:'SF Burlington Script Bold'" transform="translate(-163.24 -33.22)" word-spacing="0"><tspan x="784.35" y="265.99" fill="#fff" font-family="Roboto Light" font-weight="400" style="-inkscape-font-specification:'Roboto Light, '">60<tspan font-family="Roboto" font-size="10.57" font-weight="700" style="-inkscape-font-specification:'Roboto Bold'">FPS</tspan></tspan></text><text x="494.17" y="139.49" stroke-width=".26" font-family="SF Burlington Script" font-size="30.48" font-weight="700" letter-spacing="0" style="line-height:1.25;-inkscape-font-specification:'SF Burlington Script Bold'" transform="translate(-163.24 -33.22)" word-spacing="0"/><g transform="translate(-325.85 -56.36)"><path fill="#a600ff" d="M199.19 7.03h11.22v11.22h-11.22z"/><path fill="#a600ff" stroke="#a600ff" stroke-linecap="square" stroke-width="1.06" d="M241.77 17.75l-9.97-.03 4.85-9.6zM221.18 7.23l5.36 5.36-5.36 5.36-5.36-5.36z"/><rect width="10.28" height="10.28" x="282.12" y="35.36" fill="none" stroke="#a600ff" stroke-linecap="square" stroke-width="1.06" ry="5.14"/><path fill="none" stroke="#a600ff" stroke-width="1.06" d="M244.67 12.65h42.57v19.79"/></g><g transform="translate(125.63 48.08)"><rect width="107.37" height="26.46" x="553.83" y="202.03" fill="#a600ff" stroke="#a600ff" stroke-linecap="square" stroke-width="1.06" ry="2.21"/><text x="564.71" y="217.32" stroke-width=".26" font-family="Roboto" font-size="16.45" font-weight="700" letter-spacing="0" style="line-height:1.25;-inkscape-font-specification:'Roboto Bold'" transform="scale(1.00117 .99883)" word-spacing="0"><tspan x="564.71" y="217.32" fill="#fff" font-size="6.31" font-weight="400" style="-inkscape-font-specification:Roboto">requestAnimationFrame(loop)</tspan></text></g><text x="624.47" y="235.14" stroke-width=".26" font-family="Roboto" font-size="25.4" font-weight="700" letter-spacing="0" style="line-height:1.25;-inkscape-font-specification:'Roboto Bold'" transform="translate(-163.24 -33.22)" word-spacing="0"/><g stroke-width=".15"><path fill="#a600ff" d="M-94.86 46.15a.9.9 0 0 1-.84-1.2l9.33-25.64-11.28-3.22a.9.9 0 0 1-.43-1.43l22.86-27.17a.9.9 0 0 1 1.54.82l-6.59 22.88 11.34 3.23a.89.89 0 0 1 .43 1.44l-25.68 29.98a.9.9 0 0 1-.68.31zm-.97-31.4l10.87 3.1a.89.89 0 0 1 .6 1.16l-7.98 21.93 21.58-25.19-10.86-3.1a.9.9 0 0 1-.61-1.1l5.68-19.7z"/></g><g stroke="#59ff00" stroke-width="1.06" transform="translate(595.47 38.35)"><rect width="6.75" height="6.75" x="-56.63" y="197.48" fill="none" stroke-linecap="square" rx="1.29" ry="0" transform="scale(1.01566 .9841) rotate(-45)"/><path fill="none" d="M114.09 176.82h45.95"/><rect width="6.75" height="6.75" x="-13.46" y="240.65" fill="#59ff00" stroke-linecap="square" rx="0" ry="0" transform="scale(1.01566 .9841) rotate(-45)"/></g><text x="320.07" y="100.12" stroke-width=".26" font-family="Roboto" font-size="5.93" font-weight="700" letter-spacing="0" style="line-height:1.25;-inkscape-font-specification:'Roboto Bold'" transform="translate(-163.24 -33.22)" word-spacing="0"/><text x="249.25" y="83.52" stroke-width=".26" font-family="Roboto" font-size="5.93" font-weight="700" letter-spacing="0" style="line-height:1.25;-inkscape-font-specification:'Roboto Bold'" transform="translate(-163.24 -33.22)" word-spacing="0"/><g stroke-width=".08"><path fill="#a600ff" d="M-101.06 68.87a6.76 6.76 0 0 0-6.76 6.76 6.76 6.76 0 0 0 6.76 6.76 6.76 6.76 0 0 0 6.76-6.76 6.76 6.76 0 0 0-6.76-6.76zm-24.47 15.08a6.92 6.92 0 0 0-6.32 4.05l-2.27 6.09 6.5 1.79 2.19-5.17h7.47l-6.19 13.86c-2.03 4.5 1.32 9.8 6.26 9.8h16.83v16.9h6.76v-18.59a6.78 6.78 0 0 0-6.76-6.76h-6.28l5.64-12.4a6.77 6.77 0 0 0-6.25-9.57zm-2.57 16.9a16.91 16.91 0 1 0 16.9 16.9h-6.76c0 5.58-4.56 10.15-10.14 10.15a10.17 10.17 0 0 1-10.14-10.15c0-5.57 4.56-10.14 10.14-10.14z"/><path fill="none" d="M-158.53 60.28h81.14v81.14h-81.14z"/></g><g stroke-width="1.5"><path fill="none" stroke="#1f1f1f" stroke-miterlimit="10" stroke-opacity=".57" stroke-width="5.94" d="M3.68 979.07V55.33A53.33 53.33 0 0 1 57.02 2h410.66a53.33 53.33 0 0 1 53.34 53.33v923.74a53.33 53.33 0 0 1-53.34 53.33H57.02a53.33 53.33 0 0 1-53.34-53.33z" filter="url(#a)" transform="matrix(.1726 0 0 .18391 505.59 26.8)"/><g clip-path="url(#b)" transform="matrix(.23013 0 0 -.24138 445.99 240.54)"><path fill="#323232" d="M300.5 884.4a40 40 0 0 1-40-40V150.1a40 40 0 0 1 40-40h308a40 40 0 0 1 40 40v694.3a40 40 0 0 1-40 40zm-.3-22h308.7c15 0 27-12 27-27V160c0-15-12-27-27-27H300.2c-15 0-27 12-27 27v675.5c0 15 12 27 27 27z"/><path fill="none" stroke="#484c57" stroke-miterlimit="10" stroke-width="4.49" d="M260.5 151.6v692.8a40 40 0 0 0 40 40h308a40 40 0 0 0 40-40V151.6a40 40 0 0 0-40-40h-308a40 40 0 0 0-40 40z"/><path fill="#3e3e3e" d="M648.5 647.4a2 2 0 0 0-2 2v48c0 1.1 1 2 2 2a4 4 0 0 0 4-4v-44a4 4 0 0 0-4-4m.5-152a2.5 2.5 0 0 0-2.5 2.5v96a2.5 2.5 0 1 0 5 0v-96c0-1.4-1.1-2.5-2.5-2.5"/></g><path fill="none" stroke="#acacac" stroke-miterlimit="10" stroke-opacity=".27" stroke-width="6.07" d="M3.68 979.07V55.33A53.33 53.33 0 0 1 57.02 2h410.66a53.33 53.33 0 0 1 53.34 53.33v923.73a53.33 53.33 0 0 1-53.34 53.34H57.02a53.33 53.33 0 0 1-53.34-53.34z" filter="url(#c)" transform="matrix(.1726 0 0 .17646 505.59 31.52)"/><path fill="none" stroke="#000" stroke-miterlimit="10" stroke-width="5.99" d="M81.32 1019.98V96.25a53.33 53.33 0 0 1 53.33-53.33h410.67a53.33 53.33 0 0 1 53.33 53.33v923.73a53.33 53.33 0 0 1-53.33 53.34H134.65a53.33 53.33 0 0 1-53.33-53.34z" filter="url(#d)" transform="matrix(.1726 0 0 .18103 492.19 19.4)"/><path fill="#4b4b4b" fill-opacity=".7" d="M599.39 1093.6a259.4 28.82 0 0 1-257.3 28.82 259.4 28.82 0 0 1-261.47-28.36 259.4 28.82 0 0 1 253.06-29.28 259.4 28.82 0 0 1 265.57 27.88" filter="url(#e)" transform="matrix(.1726 0 0 .18103 492.19 19.4)"/></g><g stroke-width="1.36" transform="matrix(.73318 0 0 .73318 -397.45 13.04)"><rect width="26.46" height="4.76" x="594.7" y="47.58" fill="#a600ff" rx="1.72"/><g fill="#a600ff" transform="translate(.74 .2)"><rect width="4.76" height="4.76" x="577.8" y="11.97" rx="1.72"/><rect width="4.76" height="4.76" x="585.24" y="11.97" rx="1.72"/><rect width="4.76" height="4.76" x="592.67" y="11.97" rx="1.72"/></g><g fill="#a600ff" transform="translate(25.24 .2)"><rect width="4.76" height="4.76" x="577.8" y="11.97" rx="1.72"/><rect width="4.76" height="4.76" x="585.24" y="11.97" rx="1.72"/><rect width="4.76" height="4.76" x="592.67" y="11.97" rx="1.72"/></g><rect width="10.58" height="4.76" x="636.59" y="38.72" fill="#a600ff" rx="1.72"/><rect width="9.52" height="4.76" x="637.65" y="29.87" fill="#a600ff" rx="1.72"/><rect width="5.82" height="4.76" x="641.36" y="21.02" fill="#a600ff" rx="1.72"/><g fill="#a600ff" transform="translate(49.74 .2)"><rect width="4.76" height="4.76" x="577.8" y="11.97" rx="1.72"/><rect width="4.76" height="4.76" x="585.24" y="11.97" rx="1.72"/><rect width="4.76" height="4.76" x="592.67" y="11.97" rx="1.72"/></g><rect width="4.76" height="4.76" x="577.11" y="21.02" fill="#a600ff" rx="1.72"/><rect width="4.76" height="4.76" x="584.25" y="21.02" fill="#a600ff" rx="1.72"/><rect width="4.76" height="4.76" x="591.38" y="21.02" fill="#a600ff" rx="1.72"/><rect width="4.76" height="4.76" x="598.52" y="21.02" fill="#a600ff" rx="1.72"/><rect width="4.76" height="4.76" x="605.66" y="21.02" fill="#a600ff" rx="1.72"/><rect width="4.76" height="4.76" x="612.8" y="21.02" fill="#a600ff" rx="1.72"/><rect width="4.76" height="4.76" x="619.94" y="21.02" fill="#a600ff" rx="1.72"/><rect width="4.76" height="4.76" x="627.08" y="21.02" fill="#a600ff" rx="1.72"/><rect width="4.76" height="4.76" x="634.22" y="21.02" fill="#a600ff" rx="1.72"/><rect width="7.41" height="4.76" x="568.91" y="29.87" fill="#a600ff" rx="1.72"/><rect width="4.76" height="4.76" x="578.9" y="29.87" fill="#a600ff" rx="1.72"/><rect width="4.76" height="4.76" x="586.24" y="29.87" fill="#a600ff" rx="1.72"/><rect width="4.76" height="4.76" x="593.59" y="29.87" fill="#a600ff" rx="1.72"/><rect width="4.76" height="4.76" x="600.93" y="29.87" fill="#a600ff" rx="1.72"/><rect width="4.76" height="4.76" x="608.28" y="29.87" fill="#a600ff" rx="1.72"/><rect width="4.76" height="4.76" x="615.62" y="29.87" fill="#a600ff" rx="1.72"/><rect width="4.76" height="4.76" x="622.96" y="29.87" fill="#a600ff" rx="1.72"/><rect width="4.76" height="4.76" x="630.31" y="29.87" fill="#a600ff" rx="1.72"/><rect width="8.47" height="4.76" x="568.91" y="38.72" fill="#a600ff" rx="1.72"/><rect width="4.76" height="4.76" x="580.61" y="38.72" fill="#a600ff" rx="1.72"/><rect width="4.76" height="4.76" x="588.61" y="38.72" fill="#a600ff" rx="1.72"/><rect width="4.76" height="4.76" x="596.61" y="38.72" fill="#a600ff" rx="1.72"/><rect width="4.76" height="4.76" x="604.6" y="38.72" fill="#a600ff" rx="1.72"/><rect width="4.76" height="4.76" x="612.6" y="38.72" fill="#a600ff" rx="1.72"/><rect width="4.76" height="4.76" x="620.6" y="38.72" fill="#a600ff" rx="1.72"/><rect width="4.76" height="4.76" x="628.6" y="38.72" fill="#a600ff" rx="1.72"/><g stroke-width="2.71"><path fill="#ebd4f4" d="M651.55 56.96h-55.4L578.16 7.12l70.29-.17a3.1 3.1 0 0 1 3.1 3.1z" opacity=".22"/><path fill="#fff" d="M624.54 56.42c1.53-.77 6.97-11.88 8.67-15.4a3.56 3.56 0 0 0-3.02 3.51v1.8c0 1.96-1.6-3.56-3.56-3.56a3.56 3.56 0 0 0-3.56 3.56v11.43c.35-.55.85-1.02 1.47-1.34zM628.41 78.61a18.9 18.9 0 0 1-3.11-6.72l-2.71-11.23c-.2-.85-.11-1.7.23-2.45l-3.93-7.28a3.75 3.75 0 0 0-6.96 2.66l2.71 11.24a18.9 18.9 0 0 0 3.12 6.72l5.3 7.27v8.29h10.66v-1.23zm0 0"/><path fill="#edd9f5" d="M647.9 78.82l2.08-6.67a34.26 34.26 0 0 0 1.57-10.24V49.4a3.56 3.56 0 0 0-7.12 0V46.8a3.56 3.56 0 0 0-7.12 0v-2.26a3.56 3.56 0 0 0-4.1-3.51c-1.7 3.52-7.14 14.63-8.67 15.4-.62.32-1.12.79-1.47 1.34v.91l-.25-.46c-.34.75-.44 1.6-.23 2.45l2.7 11.23c.59 2.43 1.65 4.71 3.12 6.72l5.31 7.27v1.23h14.18v-8.3zm0 0M592.79 87.1v-8.28l5.3-7.27a18.9 18.9 0 0 0 3.12-6.72l2.71-11.24a3.75 3.75 0 0 0-6.95-2.66l-4.18 7.74V46.33c0-1.97-1.6-3.56-3.56-3.56-1.97 0-3.57 5.52-3.57 3.56v-1.8a3.56 3.56 0 0 0-7.12 0v2.26a3.56 3.56 0 0 0-5.6-2.9v7.8c0 4.88.73 9.74 2.2 14.4l2.93 9.36v11.66z"/><path fill="#a600ff" d="M567.85 5.18a5.33 5.33 0 0 0-5.32 5.32V61.9c0 3.66.55 7.28 1.65 10.78l2 6.4v8.02a1.77 1.77 0 1 0 3.55 0v-8.3c0-.17-.02-.35-.08-.53l-2.09-6.66a32.44 32.44 0 0 1-1.49-9.71V49.4a1.79 1.79 0 0 1 3.58 0v4.35a1.77 1.77 0 1 0 3.55 0v-6.97a1.79 1.79 0 0 1 3.57 0v6.97a1.77 1.77 0 1 0 3.55 0v-9.23a1.79 1.79 0 0 1 3.57 0v9.23a1.77 1.77 0 1 0 3.55 0V45a1.79 1.79 0 0 1 3.57 0v13.66a1.77 1.77 0 0 0 3.34.84l4.18-7.74a1.97 1.97 0 0 1 2.63-.83 1.97 1.97 0 0 1 1.04 2.24l-2.71 11.23a17.02 17.02 0 0 1-2.83 6.1l-5.3 7.26c-.23.3-.35.67-.35 1.05v8.29a1.77 1.77 0 0 0 3.55 0v-7.72l4.97-6.8a20.57 20.57 0 0 0 3.4-7.34l1.57-6.52h6.85l1.57 6.51a20.57 20.57 0 0 0 3.4 7.35l4.98 6.8v7.72a1.77 1.77 0 0 0 3.54 0v-8.3c0-.37-.12-.74-.34-1.04l-5.31-7.27a17.03 17.03 0 0 1-2.82-6.09l-2.71-11.23c-.22-.9.2-1.82 1.03-2.24a1.97 1.97 0 0 1 2.64.83l4.18 7.74a1.77 1.77 0 0 0 3.33-.84V44.98a1.79 1.79 0 0 1 3.58 0v8.78a1.77 1.77 0 0 0 3.54 0v-9.23a1.79 1.79 0 0 1 3.58 0v9.23a1.77 1.77 0 0 0 3.54 0v-6.97a1.79 1.79 0 0 1 3.58 0v6.97a1.77 1.77 0 1 0 3.55 0V49.4a1.79 1.79 0 0 1 3.57 0v12.5c0 3.3-.5 6.57-1.49 9.71l-2.09 6.67c-.05.17-.08.35-.08.53v8.29a1.77 1.77 0 0 0 3.55 0v-8.02l2-6.4c1.1-3.5 1.66-7.12 1.66-10.78V49.4v-.05V10.5A5.33 5.33 0 0 0 648 5.18zm0 3.54H648c.97 0 1.77.8 1.77 1.78v33.89a5.32 5.32 0 0 0-4.05.2 5.34 5.34 0 0 0-7.27-2.56 5.34 5.34 0 0 0-4.7-2.83 5.2 5.2 0 0 0-3.58 2.03c-.7-1.14-2.37-1.63-3.55-1.58a5.34 5.34 0 0 0-5.33 5.33v6.67l-.85-1.56c-1.86-3.1-5.76-3.45-8.39-1.64a5.5 5.5 0 0 0-1.85 5.56l.28 1.18h-5.13l.29-1.18a5.5 5.5 0 0 0-1.86-5.56 8.17 8.17 0 0 0-2.68-1.2 5.5 5.5 0 0 0-5.7 2.84l-.85 1.56v-6.64c0-2.94-2.4-5.33-5.34-5.33-1.78-.05-3 1.07-3.58 2.57-.38-1.54-.92-2.9-3.54-3.05a5.13 5.13 0 0 0-4.7 2.83 5.34 5.34 0 0 0-7.27 2.55 5.3 5.3 0 0 0-4.06-.2V10.5c0-.98.8-1.78 1.78-1.78z"/></g><rect width="4.76" height="4.76" x="568.91" y="12.17" fill="#a600ff" rx="1.72"/><rect width="5.82" height="4.76" x="568.91" y="21.02" fill="#a600ff" rx="1.72"/></g></svg>