<svg xmlns="http://www.w3.org/2000/svg" width="1330" height="800" viewBox="0 0 351.896 211.667"><text style="line-height:1.25;-inkscape-font-specification:'SF Burlington Script Bold'" x="494.168" y="139.486" stroke-width=".265" font-family="SF Burlington Script" font-size="30.48" font-weight="700" letter-spacing="0" transform="translate(-163.236 -33.222)" word-spacing="0"/><text style="line-height:1.25;-inkscape-font-specification:'Roboto Bold'" x="624.469" y="235.138" stroke-width=".265" font-family="Roboto" font-size="25.4" font-weight="700" letter-spacing="0" transform="translate(-163.236 -33.222)" word-spacing="0"/><text style="line-height:1.25;-inkscape-font-specification:'Roboto Bold'" x="320.065" y="100.123" stroke-width=".265" font-family="Roboto" font-size="5.927" font-weight="700" letter-spacing="0" transform="translate(-163.236 -33.222)" word-spacing="0"/><text style="line-height:1.25;-inkscape-font-specification:'Roboto Bold'" x="249.253" y="83.515" stroke-width=".265" font-family="Roboto" font-size="5.927" font-weight="700" letter-spacing="0" transform="translate(-163.236 -33.222)" word-spacing="0"/><g fill="#cecece" stroke-width="2.875"><path d="M83.086 84.589c-5.524 0-7.493 3.153-9.03 6.608a4.92 4.92 0 0 0-3.196-1.172 4.942 4.942 0 0 0-4.874 5.78c-3.73.59-6.58 3.81-6.58 7.697 0 4.304 3.495 7.793 7.806 7.793H91.37c4.311 0 7.807-3.49 7.807-7.793 0-3.769-2.68-6.912-6.24-7.636.015-.224.025-.45.025-.677 0-5.442-3.176-10.6-9.875-10.6zm.141 1.406a11.176 11.176 0 0 1 2.257.293.278.275 0 1 1-.126.535c-2.636-.608-4.442-.178-5.791.722-1.35.9-2.248 2.298-2.959 3.663a.277.275 0 1 1-.492-.253c.726-1.395 1.666-2.882 3.14-3.866 1.038-.691 2.336-1.12 3.971-1.094zM70.99 91.45c.18-.004.37.003.567.02a.277.275 0 0 1-.049.547c-1.432-.123-2.26.334-2.801 1.018-.542.683-.775 1.63-.854 2.459a.277.275 0 1 1-.552-.051c.085-.888.325-1.933.969-2.747.563-.713 1.451-1.221 2.72-1.246zm5.11 2.454h6.382v6.542h5.612l-8.803 8.722-8.802-8.722H76.1zm-12.334 4.223a.277.275 0 0 1 .052.545c-.68.123-1.377.818-1.871 1.678-.495.86-.783 1.873-.762 2.451a.278.275 0 0 1-.555.02c-.028-.763.296-1.807.835-2.743.538-.935 1.297-1.773 2.253-1.946a.277.275 0 0 1 .048-.005z"/></g></svg>