<svg xmlns="http://www.w3.org/2000/svg" width="1330" height="800" viewBox="0 0 351.9 211.67"><text style="line-height:1.25;-inkscape-font-specification:'SF Burlington Script Bold'" x="494.17" y="139.49" stroke-width=".26" font-family="SF Burlington Script" font-size="30.48" font-weight="700" letter-spacing="0" transform="translate(-163.24 -33.22)" word-spacing="0"/><text style="line-height:1.25;-inkscape-font-specification:'Roboto Bold'" x="624.47" y="235.14" stroke-width=".26" font-family="Roboto" font-size="25.4" font-weight="700" letter-spacing="0" transform="translate(-163.24 -33.22)" word-spacing="0"/><text style="line-height:1.25;-inkscape-font-specification:'Roboto Bold'" x="320.07" y="100.12" stroke-width=".26" font-family="Roboto" font-size="5.93" font-weight="700" letter-spacing="0" transform="translate(-163.24 -33.22)" word-spacing="0"/><text style="line-height:1.25;-inkscape-font-specification:'Roboto Bold'" x="249.25" y="83.52" stroke-width=".26" font-family="Roboto" font-size="5.93" font-weight="700" letter-spacing="0" transform="translate(-163.24 -33.22)" word-spacing="0"/><path fill="#a600ff" d="M35.26 42.53c-.06-.05-4.1-6.89-4.31-7.3-.05-.1-.1.05 2.68-8.44l1.17-3.55c.33-1.03.39-1.16.45-1.12.02 0 1.05 2 2.28 4.44 1.23 2.43 2.28 4.48 2.33 4.55.06.1.09.13.11.09a46502.07 46502.07 0 0 1 6.05-18.35c.34-1.04.64-1.9.67-1.92.03-.02 1.5-.03 3.26-.03 2.5 0 3.23 0 3.28.05.03.02.16.39.29.8l1.35 4.42a43126.41 43126.41 0 0 1 4.62 15.02h.05l8.03-18.62c.38-.87.7-1.6.74-1.63.04-.03 1.3-.04 4.27-.03 3.78 0 4.22.01 4.23.07.01.06-.71 1.85-4.44 11.01A25400.8 25400.8 0 0 0 64 42.51l-.06.1h-4.17c-3.58 0-4.19-.01-4.23-.06-.03-.04-.6-1.8-1.27-3.93a24276.47 24276.47 0 0 0-4.47-14.16c-.02-.04-.04-.06-.06-.04a12535.6 12535.6 0 0 1-5.28 15.87 31.8 31.8 0 0 1-.8 2.26c-.05.04-.95.06-4.19.06-3.87 0-4.13 0-4.21-.08z"/></svg>