<svg xmlns="http://www.w3.org/2000/svg" width="1330" height="800" viewBox="0 0 351.9 211.67"><defs><clipPath id="b"><path d="M0 1000h1333.3V0H0z"/></clipPath><filter id="d" width="1.05" height="1.03" x="-.03" y="-.01" color-interpolation-filters="sRGB"><feGaussianBlur stdDeviation="5.82"/></filter><filter id="c" width="1.05" height="1.03" x="-.03" y="-.01" color-interpolation-filters="sRGB"><feGaussianBlur stdDeviation="5.8"/></filter><filter id="a" width="1.16" height="1.08" x="-.08" y="-.04" color-interpolation-filters="sRGB"><feGaussianBlur stdDeviation="17.41"/></filter><filter id="e" width="1.31" height="3.8" x="-.16" y="-1.4" color-interpolation-filters="sRGB"><feGaussianBlur stdDeviation="33.58"/></filter></defs><path fill="#a600ff" stroke="#a600ff" stroke-linecap="square" stroke-width="1.06" d="M676.14 223.75a31.06 31.06 0 0 1-30.8 31.06 31.06 31.06 0 0 1-31.3-30.56 31.06 31.06 0 0 1 30.29-31.55 31.06 31.06 0 0 1 31.8 30.04"/><text x="784.35" y="265.99" stroke-width=".26" font-family="SF Burlington Script" font-size="25.36" font-weight="700" letter-spacing="0" style="line-height:1.25;-inkscape-font-specification:'SF Burlington Script Bold'" transform="translate(-163.24 -33.22)" word-spacing="0"><tspan x="784.35" y="265.99" fill="#fff" font-family="Roboto Light" font-weight="400" style="-inkscape-font-specification:'Roboto Light, '">60<tspan font-family="Roboto" font-size="10.57" font-weight="700" style="-inkscape-font-specification:'Roboto Bold'">FPS</tspan></tspan></text><text x="494.17" y="139.49" stroke-width=".26" font-family="SF Burlington Script" font-size="30.48" font-weight="700" letter-spacing="0" style="line-height:1.25;-inkscape-font-specification:'SF Burlington Script Bold'" transform="translate(-163.24 -33.22)" word-spacing="0"/><g transform="translate(-325.85 -56.36)"><path fill="#a600ff" d="M199.19 7.03h11.22v11.22h-11.22z"/><path fill="#a600ff" stroke="#a600ff" stroke-linecap="square" stroke-width="1.06" d="M241.77 17.75l-9.97-.03 4.85-9.6zM221.18 7.23l5.36 5.36-5.36 5.36-5.36-5.36z"/><rect width="10.28" height="10.28" x="282.12" y="35.36" fill="none" stroke="#a600ff" stroke-linecap="square" stroke-width="1.06" ry="5.14"/><path fill="none" stroke="#a600ff" stroke-width="1.06" d="M244.67 12.65h42.57v19.79"/></g><g transform="translate(125.63 48.08)"><rect width="107.37" height="26.46" x="553.83" y="202.03" fill="#a600ff" stroke="#a600ff" stroke-linecap="square" stroke-width="1.06" ry="2.21"/><text x="564.71" y="217.32" stroke-width=".26" font-family="Roboto" font-size="16.45" font-weight="700" letter-spacing="0" style="line-height:1.25;-inkscape-font-specification:'Roboto Bold'" transform="scale(1.00117 .99883)" word-spacing="0"><tspan x="564.71" y="217.32" fill="#fff" font-size="6.31" font-weight="400" style="-inkscape-font-specification:Roboto">requestAnimationFrame(loop)</tspan></text></g><text x="624.47" y="235.14" stroke-width=".26" font-family="Roboto" font-size="25.4" font-weight="700" letter-spacing="0" style="line-height:1.25;-inkscape-font-specification:'Roboto Bold'" transform="translate(-163.24 -33.22)" word-spacing="0"/><g stroke-width=".15"><path fill="#a600ff" d="M-94.86 46.15a.9.9 0 0 1-.84-1.2l9.33-25.64-11.28-3.22a.9.9 0 0 1-.43-1.43l22.86-27.17a.9.9 0 0 1 1.54.82l-6.59 22.88 11.34 3.23a.89.89 0 0 1 .43 1.44l-25.68 29.98a.9.9 0 0 1-.68.31zm-.97-31.4l10.87 3.1a.89.89 0 0 1 .6 1.16l-7.98 21.93 21.58-25.19-10.86-3.1a.9.9 0 0 1-.61-1.1l5.68-19.7z"/></g><g stroke="#59ff00" stroke-width="1.06" transform="translate(595.47 38.35)"><rect width="6.75" height="6.75" x="-56.63" y="197.48" fill="none" stroke-linecap="square" rx="1.29" ry="0" transform="scale(1.01566 .9841) rotate(-45)"/><path fill="none" d="M114.09 176.82h45.95"/><rect width="6.75" height="6.75" x="-13.46" y="240.65" fill="#59ff00" stroke-linecap="square" rx="0" ry="0" transform="scale(1.01566 .9841) rotate(-45)"/></g><g stroke-width="2.03"><path fill="#ebd4f4" d="M316.1 135.14a29.8 29.8 0 0 1-16.02-4.66 29.97 29.98 0 0 1-10.66-11.74 29.93 29.93 0 0 1 4.29-6.3 29.94 29.95 0 0 0-6.89 8.9 29.97 29.98 0 0 0 10.66 11.75 29.96 29.96 0 0 0 25.33 3.17v-.3a12.23 12.23 0 0 1 .18-1.62 29.94 29.94 0 0 1-6.89.8z"/><path fill="#e0f4d4" d="M329.6 144a12.24 12.24 0 0 1 8.75-17.99 12.23 12.23 0 1 0 0 24.15 12.25 12.25 0 0 1-8.76-6.16z"/><path fill="#a600ff" d="M313.5 139.3a31.4 31.4 0 0 0 10.2-1.7.78.78 0 1 0-.5-1.47 29.9 29.9 0 0 1-36.38-14.79 29.9 29.9 0 0 1 53.36 0 29.95 29.95 0 0 1-1.9 3.22.78.78 0 0 0 1.3.88 31.52 31.52 0 0 0 2.17-3.75.78.78 0 0 0 0-.7 31.46 31.46 0 0 0-56.5 0 .78.78 0 0 0 0 .7 31.53 31.54 0 0 0 11.4 12.71 31.35 31.35 0 0 0 16.85 4.9z"/><path fill="#a600ff" d="M308.14 115.66a7.67 7.67 0 1 0 12.93 3.87.78.78 0 0 0-1.3-.4 2.66 2.66 0 0 1-3.7-3.83l.17-.15a.78.78 0 0 0-.26-1.34 7.63 7.63 0 0 0-7.84 1.85zm6.82 4.52a4.2 4.2 0 0 0 4.71.87 6.12 6.12 0 1 1-5.35-6.03 4.23 4.23 0 0 0 .64 5.16z"/><path fill="#a600ff" d="M301.7 121.34a11.97 11.97 0 1 0 11.97-11.97 11.99 11.99 0 0 0-11.97 11.97zm22.38 0a10.41 10.41 0 1 1-10.4-10.41 10.42 10.42 0 0 1 10.4 10.41z"/><path fill="#59ff00" d="M336.4 124.3a13.8 13.8 0 1 0 13.8 13.79 13.8 13.81 0 0 0-13.8-13.8zm0 26.02a12.23 12.23 0 1 1 12.23-12.23 12.25 12.25 0 0 1-12.23 12.23z"/><path fill="#59ff00" d="M341.06 134.26l-6.15 6-3.17-3.09a.78.78 0 1 0-1.09 1.12l3.72 3.63a.78.78 0 0 0 1.09 0l6.7-6.54a.78.78 0 1 0-1.1-1.12z"/></g><text x="320.07" y="100.12" stroke-width=".26" font-family="Roboto" font-size="5.93" font-weight="700" letter-spacing="0" style="line-height:1.25;-inkscape-font-specification:'Roboto Bold'" transform="translate(-163.24 -33.22)" word-spacing="0"/><text x="249.25" y="83.52" stroke-width=".26" font-family="Roboto" font-size="5.93" font-weight="700" letter-spacing="0" style="line-height:1.25;-inkscape-font-specification:'Roboto Bold'" transform="translate(-163.24 -33.22)" word-spacing="0"/><g stroke-width=".08"><path fill="#a600ff" d="M-101.06 68.87a6.76 6.76 0 0 0-6.76 6.76 6.76 6.76 0 0 0 6.76 6.76 6.76 6.76 0 0 0 6.76-6.76 6.76 6.76 0 0 0-6.76-6.76zm-24.47 15.08a6.92 6.92 0 0 0-6.32 4.05l-2.27 6.09 6.5 1.79 2.19-5.17h7.47l-6.19 13.86c-2.03 4.5 1.32 9.8 6.26 9.8h16.83v16.9h6.76v-18.59a6.78 6.78 0 0 0-6.76-6.76h-6.28l5.64-12.4a6.77 6.77 0 0 0-6.25-9.57zm-2.57 16.9a16.91 16.91 0 1 0 16.9 16.9h-6.76c0 5.58-4.56 10.15-10.14 10.15a10.17 10.17 0 0 1-10.14-10.15c0-5.57 4.56-10.14 10.14-10.14z"/><path fill="none" d="M-158.53 60.28h81.14v81.14h-81.14z"/></g><g stroke-width="1.5"><path fill="none" stroke="#1f1f1f" stroke-miterlimit="10" stroke-opacity=".57" stroke-width="5.94" d="M3.68 979.07V55.33A53.33 53.33 0 0 1 57.02 2h410.66a53.33 53.33 0 0 1 53.34 53.33v923.74a53.33 53.33 0 0 1-53.34 53.33H57.02a53.33 53.33 0 0 1-53.34-53.33z" filter="url(#a)" transform="matrix(.1726 0 0 .18391 505.59 26.8)"/><g clip-path="url(#b)" transform="matrix(.23013 0 0 -.24138 445.99 240.54)"><path fill="#323232" d="M300.5 884.4a40 40 0 0 1-40-40V150.1a40 40 0 0 1 40-40h308a40 40 0 0 1 40 40v694.3a40 40 0 0 1-40 40zm-.3-22h308.7c15 0 27-12 27-27V160c0-15-12-27-27-27H300.2c-15 0-27 12-27 27v675.5c0 15 12 27 27 27z"/><path fill="none" stroke="#484c57" stroke-miterlimit="10" stroke-width="4.49" d="M260.5 151.6v692.8a40 40 0 0 0 40 40h308a40 40 0 0 0 40-40V151.6a40 40 0 0 0-40-40h-308a40 40 0 0 0-40 40z"/><path fill="#3e3e3e" d="M648.5 647.4a2 2 0 0 0-2 2v48c0 1.1 1 2 2 2a4 4 0 0 0 4-4v-44a4 4 0 0 0-4-4m.5-152a2.5 2.5 0 0 0-2.5 2.5v96a2.5 2.5 0 1 0 5 0v-96c0-1.4-1.1-2.5-2.5-2.5"/></g><path fill="none" stroke="#acacac" stroke-miterlimit="10" stroke-opacity=".27" stroke-width="6.07" d="M3.68 979.07V55.33A53.33 53.33 0 0 1 57.02 2h410.66a53.33 53.33 0 0 1 53.34 53.33v923.73a53.33 53.33 0 0 1-53.34 53.34H57.02a53.33 53.33 0 0 1-53.34-53.34z" filter="url(#c)" transform="matrix(.1726 0 0 .17646 505.59 31.52)"/><path fill="none" stroke="#000" stroke-miterlimit="10" stroke-width="5.99" d="M81.32 1019.98V96.25a53.33 53.33 0 0 1 53.33-53.33h410.67a53.33 53.33 0 0 1 53.33 53.33v923.73a53.33 53.33 0 0 1-53.33 53.34H134.65a53.33 53.33 0 0 1-53.33-53.34z" filter="url(#d)" transform="matrix(.1726 0 0 .18103 492.19 19.4)"/><path fill="#4b4b4b" fill-opacity=".7" d="M599.39 1093.6a259.4 28.82 0 0 1-257.3 28.82 259.4 28.82 0 0 1-261.47-28.36 259.4 28.82 0 0 1 253.06-29.28 259.4 28.82 0 0 1 265.57 27.88" filter="url(#e)" transform="matrix(.1726 0 0 .18103 492.19 19.4)"/></g></svg>