<svg xmlns="http://www.w3.org/2000/svg" width="1330" height="800" viewBox="0 0 351.9 211.67"><text x="494.17" y="139.49" stroke-width=".26" font-family="SF Burlington Script" font-size="30.48" font-weight="700" letter-spacing="0" style="line-height:1.25;-inkscape-font-specification:'SF Burlington Script Bold'" transform="translate(-163.24 -33.22)" word-spacing="0"/><text x="624.47" y="235.14" stroke-width=".26" font-family="Roboto" font-size="25.4" font-weight="700" letter-spacing="0" style="line-height:1.25;-inkscape-font-specification:'Roboto Bold'" transform="translate(-163.24 -33.22)" word-spacing="0"/><text x="320.07" y="100.12" stroke-width=".26" font-family="Roboto" font-size="5.93" font-weight="700" letter-spacing="0" style="line-height:1.25;-inkscape-font-specification:'Roboto Bold'" transform="translate(-163.24 -33.22)" word-spacing="0"/><text x="249.25" y="83.52" stroke-width=".26" font-family="Roboto" font-size="5.93" font-weight="700" letter-spacing="0" style="line-height:1.25;-inkscape-font-specification:'Roboto Bold'" transform="translate(-163.24 -33.22)" word-spacing="0"/><path d="M81.88 11.04h-.02a548.9 548.9 0 0 0-4.14 10.42c0 .05.74 2.13 1.64 4.62.9 2.5 1.63 4.57 1.63 4.6 0 .06-.31.07-3.47.07-1.9 0-3.49.02-3.52.04-.07.04-2.46 6.04-2.42 6.08.02.02 2.6.04 5.73.04l5.69.01 1 2.76 1.02 2.82c.02.06.5.06 4.44.06 3.57 0 4.4 0 4.4-.05a19820.76 19820.76 0 0 0-11.9-31.37c-.03-.06-.05-.1-.08-.1z" opacity=".89"/></svg>