<svg xmlns="http://www.w3.org/2000/svg" width="1330" height="800" viewBox="0 0 351.9 211.67"><text style="line-height:1.25;-inkscape-font-specification:'SF Burlington Script Bold'" x="494.17" y="139.49" stroke-width=".26" font-family="SF Burlington Script" font-size="30.48" font-weight="700" letter-spacing="0" transform="translate(-163.24 -33.22)" word-spacing="0"/><text style="line-height:1.25;-inkscape-font-specification:'Roboto Bold'" x="624.47" y="235.14" stroke-width=".26" font-family="Roboto" font-size="25.4" font-weight="700" letter-spacing="0" transform="translate(-163.24 -33.22)" word-spacing="0"/><text style="line-height:1.25;-inkscape-font-specification:'Roboto Bold'" x="320.07" y="100.12" stroke-width=".26" font-family="Roboto" font-size="5.93" font-weight="700" letter-spacing="0" transform="translate(-163.24 -33.22)" word-spacing="0"/><text style="line-height:1.25;-inkscape-font-specification:'Roboto Bold'" x="249.25" y="83.52" stroke-width=".26" font-family="Roboto" font-size="5.93" font-weight="700" letter-spacing="0" transform="translate(-163.24 -33.22)" word-spacing="0"/><g stroke-width=".19"><path fill="none" d="M10.62 67.2h33.8v33.49h-33.8z"/><path fill="#a600ff" d="M43.91 76.97c-.63-.48-6.94-5.58-16.4-5.58-2.1 0-4.06.26-5.84.67l14.55 14.4zm-9.3 11.47L15.23 69.2 13.43 71l2.89 2.87c-3.01 1.37-4.87 2.85-5.2 3.1L27.5 97.19l.02.01.01-.01 5.5-6.78 4.67 4.63 1.79-1.77z"/></g></svg>